<svg width="64" height="64" viewBox="0 0 64 64" fill="none" xmlns="http://www.w3.org/2000/svg">
<circle cx="32" cy="32" r="32" fill="white"/>
<path d="M31.9632 12.3719C33.617 12.3719 35.203 13.0289 36.3724 14.1983C37.5418 15.3677 38.1988 16.9538 38.1988 18.6075C38.1988 20.2613 37.5418 21.8474 36.3724 23.0168C35.203 24.1862 33.617 24.8431 31.9632 24.8431C30.3091 24.8431 28.7227 24.186 27.553 23.0164C26.3833 21.8467 25.7262 20.2603 25.7262 18.6061C25.7262 16.952 26.3833 15.3656 27.553 14.1959C28.7227 13.0263 30.3091 12.3719 31.9632 12.3719ZM31.9632 15.1719C31.052 15.1719 30.1782 15.5339 29.5339 16.1782C28.8896 16.8225 28.5276 17.6964 28.5276 18.6075C28.5276 19.5187 28.8896 20.3926 29.5339 21.0369C30.1782 21.6812 31.052 22.0431 31.9632 22.0431C32.8748 22.0431 33.749 21.681 34.3935 21.0365C35.0381 20.3919 35.4002 19.5177 35.4002 18.6061C35.4002 17.6946 35.0381 16.8204 34.3935 16.1758C33.749 15.5313 32.8748 15.1719 31.9632 15.1719ZM12.4444 36.1999C12.4444 36.5712 12.2969 36.9273 12.0344 37.1899C11.7718 37.4524 11.4157 37.5999 11.0444 37.5999C10.6731 37.5999 10.317 37.4524 10.0545 37.1899C9.79191 36.9273 9.64441 36.5712 9.64441 36.1999V29.2391C9.6445 28.5533 9.89629 27.8914 10.352 27.3789C10.8077 26.8664 11.4357 26.539 12.1168 26.4587L12.4444 26.4391H20.164C19.7566 27.1421 19.5081 27.9258 19.436 28.7351L19.4136 29.2391H12.4416L12.4444 36.1999ZM52.9716 37.5999C53.3429 37.5999 53.699 37.4524 53.9616 37.1899C54.2241 36.9273 54.3716 36.5712 54.3716 36.1999V29.2391L54.352 28.9143C54.2724 28.2327 53.9453 27.6041 53.4327 27.1478C52.9201 26.6915 52.2579 26.4393 51.5716 26.4391H43.7764C44.1852 27.1475 44.4484 27.9595 44.51 28.8219L44.524 29.2419H51.5716V36.1999C51.5716 36.5712 51.7191 36.9273 51.9817 37.1899C52.2442 37.4524 52.6003 37.5999 52.9716 37.5999ZM38.9268 26.4391C39.6131 26.4393 40.2753 26.6915 40.7879 27.1478C41.3005 27.6041 41.6276 28.2327 41.7072 28.9143L41.724 29.2391V36.1999C41.724 36.5712 41.5765 36.9273 41.314 37.1899C41.0514 37.4524 40.6953 37.5999 40.324 37.5999C39.9527 37.5999 39.5966 37.4524 39.3341 37.1899C39.0715 36.9273 38.924 36.5712 38.924 36.1999V29.2391H25.0136V36.1999C25.0136 36.5712 24.8661 36.9273 24.6036 37.1899C24.341 37.4524 23.9849 37.5999 23.6136 37.5999C23.2423 37.5999 22.8862 37.4524 22.6237 37.1899C22.3611 36.9273 22.2136 36.5712 22.2136 36.1999V29.2391C22.2137 28.5533 22.4655 27.8914 22.9212 27.3789C23.3769 26.8664 24.0049 26.539 24.686 26.4587L25.0136 26.4391H38.924H38.9268ZM51.286 19.4867C51.286 18.0658 50.7215 16.703 49.7168 15.6982C48.712 14.6934 47.3492 14.1289 45.9282 14.1289C44.5072 14.1289 43.1445 14.6934 42.1397 15.6982C41.1349 16.703 40.5704 18.0658 40.5704 19.4867C40.5704 20.9077 41.1349 22.2705 42.1397 23.2753C43.1445 24.2801 44.5072 24.8445 45.9282 24.8445C47.3492 24.8445 48.712 24.2801 49.7168 23.2753C50.7215 22.2705 51.286 20.9077 51.286 19.4867ZM43.3704 19.4867C43.3704 18.8084 43.6399 18.1578 44.1196 17.6781C44.5993 17.1984 45.2498 16.9289 45.9282 16.9289C46.6066 16.9289 47.2572 17.1984 47.7369 17.6781C48.2165 18.1578 48.486 18.8084 48.486 19.4867C48.486 20.1651 48.2165 20.8157 47.7369 21.2954C47.2572 21.7751 46.6066 22.0445 45.9282 22.0445C45.2498 22.0445 44.5993 21.7751 44.1196 21.2954C43.6399 20.8157 43.3704 20.1651 43.3704 19.4867ZM18.0444 14.1275C19.4654 14.1275 20.8282 14.692 21.8329 15.6968C22.8377 16.7016 23.4022 18.0644 23.4022 19.4853C23.4022 20.9063 22.8377 22.2691 21.8329 23.2739C20.8282 24.2787 19.4654 24.8431 18.0444 24.8431C16.6234 24.8431 15.2607 24.2787 14.2559 23.2739C13.2511 22.2691 12.6866 20.9063 12.6866 19.4853C12.6866 18.0644 13.2511 16.7016 14.2559 15.6968C15.2607 14.692 16.6234 14.1275 18.0444 14.1275ZM18.0444 16.9275C17.366 16.9275 16.7155 17.197 16.2358 17.6767C15.7561 18.1564 15.4866 18.807 15.4866 19.4853C15.4866 20.1637 15.7561 20.8143 16.2358 21.294C16.7155 21.7737 17.366 22.0431 18.0444 22.0431C18.7228 22.0431 19.3734 21.7737 19.853 21.294C20.3327 20.8143 20.6022 20.1637 20.6022 19.4853C20.6022 18.807 20.3327 18.1564 19.853 17.6767C19.3734 17.197 18.7228 16.9275 18.0444 16.9275ZM10.9996 40.3999C10.6283 40.3999 10.2722 40.5474 10.0097 40.81C9.74711 41.0725 9.59961 41.4286 9.59961 41.7999V44.5999C9.59961 46.4565 10.3371 48.2369 11.6499 49.5497C12.9626 50.8624 14.7431 51.5999 16.5996 51.5999H47.3996C49.2561 51.5999 51.0366 50.8624 52.3494 49.5497C53.6621 48.2369 54.3996 46.4565 54.3996 44.5999V41.7999C54.3996 41.4286 54.2521 41.0725 53.9896 40.81C53.727 40.5474 53.3709 40.3999 52.9996 40.3999H10.9996ZM12.3996 44.5999V43.1999H51.5996V44.5999C51.5996 45.7139 51.1571 46.7821 50.3695 47.5698C49.5818 48.3574 48.5135 48.7999 47.3996 48.7999H16.5996C15.4857 48.7999 14.4174 48.3574 13.6298 47.5698C12.8421 46.7821 12.3996 45.7139 12.3996 44.5999Z" fill="#103654"/>
</svg>
