<svg width="64" height="64" viewBox="0 0 64 64" fill="none" xmlns="http://www.w3.org/2000/svg">
<circle cx="32" cy="32" r="32" fill="white"/>
<path d="M21.2002 20C20.8819 20 20.5767 20.1264 20.3517 20.3514C20.1266 20.5765 20.0002 20.8817 20.0002 21.2C20.0002 21.5182 20.1266 21.8234 20.3517 22.0485C20.5767 22.2735 20.8819 22.4 21.2002 22.4H42.8002C43.1185 22.4 43.4237 22.2735 43.6487 22.0485C43.8738 21.8234 44.0002 21.5182 44.0002 21.2C44.0002 20.8817 43.8738 20.5765 43.6487 20.3514C43.4237 20.1264 43.1185 20 42.8002 20H21.2002ZM23.6002 34.4C24.555 34.4 25.4706 34.0207 26.1458 33.3455C26.8209 32.6704 27.2002 31.7547 27.2002 30.8C27.2002 29.8452 26.8209 28.9295 26.1458 28.2544C25.4706 27.5792 24.555 27.2 23.6002 27.2C22.6454 27.2 21.7297 27.5792 21.0546 28.2544C20.3795 28.9295 20.0002 29.8452 20.0002 30.8C20.0002 31.7547 20.3795 32.6704 21.0546 33.3455C21.7297 34.0207 22.6454 34.4 23.6002 34.4ZM23.6002 32C23.2819 32 22.9767 31.8735 22.7517 31.6485C22.5266 31.4234 22.4002 31.1182 22.4002 30.8C22.4002 30.4817 22.5266 30.1765 22.7517 29.9514C22.9767 29.7264 23.2819 29.6 23.6002 29.6C23.9185 29.6 24.2237 29.7264 24.4487 29.9514C24.6738 30.1765 24.8002 30.4817 24.8002 30.8C24.8002 31.1182 24.6738 31.4234 24.4487 31.6485C24.2237 31.8735 23.9185 32 23.6002 32ZM27.2002 40.4C27.2002 41.3547 26.8209 42.2704 26.1458 42.9455C25.4706 43.6207 24.555 43.9999 23.6002 44C22.6454 43.9999 21.7297 43.6207 21.0546 42.9455C20.3795 42.2704 20.0002 41.3547 20.0002 40.4C20.0002 39.4452 20.3795 38.5295 21.0546 37.8544C21.7297 37.1792 22.6454 36.7999 23.6002 36.7999C24.555 36.7999 25.4706 37.1792 26.1458 37.8544C26.8209 38.5295 27.2002 39.4452 27.2002 40.4ZM24.8002 40.4C24.8002 40.0817 24.6738 39.7765 24.4487 39.5514C24.2237 39.3264 23.9185 39.1999 23.6002 39.1999C23.2819 39.1999 22.9767 39.3264 22.7517 39.5514C22.5266 39.7765 22.4002 40.0817 22.4002 40.4C22.4002 40.7182 22.5266 41.0234 22.7517 41.2485C22.9767 41.4735 23.2819 41.5999 23.6002 41.5999C23.9185 41.5999 24.2237 41.4735 24.4487 41.2485C24.6738 41.0234 24.8002 40.7182 24.8002 40.4ZM29.6002 30.8C29.6002 30.4817 29.7266 30.1765 29.9517 29.9514C30.1767 29.7264 30.4819 29.6 30.8002 29.6H42.8002C43.1185 29.6 43.4237 29.7264 43.6487 29.9514C43.8738 30.1765 44.0002 30.4817 44.0002 30.8C44.0002 31.1182 43.8738 31.4234 43.6487 31.6485C43.4237 31.8735 43.1185 32 42.8002 32H30.8002C30.4819 32 30.1767 31.8735 29.9517 31.6485C29.7266 31.4234 29.6002 31.1182 29.6002 30.8ZM30.8002 39.1999C30.4819 39.1999 30.1767 39.3264 29.9517 39.5514C29.7266 39.7765 29.6002 40.0817 29.6002 40.4C29.6002 40.7182 29.7266 41.0234 29.9517 41.2485C30.1767 41.4735 30.4819 41.5999 30.8002 41.5999H42.8002C43.1185 41.5999 43.4237 41.4735 43.6487 41.2485C43.8738 41.0234 44.0002 40.7182 44.0002 40.4C44.0002 40.0817 43.8738 39.7765 43.6487 39.5514C43.4237 39.3264 43.1185 39.1999 42.8002 39.1999H30.8002ZM22.4002 15.2C20.4906 15.2 18.6593 15.9585 17.309 17.3088C15.9588 18.659 15.2002 20.4904 15.2002 22.4V41.5999C15.2002 43.5095 15.9588 45.3409 17.309 46.6911C18.6593 48.0414 20.4906 48.7999 22.4002 48.7999H41.6002C43.5098 48.7999 45.3411 48.0414 46.6914 46.6911C48.0416 45.3409 48.8002 43.5095 48.8002 41.5999V22.4C48.8002 20.4904 48.0416 18.659 46.6914 17.3088C45.3411 15.9585 43.5098 15.2 41.6002 15.2H22.4002ZM17.6002 22.4C17.6002 21.1269 18.1059 19.906 19.0061 19.0058C19.9063 18.1057 21.1272 17.6 22.4002 17.6H41.6002C42.8732 17.6 44.0941 18.1057 44.9943 19.0058C45.8945 19.906 46.4002 21.1269 46.4002 22.4V41.5999C46.4002 42.873 45.8945 44.0939 44.9943 44.9941C44.0941 45.8942 42.8732 46.4 41.6002 46.4H22.4002C21.1272 46.4 19.9063 45.8942 19.0061 44.9941C18.1059 44.0939 17.6002 42.873 17.6002 41.5999V22.4Z" fill="#103654"/>
</svg>
