<svg width="64" height="64" viewBox="0 0 64 64" fill="none" xmlns="http://www.w3.org/2000/svg">
<circle cx="32" cy="32" r="32" fill="white"/>
<path d="M41 51.8719H23C21.6739 51.8719 20.4021 51.3451 19.4645 50.4075C18.5268 49.4698 18 48.198 18 46.8719V17.1279C18 15.8018 18.5268 14.5301 19.4645 13.5924C20.4021 12.6547 21.6739 12.1279 23 12.1279H41C42.3261 12.1279 43.5979 12.6547 44.5355 13.5924C45.4732 14.5301 46 15.8018 46 17.1279V46.8719C46 48.198 45.4732 49.4698 44.5355 50.4075C43.5979 51.3451 42.3261 51.8719 41 51.8719ZM23 14.1279C22.2044 14.1279 21.4413 14.444 20.8787 15.0066C20.3161 15.5692 20 16.3323 20 17.1279V46.8719C20 47.6676 20.3161 48.4306 20.8787 48.9933C21.4413 49.5559 22.2044 49.8719 23 49.8719H41C41.7956 49.8719 42.5587 49.5559 43.1213 48.9933C43.6839 48.4306 44 47.6676 44 46.8719V17.1279C44 16.3323 43.6839 15.5692 43.1213 15.0066C42.5587 14.444 41.7956 14.1279 41 14.1279H23Z" fill="#103654"/>
<path d="M32 33.126C30.6155 33.126 29.2622 32.7154 28.111 31.9463C26.9599 31.1771 26.0627 30.0838 25.5328 28.8048C25.003 27.5257 24.8644 26.1182 25.1345 24.7603C25.4046 23.4025 26.0713 22.1552 27.0503 21.1762C28.0292 20.1973 29.2765 19.5306 30.6344 19.2605C31.9922 18.9904 33.3997 19.129 34.6788 19.6588C35.9579 20.1886 37.0511 21.0858 37.8203 22.237C38.5895 23.3881 39 24.7415 39 26.126C39 27.9825 38.2625 29.763 36.9498 31.0757C35.637 32.3885 33.8565 33.126 32 33.126ZM32 21.126C31.0111 21.126 30.0444 21.4192 29.2222 21.9686C28.3999 22.518 27.759 23.2989 27.3806 24.2126C27.0022 25.1262 26.9032 26.1315 27.0961 27.1014C27.289 28.0713 27.7652 28.9623 28.4645 29.6615C29.1637 30.3608 30.0546 30.837 31.0246 31.0299C31.9945 31.2228 32.9998 31.1238 33.9134 30.7454C34.8271 30.3669 35.6079 29.7261 36.1574 28.9038C36.7068 28.0816 37 27.1149 37 26.126C37 24.7999 36.4732 23.5281 35.5355 22.5904C34.5979 21.6528 33.3261 21.126 32 21.126ZM38 44.876H26C25.7348 44.876 25.4804 44.7706 25.2929 44.5831C25.1054 44.3955 25 44.1412 25 43.876C25 43.6108 25.1054 43.3564 25.2929 43.1689C25.4804 42.9813 25.7348 42.876 26 42.876H38C38.2652 42.876 38.5196 42.9813 38.7071 43.1689C38.8946 43.3564 39 43.6108 39 43.876C39 44.1412 38.8946 44.3955 38.7071 44.5831C38.5196 44.7706 38.2652 44.876 38 44.876Z" fill="#103654"/>
</svg>
