<svg width="64" height="64" viewBox="0 0 64 64" fill="none" xmlns="http://www.w3.org/2000/svg">
<circle cx="32" cy="32" r="32" fill="white"/>
<path d="M50.5763 14.6241C52.5132 16.5678 53.6007 19.2 53.6007 21.9441C53.6007 24.6881 52.5132 27.3203 50.5763 29.2641L46.9043 32.9121C44.2163 35.6001 40.4243 36.4401 36.9683 35.5281L43.2563 29.2641L45.0803 27.4161L46.9043 25.5921C48.9203 23.5761 48.9203 20.3121 46.9043 18.2961C46.4284 17.8113 45.8607 17.4263 45.2344 17.1634C44.608 16.9006 43.9355 16.7652 43.2563 16.7652C42.577 16.7652 41.9045 16.9006 41.2782 17.1634C40.6518 17.4263 40.0841 17.8113 39.6083 18.2961L37.7603 20.1201L29.6483 28.2321C28.7603 24.7761 29.6003 20.9841 32.2883 18.2961L35.9363 14.6241C37.88 12.6872 40.5122 11.5996 43.2563 11.5996C46.0003 11.5996 48.6325 12.6872 50.5763 14.6241ZM28.6163 40.2321L41.4323 27.4161C42.4403 26.4081 42.4403 24.7761 41.4323 23.7681C40.3763 22.7361 38.7203 22.8321 37.7603 23.7681L24.9683 36.5841C23.9603 37.5921 23.9603 39.2241 24.9683 40.2321C26.0243 41.2641 27.6803 41.1681 28.6163 40.2321ZM26.7923 45.7281L36.7283 35.7681C37.6403 39.2241 36.8003 43.0161 34.1123 45.7041L30.4643 49.3761C28.5205 51.313 25.8883 52.4005 23.1443 52.4005C20.4002 52.4005 17.768 51.313 15.8243 49.3761C13.8874 47.4323 12.7998 44.8001 12.7998 42.0561C12.7998 39.312 13.8874 36.6798 15.8243 34.7361L19.4963 31.0881C22.1843 28.4001 25.9763 27.5601 29.4323 28.4481L19.4963 38.4081C17.4563 40.4241 17.4563 43.6881 19.4963 45.7281C21.5123 47.7441 24.7763 47.7441 26.7923 45.7281Z" fill="#103654"/>
</svg>
