<svg width="64" height="64" viewBox="0 0 64 64" fill="none" xmlns="http://www.w3.org/2000/svg">
<circle cx="32" cy="32" r="32" fill="white"/>
<path d="M30.7252 37.6061C32.7377 36.2692 34.2664 34.3199 35.0849 32.0467C35.9034 29.7735 35.9684 27.2971 35.2701 24.9841C34.5719 22.6711 33.1475 20.6443 31.2079 19.2038C29.2682 17.7632 26.9163 16.9854 24.5002 16.9854C22.0841 16.9854 19.7322 17.7632 17.7925 19.2038C15.8528 20.6443 14.4285 22.6711 13.7302 24.9841C13.032 27.2971 13.0969 29.7735 13.9155 32.0467C14.734 34.3199 16.2627 36.2692 18.2752 37.6061C14.842 38.8686 11.8778 41.1523 9.78144 44.1499C9.6448 44.3082 9.54278 44.4934 9.48192 44.6934C9.42106 44.8935 9.40271 45.1041 9.42804 45.3117C9.45338 45.5193 9.52184 45.7193 9.62903 45.8988C9.73623 46.0784 9.87978 46.2336 10.0505 46.3544C10.2212 46.4752 10.4153 46.5589 10.6203 46.6003C10.8253 46.6417 11.0366 46.6397 11.2408 46.5946C11.445 46.5494 11.6375 46.4621 11.806 46.3381C11.9744 46.2142 12.1151 46.0564 12.2189 45.8749C13.6051 43.9057 15.4444 42.2987 17.5818 41.1894C19.7192 40.0801 22.0921 39.501 24.5002 39.501C26.9083 39.501 29.2811 40.0801 31.4186 41.1894C33.556 42.2987 35.3953 43.9057 36.7814 45.8749C36.8853 46.0564 37.026 46.2142 37.1944 46.3381C37.3628 46.4621 37.5553 46.5494 37.7595 46.5946C37.9637 46.6397 38.1751 46.6417 38.3801 46.6003C38.5851 46.5589 38.7792 46.4752 38.9499 46.3544C39.1206 46.2336 39.2642 46.0784 39.3713 45.8988C39.4785 45.7193 39.547 45.5193 39.5723 45.3117C39.5977 45.1041 39.5793 44.8935 39.5185 44.6934C39.4576 44.4934 39.3556 44.3082 39.2189 44.1499C37.1225 41.1523 34.1584 38.8686 30.7252 37.6061ZM16.2502 28.2499C16.2502 26.6182 16.734 25.0232 17.6406 23.6664C18.5471 22.3097 19.8356 21.2523 21.3431 20.6279C22.8505 20.0035 24.5093 19.8401 26.1097 20.1584C27.71 20.4768 29.18 21.2625 30.3338 22.4163C31.4876 23.5701 32.2733 25.0401 32.5917 26.6404C32.91 28.2407 32.7466 29.8995 32.1222 31.407C31.4978 32.9145 30.4404 34.203 29.0836 35.1095C27.7269 36.016 26.1319 36.4999 24.5002 36.4999C22.3122 36.4999 20.2137 35.6307 18.6666 34.0835C17.1194 32.5364 16.2502 30.4379 16.2502 28.2499ZM54.1439 46.2311C53.9844 46.346 53.8037 46.4279 53.6122 46.4721C53.4208 46.5164 53.2224 46.5221 53.0287 46.489C52.835 46.4558 52.6498 46.3844 52.484 46.279C52.3181 46.1736 52.1749 46.0362 52.0627 45.8749C50.6756 43.9066 48.8361 42.3002 46.6989 41.1909C44.5617 40.0815 42.1894 39.5016 39.7814 39.4999C39.3836 39.4999 39.0021 39.3419 38.7208 39.0606C38.4395 38.7793 38.2814 38.3977 38.2814 37.9999C38.2814 37.6021 38.4395 37.2205 38.7208 36.9392C39.0021 36.6579 39.3836 36.4999 39.7814 36.4999C41.9695 36.4999 44.0679 35.6307 45.6151 34.0835C47.1622 32.5364 48.0314 30.4379 48.0314 28.2499C48.0314 26.0619 47.1622 23.9634 45.6151 22.4163C44.0679 20.8691 41.9695 19.9999 39.7814 19.9999C39.028 20.0049 38.2782 20.1057 37.5502 20.2999C37.3606 20.3543 37.1621 20.3707 36.9662 20.3483C36.7702 20.3259 36.5806 20.2651 36.4082 20.1693C36.2358 20.0735 36.0839 19.9446 35.9614 19.7901C35.8388 19.6356 35.7479 19.4584 35.6939 19.2687C35.5892 18.8859 35.6385 18.4773 35.8312 18.1303C36.024 17.7834 36.3448 17.5257 36.7252 17.4124C37.722 17.144 38.7492 17.0054 39.7814 16.9999C42.2 16.9912 44.5568 17.7635 46.5013 19.2019C48.4457 20.6402 49.8738 22.6679 50.5732 24.9832C51.2727 27.2984 51.206 29.7776 50.3832 32.052C49.5604 34.3263 48.0253 36.2743 46.0064 37.6061C49.4418 38.8738 52.4106 41.1559 54.5189 44.1499C54.744 44.476 54.8309 44.8779 54.7606 45.2679C54.6903 45.6578 54.4687 46.0041 54.1439 46.2311Z" fill="#103654"/>
</svg>
