<svg width="64" height="64" viewBox="0 0 64 64" fill="none" xmlns="http://www.w3.org/2000/svg">
<circle cx="32" cy="32" r="32" fill="white"/>
<path d="M32 26C36.42 26 40 22.42 40 18C40 13.58 36.42 10 32 10C27.58 10 24 13.58 24 18C24 22.42 27.58 26 32 26ZM32 14C34.2 14 36 15.8 36 18C36 20.2 34.2 22 32 22C29.8 22 28 20.2 28 18C28 15.8 29.8 14 32 14ZM32 31.1C27.28 26.7 20.96 24 14 24V46C20.96 46 27.28 48.7 32 53.1C36.72 48.72 43.04 46 50 46V24C43.04 24 36.72 26.7 32 31.1ZM46 42.26C40.94 42.94 36.14 44.86 32 47.9C27.8837 44.8659 23.0684 42.9191 18 42.24V28.34C22.2 29.1 26.1 31.04 29.28 34L32 36.56L34.72 34.02C37.8585 31.0894 41.7745 29.1244 46 28.36V42.26Z" fill="#103654"/>
</svg>
