<svg width="64" height="64" viewBox="0 0 64 64" fill="none" xmlns="http://www.w3.org/2000/svg">
<circle cx="32" cy="32" r="32" fill="white"/>
<path d="M32 26.2578C32.7969 26.2578 33.5391 26.4062 34.2266 26.7031C34.9141 27 35.5234 27.4141 36.0547 27.9453C36.5859 28.4766 36.9922 29.0781 37.2734 29.75C37.5547 30.4219 37.7109 31.1719 37.7422 32C37.7422 32.7969 37.5938 33.5391 37.2969 34.2266C37 34.9141 36.5859 35.5234 36.0547 36.0547C35.5234 36.5859 34.9219 36.9922 34.25 37.2734C33.5781 37.5547 32.8281 37.7109 32 37.7422C31.2031 37.7422 30.4609 37.5938 29.7734 37.2969C29.0859 37 28.4766 36.5859 27.9453 36.0547C27.4141 35.5234 27.0078 34.9219 26.7266 34.25C26.4453 33.5781 26.2891 32.8281 26.2578 32C26.2578 31.2031 26.4062 30.4609 26.7031 29.7734C27 29.0859 27.4141 28.4766 27.9453 27.9453C28.4766 27.4141 29.0781 27.0078 29.75 26.7266C30.4219 26.4453 31.1719 26.2891 32 26.2578ZM32 35.2578C32.4531 35.2578 32.875 35.1719 33.2656 35C33.6562 34.8281 34 34.6016 34.2969 34.3203C34.5938 34.0391 34.8281 33.6953 35 33.2891C35.1719 32.8828 35.2578 32.4531 35.2578 32C35.2578 31.5469 35.1719 31.125 35 30.7344C34.8281 30.3438 34.6016 30 34.3203 29.7031C34.0391 29.4062 33.6953 29.1719 33.2891 29C32.8828 28.8281 32.4531 28.7422 32 28.7422C31.5469 28.7422 31.125 28.8281 30.7344 29C30.3438 29.1719 30 29.3984 29.7031 29.6797C29.4062 29.9609 29.1719 30.3047 29 30.7109C28.8281 31.1172 28.7422 31.5469 28.7422 32C28.7422 32.4531 28.8281 32.875 29 33.2656C29.1719 33.6562 29.3984 34 29.6797 34.2969C29.9609 34.5938 30.3047 34.8281 30.7109 35C31.1172 35.1719 31.5469 35.2578 32 35.2578ZM48.7812 15.2188C49.9062 16.3281 50.8984 17.5312 51.7578 18.8281C52.6172 20.125 53.3438 21.4844 53.9375 22.9062C54.5312 24.3281 54.9766 25.8047 55.2734 27.3359C55.5703 28.8672 55.7266 30.4219 55.7422 32C55.7422 33.5781 55.5938 35.1328 55.2969 36.6641C55 38.1953 54.5469 39.6719 53.9375 41.0938C53.3281 42.5156 52.6016 43.875 51.7578 45.1719C50.9141 46.4688 49.9219 47.6719 48.7812 48.7812L47.0234 47.0234C48.0234 46.0234 48.9062 44.9453 49.6719 43.7891C50.4375 42.6328 51.0859 41.4141 51.6172 40.1328C52.1484 38.8516 52.5469 37.5312 52.8125 36.1719C53.0781 34.8125 53.2188 33.4219 53.2344 32C53.2344 30.5938 53.1016 29.2109 52.8359 27.8516C52.5703 26.4922 52.1719 25.1641 51.6406 23.8672C51.1094 22.5703 50.4609 21.3516 49.6953 20.2109C48.9297 19.0703 48.0391 17.9922 47.0234 16.9766L48.7812 15.2188ZM16.9766 16.9766C15.9766 17.9766 15.0938 19.0547 14.3281 20.2109C13.5625 21.3672 12.9062 22.5859 12.3594 23.8672C11.8125 25.1484 11.4141 26.4688 11.1641 27.8281C10.9141 29.1875 10.7734 30.5781 10.7422 32C10.7422 33.4062 10.875 34.7891 11.1406 36.1484C11.4062 37.5078 11.8125 38.8359 12.3594 40.1328C12.9062 41.4297 13.5547 42.6484 14.3047 43.7891C15.0547 44.9297 15.9453 46.0078 16.9766 47.0234L15.2188 48.7812C14.0938 47.6719 13.1016 46.4688 12.2422 45.1719C11.3828 43.875 10.6562 42.5156 10.0625 41.0938C9.46875 39.6719 9.02344 38.1953 8.72656 36.6641C8.42969 35.1328 8.27344 33.5781 8.25781 32C8.25781 30.4219 8.40625 28.8672 8.70312 27.3359C9 25.8047 9.45312 24.3281 10.0625 22.9062C10.6719 21.4844 11.3984 20.125 12.2422 18.8281C13.0859 17.5312 14.0781 16.3281 15.2188 15.2188L16.9766 16.9766ZM42.4297 21.5703C43.8203 22.9766 44.8828 24.5703 45.6172 26.3516C46.3516 28.1328 46.7266 30.0156 46.7422 32C46.7422 33.9688 46.375 35.8438 45.6406 37.625C44.9062 39.4062 43.8359 41.0078 42.4297 42.4297L40.6719 40.6719C41.8281 39.5156 42.7109 38.1953 43.3203 36.7109C43.9297 35.2266 44.2422 33.6562 44.2578 32C44.2578 30.3594 43.9531 28.7969 43.3438 27.3125C42.7344 25.8281 41.8438 24.5 40.6719 23.3281L42.4297 21.5703ZM23.3281 23.3281C22.1719 24.4844 21.2891 25.8047 20.6797 27.2891C20.0703 28.7734 19.7578 30.3438 19.7422 32C19.7422 33.6406 20.0469 35.2031 20.6562 36.6875C21.2656 38.1719 22.1562 39.5 23.3281 40.6719L21.5703 42.4297C20.1797 41.0234 19.1172 39.4297 18.3828 37.6484C17.6484 35.8672 17.2734 33.9844 17.2578 32C17.2578 30.0312 17.625 28.1562 18.3594 26.375C19.0938 24.5938 20.1641 22.9922 21.5703 21.5703L23.3281 23.3281Z" fill="#103654"/>
</svg>
