<svg width="64" height="64" viewBox="0 0 64 64" fill="none" xmlns="http://www.w3.org/2000/svg">
<circle cx="32" cy="32" r="32" fill="white"/>
<path d="M32.0004 23.6C32.0004 23.2817 31.874 22.9765 31.6489 22.7514C31.4239 22.5264 31.1187 22.4 30.8004 22.4C30.4821 22.4 30.1769 22.5264 29.9519 22.7514C29.7268 22.9765 29.6004 23.2817 29.6004 23.6V33.2C29.6004 33.5182 29.7268 33.8234 29.9519 34.0485C30.1769 34.2735 30.4821 34.4 30.8004 34.4H38.0004C38.3187 34.4 38.6239 34.2735 38.8489 34.0485C39.074 33.8234 39.2004 33.5182 39.2004 33.2C39.2004 32.8817 39.074 32.5765 38.8489 32.3514C38.6239 32.1264 38.3187 32 38.0004 32H32.0004V23.6ZM22.4004 15.2C20.4908 15.2 18.6595 15.9585 17.3092 17.3088C15.959 18.659 15.2004 20.4904 15.2004 22.4V32.2496C15.9799 32.0286 16.7935 31.953 17.6004 32.0264V22.4C17.6004 21.1269 18.1061 19.906 19.0063 19.0058C19.9065 18.1057 21.1274 17.6 22.4004 17.6H41.6004C42.8734 17.6 44.0943 18.1057 44.9945 19.0058C45.8947 19.906 46.4004 21.1269 46.4004 22.4V41.6C46.4004 42.873 45.8947 44.0939 44.9945 44.9941C44.0943 45.8942 42.8734 46.4 41.6004 46.4H34.1796C34.3236 46.88 34.4004 47.384 34.4004 47.9C34.4006 48.201 34.3805 48.5016 34.3404 48.8H41.6004C43.51 48.8 45.3413 48.0414 46.6916 46.6911C48.0418 45.3409 48.8004 43.5095 48.8004 41.6V22.4C48.8004 20.4904 48.0418 18.659 46.6916 17.3088C45.3413 15.9585 43.51 15.2 41.6004 15.2H22.4004ZM17.0004 42.8C17.5519 42.8 18.0981 42.6913 18.6077 42.4802C19.1172 42.2692 19.5802 41.9598 19.9702 41.5698C20.3602 41.1798 20.6696 40.7168 20.8807 40.2072C21.0918 39.6977 21.2004 39.1515 21.2004 38.6C21.2004 38.0484 21.0918 37.5022 20.8807 36.9927C20.6696 36.4831 20.3602 36.0201 19.9702 35.6301C19.5802 35.2401 19.1172 34.9307 18.6077 34.7197C18.0981 34.5086 17.5519 34.4 17.0004 34.4C15.8865 34.4 14.8182 34.8424 14.0305 35.6301C13.2429 36.4178 12.8004 37.486 12.8004 38.6C12.8004 39.7139 13.2429 40.7821 14.0305 41.5698C14.8182 42.3575 15.8865 42.8 17.0004 42.8ZM17.6004 53.6C22.7436 53.6 24.8004 50.9648 24.8004 48.3488C24.8004 46.6112 23.418 45.2 21.714 45.2H13.4868C11.7828 45.2 10.4004 46.6112 10.4004 48.3512C10.4004 50.972 12.4572 53.6 17.6004 53.6ZM26.0004 52.4H25.9452C26.7684 51.2099 27.2066 49.7958 27.2004 48.3488C27.2004 47.1896 26.8452 46.1 26.2308 45.2H29.4324C30.8532 45.2 32.0028 46.4096 32.0028 47.9C32.0028 50.1416 30.2868 52.4 26.0004 52.4ZM26.6004 42.8C27.396 42.8 28.1591 42.4839 28.7217 41.9213C29.2843 41.3587 29.6004 40.5956 29.6004 39.8C29.6004 39.0043 29.2843 38.2412 28.7217 37.6786C28.1591 37.116 27.396 36.8 26.6004 36.8C25.8047 36.8 25.0417 37.116 24.4791 37.6786C23.9165 38.2412 23.6004 39.0043 23.6004 39.8C23.6004 40.5956 23.9165 41.3587 24.4791 41.9213C25.0417 42.4839 25.8047 42.8 26.6004 42.8Z" fill="#103654"/>
</svg>
