<svg width="20" height="20" viewBox="0 0 20 20" fill="none" xmlns="http://www.w3.org/2000/svg">
<path d="M2.50065 18.3334C2.04232 18.3334 1.6501 18.1703 1.32398 17.8442C0.997318 17.5175 0.833984 17.125 0.833984 16.6667V8.33337C0.833984 8.09726 0.913984 7.89921 1.07398 7.73921C1.23343 7.57976 1.43121 7.50004 1.66732 7.50004C1.90343 7.50004 2.10148 7.57976 2.26148 7.73921C2.42093 7.89921 2.50065 8.09726 2.50065 8.33337V16.6667H15.834C16.0701 16.6667 16.2679 16.7467 16.4273 16.9067C16.5873 17.0662 16.6673 17.2639 16.6673 17.5C16.6673 17.7362 16.5873 17.9339 16.4273 18.0934C16.2679 18.2534 16.0701 18.3334 15.834 18.3334H2.50065ZM5.83398 15C5.37565 15 4.98343 14.837 4.65732 14.5109C4.33065 14.1842 4.16732 13.7917 4.16732 13.3334V5.83337C4.16732 5.37504 4.33065 4.98282 4.65732 4.65671C4.98343 4.33004 5.37565 4.16671 5.83398 4.16671H8.33398V2.50004C8.33398 2.04171 8.49732 1.64921 8.82399 1.32254C9.1501 0.99643 9.54232 0.833374 10.0007 0.833374H13.334C13.7923 0.833374 14.1848 0.99643 14.5115 1.32254C14.8376 1.64921 15.0007 2.04171 15.0007 2.50004V4.16671H17.5007C17.959 4.16671 18.3515 4.33004 18.6782 4.65671C19.0043 4.98282 19.1673 5.37504 19.1673 5.83337V13.3334C19.1673 13.7917 19.0043 14.1842 18.6782 14.5109C18.3515 14.837 17.959 15 17.5007 15H5.83398ZM10.0007 4.16671H13.334V2.50004H10.0007V4.16671ZM5.83398 13.3334H17.5007V5.83337H5.83398V13.3334Z" fill="#0D0D0D"/>
</svg>
