<svg width="64" height="64" viewBox="0 0 64 64" fill="none" xmlns="http://www.w3.org/2000/svg">
<path d="M7.99935 58.6667C6.53268 58.6667 5.27757 58.1449 4.23402 57.1014C3.18868 56.056 2.66602 54.8 2.66602 53.3334V26.6667C2.66602 25.9111 2.92202 25.2774 3.43402 24.7654C3.94424 24.2551 4.57713 24 5.33268 24C6.08824 24 6.72202 24.2551 7.23402 24.7654C7.74424 25.2774 7.99935 25.9111 7.99935 26.6667V53.3334H50.666C51.4216 53.3334 52.0545 53.5894 52.5647 54.1014C53.0767 54.6116 53.3327 55.2445 53.3327 56C53.3327 56.7556 53.0767 57.3885 52.5647 57.8987C52.0545 58.4107 51.4216 58.6667 50.666 58.6667H7.99935ZM18.666 48C17.1993 48 15.9442 47.4782 14.9007 46.4347C13.8553 45.3894 13.3327 44.1334 13.3327 42.6667V18.6667C13.3327 17.2 13.8553 15.9449 14.9007 14.9014C15.9442 13.856 17.1993 13.3334 18.666 13.3334H26.666V8.00002C26.666 6.53335 27.1887 5.27735 28.234 4.23202C29.2776 3.18846 30.5327 2.66669 31.9993 2.66669H42.666C44.1327 2.66669 45.3887 3.18846 46.434 4.23202C47.4776 5.27735 47.9994 6.53335 47.9994 8.00002V13.3334H55.9994C57.466 13.3334 58.722 13.856 59.7673 14.9014C60.8109 15.9449 61.3327 17.2 61.3327 18.6667V42.6667C61.3327 44.1334 60.8109 45.3894 59.7673 46.4347C58.722 47.4782 57.466 48 55.9994 48H18.666ZM31.9993 13.3334H42.666V8.00002H31.9993V13.3334ZM18.666 42.6667H55.9994V18.6667H18.666V42.6667Z" fill="#4F94CC"/>
</svg>
