<svg width="20" height="20" viewBox="0 0 20 20" fill="none" xmlns="http://www.w3.org/2000/svg">
<g clip-path="url(#clip0_236_2209)">
<path d="M13.9897 6.84448L10.7064 10.0723C10.3522 9.90165 9.94909 9.86174 9.56832 9.95957C9.18756 10.0574 8.85364 10.2867 8.62556 10.6069C8.39748 10.9271 8.28994 11.3176 8.32194 11.7094C8.35393 12.1013 8.52341 12.4692 8.80041 12.7481C9.07741 13.0271 9.44411 13.1992 9.8357 13.2339C10.2273 13.2687 10.6186 13.1639 10.9404 12.9381C11.2622 12.7123 11.4938 12.38 11.5943 12C11.6949 11.6199 11.6578 11.2165 11.4897 10.8611L14.7786 7.63337L13.9897 6.84448Z" fill="#0D0D0D"/>
<path d="M9.99974 2.36109C8.25125 2.35909 6.5387 2.8575 5.06436 3.79746C3.59001 4.73743 2.41546 6.07968 1.67941 7.6657C0.943354 9.25171 0.676552 11.0152 0.910512 12.748C1.14447 14.4808 1.86942 16.1104 2.99974 17.4444L3.1664 17.6389H16.8331L16.9997 17.4444C18.1301 16.1104 18.855 14.4808 19.089 12.748C19.3229 11.0152 19.0561 9.25171 18.3201 7.6657C17.584 6.07968 16.4095 4.73743 14.9351 3.79746C13.4608 2.8575 11.7482 2.35909 9.99974 2.36109ZM16.2997 16.5278H3.69974C2.70289 15.2804 2.10126 13.7637 1.97196 12.1722H3.88863V11.0611H1.97196C2.065 9.29705 2.73888 7.61331 3.88863 6.2722L5.24974 7.63331L6.03307 6.84998L4.68307 5.48331C6.00711 4.31305 7.68113 3.61375 9.44418 3.49442V5.43887H10.5553V3.49998C12.5028 3.64121 14.3323 4.48644 15.7022 5.87782C17.0721 7.26921 17.8888 9.11164 17.9997 11.0611H16.0664V12.1722H18.0275C17.8982 13.7637 17.2966 15.2804 16.2997 16.5278Z" fill="#0D0D0D"/>
</g>
<defs>
<clipPath id="clip0_236_2209">
<rect width="20" height="20" fill="white"/>
</clipPath>
</defs>
</svg>
