<svg width="18" height="19" viewBox="0 0 18 19" fill="none" xmlns="http://www.w3.org/2000/svg">
<path d="M11.25 4.5C11.25 5.49456 10.8549 6.44839 10.1517 7.15165C9.44839 7.85491 8.49456 8.25 7.5 8.25C6.50544 8.25 5.55161 7.85491 4.84835 7.15165C4.14509 6.44839 3.75 5.49456 3.75 4.5C3.75 3.50544 4.14509 2.55161 4.84835 1.84835C5.55161 1.14509 6.50544 0.75 7.5 0.75C8.49456 0.75 9.44839 1.14509 10.1517 1.84835C10.8549 2.55161 11.25 3.50544 11.25 4.5ZM7.5 7C8.16304 7 8.79893 6.73661 9.26777 6.26777C9.73661 5.79893 10 5.16304 10 4.5C10 3.83696 9.73661 3.20107 9.26777 2.73223C8.79893 2.26339 8.16304 2 7.5 2C6.83696 2 6.20107 2.26339 5.73223 2.73223C5.26339 3.20107 5 3.83696 5 4.5C5 5.16304 5.26339 5.79893 5.73223 6.26777C6.20107 6.73661 6.83696 7 7.5 7ZM7.82 15.75C7.6766 15.3441 7.58054 14.923 7.53375 14.495H1.25C1.25125 14.1875 1.4425 13.2625 2.29 12.415C3.105 11.6 4.63875 10.75 7.5 10.75C7.825 10.75 8.13375 10.7612 8.425 10.7812C8.7075 10.355 9.045 9.96875 9.43 9.63375C8.84625 9.5475 8.205 9.5 7.5 9.5C1.25 9.5 0 13.25 0 14.5C0 15.75 1.25 15.75 1.25 15.75H7.82ZM12.3575 10.075C12.5825 9.30875 13.6675 9.30875 13.8937 10.075L13.9475 10.26C13.9811 10.3748 14.0399 10.4805 14.1198 10.5695C14.1996 10.6585 14.2984 10.7285 14.4088 10.7743C14.5193 10.8201 14.6386 10.8406 14.758 10.8342C14.8774 10.8279 14.9938 10.7948 15.0988 10.7375L15.2688 10.645C15.97 10.2625 16.7375 11.03 16.3563 11.7312L16.2625 11.9012C16.2054 12.0061 16.1726 12.1225 16.1663 12.2417C16.1601 12.361 16.1806 12.4801 16.2264 12.5904C16.2722 12.7007 16.3421 12.7993 16.4309 12.879C16.5198 12.9588 16.6254 13.0176 16.74 13.0512L16.9263 13.1075C17.6912 13.3325 17.6912 14.4175 16.9263 14.6437L16.7388 14.6975C16.6242 14.7314 16.5187 14.7904 16.43 14.8704C16.3413 14.9503 16.2716 15.0491 16.226 15.1596C16.1804 15.27 16.1602 15.3892 16.1667 15.5084C16.1733 15.6277 16.2064 15.744 16.2638 15.8488L16.3563 16.0188C16.7375 16.72 15.97 17.4875 15.2688 17.1063L15.0988 17.0125C14.9939 16.9554 14.8775 16.9226 14.7583 16.9163C14.639 16.9101 14.5199 16.9306 14.4096 16.9764C14.2993 17.0222 14.2007 17.0921 14.121 17.1809C14.0412 17.2698 13.9824 17.3754 13.9488 17.49L13.8925 17.6763C13.6675 18.4412 12.5825 18.4412 12.3563 17.6763L12.3025 17.4888C12.2686 17.3742 12.2096 17.2687 12.1296 17.18C12.0497 17.0913 11.9509 17.0216 11.8404 16.976C11.73 16.9304 11.6108 16.9102 11.4916 16.9167C11.3723 16.9233 11.256 16.9564 11.1512 17.0138L10.9812 17.1063C10.28 17.4875 9.5125 16.72 9.89375 16.0188L9.9875 15.8488C10.0446 15.7439 10.0774 15.6275 10.0837 15.5083C10.0899 15.389 10.0694 15.2699 10.0236 15.1596C9.97784 15.0493 9.90794 14.9507 9.81906 14.871C9.73018 14.7912 9.62458 14.7324 9.51 14.6988L9.325 14.6425C8.55875 14.4175 8.55875 13.3325 9.325 13.1063L9.51 13.0525C9.62476 13.0189 9.73053 12.9601 9.81954 12.8802C9.90854 12.8004 9.97853 12.7016 10.0243 12.5912C10.0701 12.4807 10.0906 12.3614 10.0842 12.242C10.0779 12.1226 10.0448 12.0062 9.9875 11.9012L9.895 11.7312C9.5125 11.03 10.28 10.2625 10.9812 10.6438L11.1512 10.7375C11.2561 10.7946 11.3725 10.8274 11.4917 10.8337C11.611 10.8399 11.7301 10.8194 11.8404 10.7736C11.9507 10.7278 12.0493 10.6579 12.129 10.5691C12.2088 10.4802 12.2676 10.3746 12.3012 10.26L12.3575 10.075ZM15 13.875C15 13.6288 14.9515 13.385 14.8573 13.1575C14.763 12.93 14.6249 12.7233 14.4508 12.5492C14.2767 12.3751 14.07 12.237 13.8425 12.1427C13.615 12.0485 13.3712 12 13.125 12C12.8788 12 12.635 12.0485 12.4075 12.1427C12.18 12.237 11.9733 12.3751 11.7992 12.5492C11.6251 12.7233 11.487 12.93 11.3927 13.1575C11.2985 13.385 11.25 13.6288 11.25 13.875C11.25 14.3723 11.4475 14.8492 11.7992 15.2008C12.1508 15.5525 12.6277 15.75 13.125 15.75C13.6223 15.75 14.0992 15.5525 14.4508 15.2008C14.8025 14.8492 15 14.3723 15 13.875Z" fill="black"/>
</svg>
