<svg width="20" height="21" viewBox="0 0 20 21" fill="none" xmlns="http://www.w3.org/2000/svg">
<path d="M0.264091 13.1693L1.80854 11.8567C1.73544 11.4113 1.69772 10.9566 1.69772 10.5019C1.69772 10.0472 1.73544 9.59246 1.80854 9.14712L0.264091 7.83453C0.1476 7.7354 0.0642242 7.60336 0.025053 7.45598C-0.0141182 7.3086 -0.00722694 7.15286 0.0448055 7.00947L0.0660248 6.94853C0.491211 5.76726 1.12789 4.6722 1.9453 3.71627L1.98774 3.66705C2.0869 3.55115 2.21906 3.46783 2.36681 3.42808C2.51455 3.38833 2.67095 3.39402 2.81538 3.44438L4.73238 4.12177C5.43976 3.54517 6.22966 3.09045 7.08324 2.77168L7.45343 0.779351C7.48136 0.629439 7.55452 0.491524 7.66318 0.383928C7.77184 0.276331 7.91086 0.204147 8.06178 0.176965L8.12544 0.165246C9.35392 -0.0550819 10.6461 -0.0550819 11.8746 0.165246L11.9382 0.176965C12.0891 0.204147 12.2282 0.276331 12.3368 0.383928C12.4455 0.491524 12.5186 0.629439 12.5466 0.779351L12.9191 2.78105C13.7659 3.09989 14.5544 3.55437 15.2535 4.12646L17.1846 3.44438C17.329 3.39362 17.4855 3.38773 17.6333 3.4275C17.7812 3.46728 17.9133 3.55083 18.0123 3.66705L18.0547 3.71627C18.8711 4.67288 19.5077 5.76775 19.934 6.94853L19.9552 7.00947C20.0613 7.30246 19.9741 7.63061 19.7359 7.83453L18.1726 9.16118C18.2457 9.60184 18.2811 10.0519 18.2811 10.4996C18.2811 10.9496 18.2457 11.3996 18.1726 11.8379L19.7359 13.1646C19.8524 13.2637 19.9358 13.3958 19.9749 13.5431C20.0141 13.6905 20.0072 13.8463 19.9552 13.9896L19.934 14.0506C19.5072 15.2319 18.8753 16.3218 18.0547 17.2828L18.0123 17.3321C17.9131 17.448 17.7809 17.5313 17.6332 17.571C17.4854 17.6108 17.3291 17.6051 17.1846 17.5547L15.2535 16.8727C14.5508 17.4469 13.7656 17.9016 12.9191 18.2181L12.5466 20.2198C12.5186 20.3697 12.4455 20.5076 12.3368 20.6152C12.2282 20.7228 12.0891 20.795 11.9382 20.8221L11.8746 20.8339C10.6348 21.0554 9.36521 21.0554 8.12544 20.8339L8.06178 20.8221C7.91086 20.795 7.77184 20.7228 7.66318 20.6152C7.55452 20.5076 7.48136 20.3697 7.45343 20.2198L7.08324 18.2274C6.23001 17.9095 5.43564 17.4533 4.73238 16.8773L2.81538 17.5547C2.67099 17.6055 2.51448 17.6114 2.36665 17.5716C2.21882 17.5318 2.08666 17.4483 1.98774 17.3321L1.9453 17.2828C1.12474 16.3195 0.492811 15.2319 0.0660248 14.0506L0.0448055 13.9896C-0.0613022 13.7013 0.0259418 13.3732 0.264091 13.1693ZM3.48267 9.4237C3.42372 9.77763 3.39307 10.1409 3.39307 10.5042C3.39307 10.8676 3.42372 11.2309 3.48267 11.5848L3.63829 12.5247L1.87692 14.0225C2.14394 14.634 2.48099 15.2128 2.8814 15.7476L5.06956 14.9764L5.80995 15.5812C6.3735 16.0406 7.00071 16.4015 7.67979 16.6547L8.57817 16.9899L9.00024 19.2634C9.66619 19.3385 10.3385 19.3385 11.0045 19.2634L11.4265 16.9852L12.3178 16.6453C12.9899 16.3922 13.6147 16.0312 14.1735 15.5741L14.9139 14.9671L17.1162 15.7452C17.5171 15.2085 17.8519 14.6295 18.1207 14.0201L16.3405 12.5083L16.4937 11.5707C16.5503 11.2215 16.581 10.8605 16.581 10.5042C16.581 10.1456 16.5527 9.78701 16.4937 9.43776L16.3405 8.5002L18.1207 6.98838C17.8543 6.37661 17.5171 5.80001 17.1162 5.26326L14.9139 6.04143L14.1735 5.43436C13.6147 4.9773 12.9899 4.61634 12.3178 4.36319L11.4242 4.02801L11.0021 1.74973C10.3395 1.67473 9.66281 1.67473 8.99788 1.74973L8.57581 4.02333L7.67743 4.35851C7.00071 4.61165 6.37114 4.97261 5.80759 5.43202L5.0672 6.03675L2.87904 5.2656C2.47819 5.80236 2.14337 6.3813 1.87456 6.99072L3.63594 8.48848L3.48267 9.4237ZM9.99764 6.14457C12.2896 6.14457 14.1476 7.99157 14.1476 10.2699C14.1476 12.5481 12.2896 14.3951 9.99764 14.3951C7.70573 14.3951 5.84768 12.5481 5.84768 10.2699C5.84768 7.99157 7.70573 6.14457 9.99764 6.14457ZM8.13016 12.1262C8.3751 12.3704 8.66618 12.564 8.98668 12.696C9.30717 12.8279 9.65075 12.8956 9.99764 12.895C10.7027 12.895 11.3652 12.6208 11.8651 12.1262C12.1108 11.8828 12.3056 11.5934 12.4383 11.2748C12.571 10.9562 12.6391 10.6147 12.6385 10.2699C12.6385 9.56902 12.3626 8.91038 11.8651 8.41347C11.3652 7.91656 10.7027 7.64467 9.99764 7.64467C9.29262 7.64467 8.63004 7.91656 8.13016 8.41347C7.88452 8.65695 7.68973 8.94631 7.557 9.2649C7.42427 9.58349 7.35622 9.92502 7.35676 10.2699C7.35676 10.9707 7.63263 11.6293 8.13016 12.1262Z" fill="black"/>
</svg>
