<svg width="24" height="24" viewBox="0 0 24 24" fill="none" xmlns="http://www.w3.org/2000/svg">
<g clip-path="url(#clip0_233_1954)">
<path d="M24.0005 11.7816C24.0005 14.9222 22.7512 17.8753 20.4848 20.0921C20.4519 20.1258 20.4167 20.1571 20.3794 20.1858C18.1294 22.3421 15.157 23.5299 12.0103 23.5313H12.0051C8.85186 23.5313 5.8753 22.3402 3.62202 20.1774L3.53436 20.0911C2.42504 19.01 1.54339 17.7178 0.941412 16.2906C0.339431 14.8634 0.0292969 13.3301 0.0292969 11.7811C0.0292969 10.2321 0.339431 8.69885 0.941412 7.27164C1.54339 5.84442 2.42504 4.55219 3.53436 3.47111C5.79561 1.24877 8.80592 0.0239258 12.0084 0.0239258C15.2109 0.0239258 18.2217 1.24877 20.4848 3.47205C22.748 5.69533 24.0005 8.64143 24.0005 11.7816Z" fill="#1083C4"/>
<path d="M23.1091 11.7816C23.1091 14.6878 21.9527 17.4207 19.8536 19.4742C19.8232 19.5054 19.7906 19.5344 19.7561 19.561C17.6725 21.5569 14.9219 22.6547 12.0086 22.658H12.0039C9.085 22.658 6.32968 21.5555 4.24375 19.5535L4.16265 19.4738C3.13574 18.473 2.31959 17.2768 1.76233 15.9556C1.20506 14.6344 0.917969 13.215 0.917969 11.7811C0.917969 10.3472 1.20506 8.92783 1.76233 7.60665C2.31959 6.28546 3.13574 5.08923 4.16265 4.08847C6.25703 2.03065 9.04375 0.897217 12.0081 0.897217C14.9725 0.897217 17.7597 2.03065 19.8541 4.08894C21.9484 6.14722 23.1091 8.8744 23.1091 11.7816Z" fill="#2196F3"/>
<path d="M17.7358 8.65215C17.7358 9.97935 17.2756 11.2655 16.4337 12.2914C15.5917 13.3174 14.4201 14.0196 13.1184 14.2786C11.8167 14.5375 10.4655 14.337 9.29499 13.7114C8.12451 13.0857 7.20718 12.0736 6.69931 10.8474C6.19143 9.62123 6.12444 8.25688 6.50974 6.98684C6.89504 5.7168 7.70879 4.61965 8.81234 3.88234C9.91589 3.14502 11.241 2.81316 12.5618 2.9433C13.8826 3.07345 15.1174 3.65754 16.0558 4.59606C16.5901 5.12748 17.0137 5.7596 17.3021 6.45583C17.5905 7.15206 17.7379 7.89857 17.7358 8.65215ZM20.3805 19.1742C18.1516 21.3795 15.1427 22.6165 12.0072 22.6167H12.0025C8.87005 22.63 5.8586 21.4079 3.62127 19.2154C3.55926 19.1548 3.52188 19.0734 3.51634 18.9868C3.5108 18.9003 3.53749 18.8147 3.59127 18.7467C4.96235 17.0244 6.82678 15.762 8.93502 15.1284C8.91786 15.1813 8.91354 15.2375 8.92242 15.2923C8.93131 15.3472 8.95314 15.3991 8.98612 15.4439L11.6514 19.0734C11.6835 19.1173 11.7254 19.1531 11.7737 19.178C11.822 19.2029 11.8755 19.2162 11.9299 19.2168H11.935C11.9885 19.2168 12.0413 19.2046 12.0894 19.1812C12.1375 19.1577 12.1796 19.1236 12.2125 19.0814L15.01 15.4898C15.0454 15.4445 15.069 15.3911 15.079 15.3345C15.089 15.2779 15.0849 15.2197 15.0672 15.165C15.0615 15.1474 15.0543 15.1303 15.0456 15.1139C17.1581 15.7338 19.0297 16.9865 20.4081 18.7031C20.4628 18.7711 20.4902 18.8569 20.4851 18.944C20.48 19.031 20.4427 19.1131 20.3805 19.1742Z" fill="white"/>
</g>
<defs>
<clipPath id="clip0_233_1954">
<rect width="24" height="24" fill="white"/>
</clipPath>
</defs>
</svg>
