<svg width="163" height="163" viewBox="0 0 163 163" fill="none" xmlns="http://www.w3.org/2000/svg">
<path d="M115.981 75.2308C115.981 82.0504 113.959 88.7169 110.17 94.3872C106.381 100.058 100.996 104.477 94.6952 107.087C88.3947 109.697 81.4618 110.379 74.7732 109.049C68.0845 107.719 61.9407 104.435 57.1184 99.6123C52.2962 94.7901 49.0122 88.6462 47.6818 81.9576C46.3513 75.269 47.0342 68.3361 49.644 62.0355C52.2537 55.735 56.6732 50.3498 62.3435 46.561C68.0139 42.7723 74.6804 40.75 81.5 40.75C90.6417 40.7604 99.406 44.3965 105.87 50.8606C112.334 57.3248 115.97 66.0891 115.981 75.2308ZM163 81.5C163 97.6192 158.22 113.376 149.265 126.779C140.309 140.182 127.581 150.628 112.689 156.796C97.7965 162.965 81.4096 164.579 65.6002 161.434C49.7907 158.289 35.2688 150.527 23.8708 139.129C12.4729 127.731 4.71073 113.209 1.56604 97.3998C-1.57866 81.5904 0.0353127 65.2035 6.20385 50.3113C12.3724 35.4191 22.8185 22.6906 36.2211 13.7352C49.6237 4.77989 65.3808 0 81.5 0C103.108 0.0228186 123.825 8.61673 139.104 23.896C154.383 39.1753 162.977 59.8918 163 81.5ZM150.462 81.5C150.452 72.2179 148.57 63.0331 144.929 54.495C141.287 45.9568 135.962 38.2407 129.27 31.808C122.578 25.3753 114.658 20.3582 105.983 17.0567C97.3079 13.7552 88.056 12.2372 78.7807 12.5933C41.8707 14.0196 12.4366 44.7623 12.5385 81.6959C12.5739 98.5094 18.775 114.726 29.967 127.273C34.5249 120.662 40.3146 114.992 47.0193 110.574C47.5909 110.196 48.2705 110.016 48.954 110.061C49.6376 110.107 50.2875 110.375 50.8043 110.824C59.324 118.193 70.212 122.249 81.4765 122.249C92.741 122.249 103.629 118.193 112.149 110.824C112.666 110.375 113.315 110.107 113.999 110.061C114.683 110.016 115.362 110.196 115.934 110.574C122.647 114.99 128.445 120.66 133.01 127.273C144.257 114.68 150.47 98.3845 150.462 81.5Z" fill="#898989"/>
</svg>
