<svg width="163" height="163" viewBox="0 0 163 163" fill="none" xmlns="http://www.w3.org/2000/svg">
<path fill-rule="evenodd" clip-rule="evenodd" d="M32.7372 129.609L32.1975 127.337C32.1975 118.114 42.1197 110.366 56.8488 106.062C56.8488 112.58 58.5743 127.767 70.3453 144.738L75.3372 115.039L69.5442 103.479C73.3651 103.049 77.3709 102.741 81.5 102.741C85.6291 102.741 89.6349 103.049 93.4558 103.479L87.6628 115.039L92.6547 144.738C104.426 127.767 106.151 112.58 106.151 106.062C120.942 110.366 130.802 118.114 130.802 127.337L130.022 129.851C142.368 117.462 150 100.372 150 81.5C150 43.6685 119.332 13 81.5 13C43.6685 13 13 43.6685 13 81.5C13 100.249 20.5328 117.239 32.7372 129.609ZM163 81.5C163 126.511 126.511 163 81.5 163C36.4888 163 0 126.511 0 81.5C0 36.4888 36.4888 0 81.5 0C126.511 0 163 36.4888 163 81.5ZM106.151 65.8484C106.151 52.2595 95.1198 41.2531 81.5 41.2531C67.8802 41.2531 56.8488 52.2595 56.8488 65.8484C56.8488 79.4373 67.8802 90.4438 81.5 90.4438C95.1198 90.4438 106.151 79.4373 106.151 65.8484Z" fill="#898989"/>
</svg>
