<svg width="27" height="27" viewBox="0 0 27 27" fill="none" xmlns="http://www.w3.org/2000/svg">
<g clip-path="url(#clip0_75_414)">
<path d="M10.9578 6.96942C12.0555 7.09301 13.0455 6.3034 13.1691 5.20577C13.2927 4.10813 12.503 3.11813 11.4054 2.99454C10.3078 2.87094 9.31778 3.66056 9.19418 4.75819C9.07059 5.85583 9.8602 6.84583 10.9578 6.96942Z" fill="black"/>
<path d="M17.9026 16.6111C17.883 16.3808 17.7842 16.1645 17.623 15.9988C17.4619 15.8332 17.2484 15.7285 17.0187 15.7025L12.9117 15.24L12.8211 12.2109L17.3544 12.7213L17.5782 10.7339L12.7616 10.1915L12.7274 9.03846C12.7201 8.79793 12.6263 8.5681 12.4633 8.39114C12.3002 8.21418 12.0788 8.10196 11.8397 8.07507L10.8459 7.96318C10.7036 7.94763 10.5596 7.96273 10.4236 8.00747C10.2876 8.05222 10.1627 8.12556 10.0574 8.22257C9.95211 8.31959 9.8688 8.43802 9.81308 8.56991C9.75736 8.70181 9.73052 8.8441 9.73438 8.98723L9.91862 15.1888C9.93507 15.6693 10.1233 16.1279 10.4491 16.4815C10.7749 16.835 11.2166 17.06 11.6942 17.1156L15.9801 17.5982L16.3443 21.8617C16.3855 22.3363 16.7552 22.717 17.2292 22.7704L20.2104 23.1061L20.4341 21.1186L18.2668 20.8746L17.9026 16.6111Z" fill="black"/>
<path d="M13.1592 18.7899C12.2597 20.174 10.6436 21.0225 8.89465 20.8256C7.70922 20.6907 6.62568 20.0912 5.88175 19.1585C5.13782 18.2258 4.79425 17.036 4.92643 15.8503C5.02836 14.9601 5.39355 14.1205 5.97529 13.439C6.55702 12.7575 7.32884 12.2651 8.192 12.0247L8.1314 9.98004C5.43122 10.5183 3.26304 12.7487 2.93899 15.6265C2.53797 19.188 5.10937 22.412 8.67087 22.813C9.77884 22.9362 10.8999 22.7722 11.9261 22.3369C12.9524 21.9015 13.8494 21.2094 14.5308 20.3271L14.4123 18.931L13.1592 18.7899Z" fill="black"/>
</g>
<defs>
<clipPath id="clip0_75_414">
<rect width="24" height="24" fill="white" transform="translate(2.68555) rotate(6.42448)"/>
</clipPath>
</defs>
</svg>
