<svg width="1279" height="461" viewBox="0 0 1279 461" fill="none" xmlns="http://www.w3.org/2000/svg">
<g clip-path="url(#clip0_446_5520)">
<path d="M124.454 363.825H1269.43" stroke="black"/>
<path d="M181.702 377.055V363.825" stroke="black"/>
<path d="M167.111 407.842V407.075L169.992 403.921C170.33 403.552 170.608 403.231 170.827 402.958C171.046 402.683 171.208 402.424 171.313 402.183C171.421 401.938 171.475 401.683 171.475 401.415C171.475 401.109 171.401 400.843 171.253 400.619C171.108 400.394 170.909 400.221 170.657 400.099C170.404 399.977 170.12 399.915 169.804 399.915C169.469 399.915 169.177 399.985 168.927 400.124C168.679 400.261 168.488 400.452 168.351 400.7C168.218 400.947 168.151 401.237 168.151 401.569H167.145C167.145 401.058 167.263 400.609 167.499 400.222C167.735 399.836 168.056 399.535 168.462 399.319C168.871 399.103 169.33 398.995 169.838 398.995C170.35 398.995 170.803 399.103 171.198 399.319C171.593 399.535 171.902 399.826 172.127 400.192C172.351 400.559 172.463 400.967 172.463 401.415C172.463 401.737 172.405 402.05 172.289 402.357C172.175 402.661 171.976 403.001 171.692 403.376C171.411 403.748 171.02 404.202 170.52 404.739L168.56 406.836V406.904H172.617V407.842H167.111ZM177.223 407.961C176.581 407.961 176.034 407.786 175.583 407.437C175.131 407.085 174.786 406.575 174.547 405.907C174.309 405.237 174.189 404.427 174.189 403.478C174.189 402.535 174.309 401.729 174.547 401.062C174.789 400.391 175.135 399.88 175.587 399.528C176.042 399.173 176.587 398.995 177.223 398.995C177.86 398.995 178.404 399.173 178.855 399.528C179.31 399.88 179.657 400.391 179.895 401.062C180.137 401.729 180.257 402.535 180.257 403.478C180.257 404.427 180.138 405.237 179.9 405.907C179.661 406.575 179.316 407.085 178.864 407.437C178.412 407.786 177.865 407.961 177.223 407.961ZM177.223 407.023C177.86 407.023 178.354 406.717 178.706 406.103C179.059 405.489 179.235 404.614 179.235 403.478C179.235 402.722 179.154 402.079 178.992 401.548C178.833 401.016 178.603 400.611 178.302 400.333C178.003 400.055 177.644 399.915 177.223 399.915C176.593 399.915 176.1 400.227 175.745 400.849C175.39 401.468 175.212 402.344 175.212 403.478C175.212 404.234 175.292 404.876 175.451 405.404C175.61 405.933 175.838 406.335 176.137 406.61C176.438 406.886 176.8 407.023 177.223 407.023ZM181.877 407.842V407.075L184.757 403.921C185.096 403.552 185.374 403.231 185.593 402.958C185.811 402.683 185.973 402.424 186.079 402.183C186.186 401.938 186.24 401.683 186.24 401.415C186.24 401.109 186.167 400.843 186.019 400.619C185.874 400.394 185.675 400.221 185.422 400.099C185.169 399.977 184.885 399.915 184.57 399.915C184.235 399.915 183.942 399.985 183.692 400.124C183.445 400.261 183.253 400.452 183.117 400.7C182.983 400.947 182.917 401.237 182.917 401.569H181.911C181.911 401.058 182.029 400.609 182.265 400.222C182.5 399.836 182.821 399.535 183.228 399.319C183.637 399.103 184.096 398.995 184.604 398.995C185.115 398.995 185.569 399.103 185.963 399.319C186.358 399.535 186.668 399.826 186.892 400.192C187.117 400.559 187.229 400.967 187.229 401.415C187.229 401.737 187.171 402.05 187.054 402.357C186.941 402.661 186.742 403.001 186.458 403.376C186.177 403.748 185.786 404.202 185.286 404.739L183.326 406.836V406.904H187.382V407.842H181.877ZM192.091 407.961C191.529 407.961 191.027 407.864 190.587 407.671C190.15 407.478 189.802 407.21 189.543 406.866C189.287 406.519 189.148 406.117 189.125 405.66H190.199C190.222 405.941 190.319 406.184 190.489 406.388C190.659 406.59 190.882 406.746 191.158 406.857C191.434 406.968 191.739 407.023 192.074 407.023C192.449 407.023 192.782 406.958 193.071 406.827C193.361 406.697 193.588 406.515 193.753 406.282C193.918 406.049 194 405.779 194 405.472C194 405.151 193.921 404.869 193.762 404.624C193.603 404.377 193.37 404.184 193.063 404.045C192.756 403.906 192.381 403.836 191.938 403.836H191.239V402.898H191.938C192.284 402.898 192.588 402.836 192.85 402.711C193.114 402.586 193.32 402.41 193.468 402.183C193.618 401.955 193.694 401.688 193.694 401.381C193.694 401.086 193.628 400.829 193.498 400.61C193.367 400.391 193.182 400.221 192.944 400.099C192.708 399.977 192.429 399.915 192.108 399.915C191.807 399.915 191.523 399.971 191.256 400.082C190.992 400.19 190.776 400.347 190.608 400.555C190.441 400.759 190.35 401.006 190.336 401.296H189.313C189.33 400.839 189.468 400.438 189.726 400.094C189.985 399.748 190.323 399.478 190.74 399.285C191.161 399.092 191.623 398.995 192.125 398.995C192.665 398.995 193.128 399.104 193.515 399.323C193.901 399.539 194.198 399.825 194.405 400.18C194.613 400.535 194.716 400.918 194.716 401.33C194.716 401.822 194.587 402.241 194.329 402.587C194.073 402.934 193.725 403.174 193.284 403.308V403.376C193.836 403.467 194.266 403.701 194.576 404.079C194.885 404.454 195.04 404.918 195.04 405.472C195.04 405.947 194.911 406.373 194.652 406.751C194.397 407.126 194.047 407.421 193.604 407.637C193.161 407.853 192.657 407.961 192.091 407.961Z" fill="black"/>
<path d="M296.199 377.055V363.825" stroke="black"/>
<path d="M281.711 407.842V407.075L284.591 403.921C284.929 403.552 285.208 403.231 285.426 402.958C285.645 402.683 285.807 402.424 285.912 402.183C286.02 401.938 286.074 401.683 286.074 401.415C286.074 401.109 286 400.843 285.853 400.619C285.708 400.394 285.509 400.221 285.256 400.099C285.003 399.977 284.719 399.915 284.404 399.915C284.068 399.915 283.776 399.985 283.526 400.124C283.279 400.261 283.087 400.452 282.951 400.7C282.817 400.947 282.75 401.237 282.75 401.569H281.745C281.745 401.058 281.863 400.609 282.098 400.222C282.334 399.836 282.655 399.535 283.061 399.319C283.47 399.103 283.929 398.995 284.438 398.995C284.949 398.995 285.402 399.103 285.797 399.319C286.192 399.535 286.502 399.826 286.726 400.192C286.951 400.559 287.063 400.967 287.063 401.415C287.063 401.737 287.005 402.05 286.888 402.357C286.774 402.661 286.576 403.001 286.292 403.376C286.01 403.748 285.62 404.202 285.12 404.739L283.159 406.836V406.904H287.216V407.842H281.711ZM291.823 407.961C291.181 407.961 290.634 407.786 290.182 407.437C289.73 407.085 289.385 406.575 289.147 405.907C288.908 405.237 288.789 404.427 288.789 403.478C288.789 402.535 288.908 401.729 289.147 401.062C289.388 400.391 289.735 399.88 290.186 399.528C290.641 399.173 291.186 398.995 291.823 398.995C292.459 398.995 293.003 399.173 293.455 399.528C293.909 399.88 294.256 400.391 294.495 401.062C294.736 401.729 294.857 402.535 294.857 403.478C294.857 404.427 294.738 405.237 294.499 405.907C294.26 406.575 293.915 407.085 293.463 407.437C293.012 407.786 292.465 407.961 291.823 407.961ZM291.823 407.023C292.459 407.023 292.953 406.717 293.306 406.103C293.658 405.489 293.834 404.614 293.834 403.478C293.834 402.722 293.753 402.079 293.591 401.548C293.432 401.016 293.202 400.611 292.901 400.333C292.603 400.055 292.243 399.915 291.823 399.915C291.192 399.915 290.699 400.227 290.344 400.849C289.989 401.468 289.811 402.344 289.811 403.478C289.811 404.234 289.891 404.876 290.05 405.404C290.209 405.933 290.438 406.335 290.736 406.61C291.037 406.886 291.399 407.023 291.823 407.023ZM296.476 407.842V407.075L299.357 403.921C299.695 403.552 299.973 403.231 300.192 402.958C300.411 402.683 300.573 402.424 300.678 402.183C300.786 401.938 300.84 401.683 300.84 401.415C300.84 401.109 300.766 400.843 300.618 400.619C300.473 400.394 300.274 400.221 300.022 400.099C299.769 399.977 299.485 399.915 299.169 399.915C298.834 399.915 298.542 399.985 298.292 400.124C298.044 400.261 297.853 400.452 297.716 400.7C297.583 400.947 297.516 401.237 297.516 401.569H296.51C296.51 401.058 296.628 400.609 296.864 400.222C297.1 399.836 297.421 399.535 297.827 399.319C298.236 399.103 298.695 398.995 299.203 398.995C299.715 398.995 300.168 399.103 300.563 399.319C300.958 399.535 301.267 399.826 301.492 400.192C301.716 400.559 301.828 400.967 301.828 401.415C301.828 401.737 301.77 402.05 301.654 402.357C301.54 402.661 301.341 403.001 301.057 403.376C300.776 403.748 300.385 404.202 299.885 404.739L297.925 406.836V406.904H301.982V407.842H296.476ZM303.742 407.842V407.075L306.622 403.921C306.961 403.552 307.239 403.231 307.458 402.958C307.676 402.683 307.838 402.424 307.943 402.183C308.051 401.938 308.105 401.683 308.105 401.415C308.105 401.109 308.032 400.843 307.884 400.619C307.739 400.394 307.54 400.221 307.287 400.099C307.034 399.977 306.75 399.915 306.435 399.915C306.1 399.915 305.807 399.985 305.557 400.124C305.31 400.261 305.118 400.452 304.982 400.7C304.848 400.947 304.782 401.237 304.782 401.569H303.776C303.776 401.058 303.894 400.609 304.13 400.222C304.365 399.836 304.686 399.535 305.093 399.319C305.502 399.103 305.961 398.995 306.469 398.995C306.98 398.995 307.434 399.103 307.828 399.319C308.223 399.535 308.533 399.826 308.757 400.192C308.982 400.559 309.094 400.967 309.094 401.415C309.094 401.737 309.036 402.05 308.919 402.357C308.806 402.661 308.607 403.001 308.323 403.376C308.042 403.748 307.651 404.202 307.151 404.739L305.191 406.836V406.904H309.247V407.842H303.742Z" fill="black"/>
<path d="M410.697 377.055V363.825" stroke="black"/>
<path d="M397.137 407.842V407.075L400.018 403.921C400.356 403.552 400.634 403.231 400.853 402.958C401.072 402.683 401.234 402.424 401.339 402.183C401.447 401.938 401.501 401.683 401.501 401.415C401.501 401.109 401.427 400.843 401.279 400.619C401.134 400.394 400.935 400.221 400.683 400.099C400.43 399.977 400.146 399.915 399.83 399.915C399.495 399.915 399.202 399.985 398.952 400.124C398.705 400.261 398.513 400.452 398.377 400.7C398.244 400.947 398.177 401.237 398.177 401.569H397.171C397.171 401.058 397.289 400.609 397.525 400.222C397.761 399.836 398.082 399.535 398.488 399.319C398.897 399.103 399.356 398.995 399.864 398.995C400.376 398.995 400.829 399.103 401.224 399.319C401.619 399.535 401.928 399.826 402.153 400.192C402.377 400.559 402.489 400.967 402.489 401.415C402.489 401.737 402.431 402.05 402.315 402.357C402.201 402.661 402.002 403.001 401.718 403.376C401.437 403.748 401.046 404.202 400.546 404.739L398.586 406.836V406.904H402.643V407.842H397.137ZM407.249 407.961C406.607 407.961 406.06 407.786 405.609 407.437C405.157 407.085 404.812 406.575 404.573 405.907C404.334 405.237 404.215 404.427 404.215 403.478C404.215 402.535 404.334 401.729 404.573 401.062C404.815 400.391 405.161 399.88 405.613 399.528C406.067 399.173 406.613 398.995 407.249 398.995C407.886 398.995 408.43 399.173 408.881 399.528C409.336 399.88 409.683 400.391 409.921 401.062C410.163 401.729 410.283 402.535 410.283 403.478C410.283 404.427 410.164 405.237 409.925 405.907C409.687 406.575 409.342 407.085 408.89 407.437C408.438 407.786 407.891 407.961 407.249 407.961ZM407.249 407.023C407.886 407.023 408.38 406.717 408.732 406.103C409.084 405.489 409.261 404.614 409.261 403.478C409.261 402.722 409.18 402.079 409.018 401.548C408.859 401.016 408.629 400.611 408.327 400.333C408.029 400.055 407.67 399.915 407.249 399.915C406.619 399.915 406.126 400.227 405.771 400.849C405.415 401.468 405.238 402.344 405.238 403.478C405.238 404.234 405.317 404.876 405.477 405.404C405.636 405.933 405.864 406.335 406.163 406.61C406.464 406.886 406.826 407.023 407.249 407.023ZM411.903 407.842V407.075L414.783 403.921C415.121 403.552 415.4 403.231 415.619 402.958C415.837 402.683 415.999 402.424 416.104 402.183C416.212 401.938 416.266 401.683 416.266 401.415C416.266 401.109 416.192 400.843 416.045 400.619C415.9 400.394 415.701 400.221 415.448 400.099C415.195 399.977 414.911 399.915 414.596 399.915C414.261 399.915 413.968 399.985 413.718 400.124C413.471 400.261 413.279 400.452 413.143 400.7C413.009 400.947 412.942 401.237 412.942 401.569H411.937C411.937 401.058 412.055 400.609 412.29 400.222C412.526 399.836 412.847 399.535 413.254 399.319C413.663 399.103 414.121 398.995 414.63 398.995C415.141 398.995 415.594 399.103 415.989 399.319C416.384 399.535 416.694 399.826 416.918 400.192C417.143 400.559 417.255 400.967 417.255 401.415C417.255 401.737 417.197 402.05 417.08 402.357C416.967 402.661 416.768 403.001 416.484 403.376C416.202 403.748 415.812 404.202 415.312 404.739L413.352 406.836V406.904H417.408V407.842H411.903ZM422.236 399.114V407.842H421.18V400.222H421.129L418.998 401.637V400.563L421.18 399.114H422.236Z" fill="black"/>
<path d="M525.194 377.055V363.825" stroke="black"/>
<path d="M510.673 407.842V407.075L513.554 403.921C513.892 403.552 514.171 403.231 514.389 402.958C514.608 402.683 514.77 402.424 514.875 402.183C514.983 401.938 515.037 401.683 515.037 401.415C515.037 401.109 514.963 400.843 514.815 400.619C514.671 400.394 514.472 400.221 514.219 400.099C513.966 399.977 513.682 399.915 513.367 399.915C513.031 399.915 512.739 399.985 512.489 400.124C512.242 400.261 512.05 400.452 511.913 400.7C511.78 400.947 511.713 401.237 511.713 401.569H510.708C510.708 401.058 510.825 400.609 511.061 400.222C511.297 399.836 511.618 399.535 512.024 399.319C512.433 399.103 512.892 398.995 513.401 398.995C513.912 398.995 514.365 399.103 514.76 399.319C515.155 399.535 515.465 399.826 515.689 400.192C515.913 400.559 516.026 400.967 516.026 401.415C516.026 401.737 515.967 402.05 515.851 402.357C515.737 402.661 515.538 403.001 515.254 403.376C514.973 403.748 514.583 404.202 514.083 404.739L512.122 406.836V406.904H516.179V407.842H510.673ZM520.786 407.961C520.144 407.961 519.597 407.786 519.145 407.437C518.693 407.085 518.348 406.575 518.11 405.907C517.871 405.237 517.752 404.427 517.752 403.478C517.752 402.535 517.871 401.729 518.11 401.062C518.351 400.391 518.698 399.88 519.149 399.528C519.604 399.173 520.149 398.995 520.786 398.995C521.422 398.995 521.966 399.173 522.418 399.528C522.872 399.88 523.219 400.391 523.458 401.062C523.699 401.729 523.82 402.535 523.82 403.478C523.82 404.427 523.7 405.237 523.462 405.907C523.223 406.575 522.878 407.085 522.426 407.437C521.975 407.786 521.428 407.961 520.786 407.961ZM520.786 407.023C521.422 407.023 521.916 406.717 522.269 406.103C522.621 405.489 522.797 404.614 522.797 403.478C522.797 402.722 522.716 402.079 522.554 401.548C522.395 401.016 522.165 400.611 521.864 400.333C521.565 400.055 521.206 399.915 520.786 399.915C520.155 399.915 519.662 400.227 519.307 400.849C518.952 401.468 518.774 402.344 518.774 403.478C518.774 404.234 518.854 404.876 519.013 405.404C519.172 405.933 519.401 406.335 519.699 406.61C520 406.886 520.362 407.023 520.786 407.023ZM525.439 407.842V407.075L528.32 403.921C528.658 403.552 528.936 403.231 529.155 402.958C529.374 402.683 529.536 402.424 529.641 402.183C529.749 401.938 529.803 401.683 529.803 401.415C529.803 401.109 529.729 400.843 529.581 400.619C529.436 400.394 529.237 400.221 528.985 400.099C528.732 399.977 528.448 399.915 528.132 399.915C527.797 399.915 527.504 399.985 527.254 400.124C527.007 400.261 526.815 400.452 526.679 400.7C526.546 400.947 526.479 401.237 526.479 401.569H525.473C525.473 401.058 525.591 400.609 525.827 400.222C526.063 399.836 526.384 399.535 526.79 399.319C527.199 399.103 527.658 398.995 528.166 398.995C528.678 398.995 529.131 399.103 529.526 399.319C529.921 399.535 530.23 399.826 530.455 400.192C530.679 400.559 530.791 400.967 530.791 401.415C530.791 401.737 530.733 402.05 530.617 402.357C530.503 402.661 530.304 403.001 530.02 403.376C529.739 403.748 529.348 404.202 528.848 404.739L526.888 406.836V406.904H530.945V407.842H525.439ZM535.551 407.961C534.909 407.961 534.362 407.786 533.911 407.437C533.459 407.085 533.114 406.575 532.875 405.907C532.636 405.237 532.517 404.427 532.517 403.478C532.517 402.535 532.636 401.729 532.875 401.062C533.117 400.391 533.463 399.88 533.915 399.528C534.369 399.173 534.915 398.995 535.551 398.995C536.188 398.995 536.732 399.173 537.183 399.528C537.638 399.88 537.985 400.391 538.223 401.062C538.465 401.729 538.585 402.535 538.585 403.478C538.585 404.427 538.466 405.237 538.227 405.907C537.989 406.575 537.644 407.085 537.192 407.437C536.74 407.786 536.193 407.961 535.551 407.961ZM535.551 407.023C536.188 407.023 536.682 406.717 537.034 406.103C537.386 405.489 537.563 404.614 537.563 403.478C537.563 402.722 537.482 402.079 537.32 401.548C537.161 401.016 536.931 400.611 536.629 400.333C536.331 400.055 535.972 399.915 535.551 399.915C534.921 399.915 534.428 400.227 534.073 400.849C533.717 401.468 533.54 402.344 533.54 403.478C533.54 404.234 533.619 404.876 533.779 405.404C533.938 405.933 534.166 406.335 534.465 406.61C534.766 406.886 535.128 407.023 535.551 407.023Z" fill="black"/>
<path d="M639.692 377.055V363.825" stroke="black"/>
<path d="M626.02 407.842V407.075L628.901 403.921C629.239 403.552 629.518 403.231 629.736 402.958C629.955 402.683 630.117 402.424 630.222 402.183C630.33 401.938 630.384 401.683 630.384 401.415C630.384 401.109 630.31 400.843 630.162 400.619C630.018 400.394 629.819 400.221 629.566 400.099C629.313 399.977 629.029 399.915 628.714 399.915C628.378 399.915 628.086 399.985 627.836 400.124C627.589 400.261 627.397 400.452 627.26 400.7C627.127 400.947 627.06 401.237 627.06 401.569H626.054C626.054 401.058 626.172 400.609 626.408 400.222C626.644 399.836 626.965 399.535 627.371 399.319C627.78 399.103 628.239 398.995 628.748 398.995C629.259 398.995 629.712 399.103 630.107 399.319C630.502 399.535 630.812 399.826 631.036 400.192C631.26 400.559 631.373 400.967 631.373 401.415C631.373 401.737 631.314 402.05 631.198 402.357C631.084 402.661 630.885 403.001 630.601 403.376C630.32 403.748 629.929 404.202 629.429 404.739L627.469 406.836V406.904H631.526V407.842H626.02ZM636.133 407.961C635.491 407.961 634.944 407.786 634.492 407.437C634.04 407.085 633.695 406.575 633.456 405.907C633.218 405.237 633.098 404.427 633.098 403.478C633.098 402.535 633.218 401.729 633.456 401.062C633.698 400.391 634.045 399.88 634.496 399.528C634.951 399.173 635.496 398.995 636.133 398.995C636.769 398.995 637.313 399.173 637.765 399.528C638.219 399.88 638.566 400.391 638.804 401.062C639.046 401.729 639.167 402.535 639.167 403.478C639.167 404.427 639.047 405.237 638.809 405.907C638.57 406.575 638.225 407.085 637.773 407.437C637.321 407.786 636.775 407.961 636.133 407.961ZM636.133 407.023C636.769 407.023 637.263 406.717 637.616 406.103C637.968 405.489 638.144 404.614 638.144 403.478C638.144 402.722 638.063 402.079 637.901 401.548C637.742 401.016 637.512 400.611 637.211 400.333C636.912 400.055 636.553 399.915 636.133 399.915C635.502 399.915 635.009 400.227 634.654 400.849C634.299 401.468 634.121 402.344 634.121 403.478C634.121 404.234 634.201 404.876 634.36 405.404C634.519 405.933 634.748 406.335 635.046 406.61C635.347 406.886 635.709 407.023 636.133 407.023ZM643.854 399.114V407.842H642.797V400.222H642.746L640.616 401.637V400.563L642.797 399.114H643.854ZM649.143 398.995C649.5 398.998 649.858 399.066 650.216 399.2C650.574 399.333 650.901 399.555 651.196 399.864C651.492 400.171 651.729 400.59 651.908 401.121C652.087 401.653 652.177 402.319 652.177 403.12C652.177 403.896 652.103 404.585 651.955 405.187C651.81 405.786 651.6 406.292 651.324 406.704C651.052 407.116 650.719 407.428 650.327 407.641C649.938 407.854 649.498 407.961 649.006 407.961C648.518 407.961 648.081 407.864 647.698 407.671C647.317 407.475 647.005 407.204 646.76 406.857C646.519 406.508 646.364 406.103 646.296 405.643H647.336C647.429 406.043 647.616 406.374 647.894 406.636C648.175 406.894 648.546 407.023 649.006 407.023C649.679 407.023 650.211 406.729 650.6 406.141C650.992 405.553 651.188 404.722 651.188 403.648H651.12C650.961 403.887 650.772 404.093 650.553 404.266C650.334 404.44 650.091 404.573 649.824 404.667C649.557 404.761 649.273 404.808 648.972 404.808C648.472 404.808 648.013 404.684 647.596 404.437C647.181 404.187 646.848 403.844 646.598 403.41C646.351 402.972 646.228 402.472 646.228 401.91C646.228 401.376 646.347 400.887 646.586 400.444C646.827 399.998 647.165 399.643 647.6 399.379C648.037 399.114 648.552 398.987 649.143 398.995ZM649.143 399.933C648.785 399.933 648.462 400.022 648.175 400.201C647.891 400.377 647.665 400.616 647.498 400.917C647.333 401.215 647.25 401.546 647.25 401.91C647.25 402.273 647.33 402.604 647.489 402.903C647.651 403.198 647.871 403.434 648.15 403.61C648.431 403.783 648.75 403.87 649.108 403.87C649.378 403.87 649.63 403.817 649.863 403.712C650.096 403.604 650.299 403.458 650.472 403.273C650.648 403.086 650.786 402.874 650.885 402.638C650.985 402.4 651.035 402.151 651.035 401.893C651.035 401.552 650.952 401.232 650.787 400.934C650.625 400.636 650.401 400.394 650.114 400.21C649.83 400.025 649.506 399.933 649.143 399.933Z" fill="black"/>
<path d="M754.189 377.055V363.825" stroke="black"/>
<path d="M740.565 407.842V407.075L743.445 403.921C743.783 403.552 744.062 403.231 744.28 402.958C744.499 402.683 744.661 402.424 744.766 402.183C744.874 401.938 744.928 401.683 744.928 401.415C744.928 401.109 744.854 400.843 744.707 400.619C744.562 400.394 744.363 400.221 744.11 400.099C743.857 399.977 743.573 399.915 743.258 399.915C742.922 399.915 742.63 399.985 742.38 400.124C742.133 400.261 741.941 400.452 741.805 400.7C741.671 400.947 741.604 401.237 741.604 401.569H740.599C740.599 401.058 740.717 400.609 740.952 400.222C741.188 399.836 741.509 399.535 741.915 399.319C742.324 399.103 742.783 398.995 743.292 398.995C743.803 398.995 744.256 399.103 744.651 399.319C745.046 399.535 745.356 399.826 745.58 400.192C745.805 400.559 745.917 400.967 745.917 401.415C745.917 401.737 745.859 402.05 745.742 402.357C745.628 402.661 745.43 403.001 745.146 403.376C744.864 403.748 744.474 404.202 743.974 404.739L742.013 406.836V406.904H746.07V407.842H740.565ZM750.677 407.961C750.035 407.961 749.488 407.786 749.036 407.437C748.584 407.085 748.239 406.575 748.001 405.907C747.762 405.237 747.643 404.427 747.643 403.478C747.643 402.535 747.762 401.729 748.001 401.062C748.242 400.391 748.589 399.88 749.04 399.528C749.495 399.173 750.04 398.995 750.677 398.995C751.313 398.995 751.857 399.173 752.309 399.528C752.763 399.88 753.11 400.391 753.349 401.062C753.59 401.729 753.711 402.535 753.711 403.478C753.711 404.427 753.592 405.237 753.353 405.907C753.114 406.575 752.769 407.085 752.317 407.437C751.866 407.786 751.319 407.961 750.677 407.961ZM750.677 407.023C751.313 407.023 751.807 406.717 752.16 406.103C752.512 405.489 752.688 404.614 752.688 403.478C752.688 402.722 752.607 402.079 752.445 401.548C752.286 401.016 752.056 400.611 751.755 400.333C751.457 400.055 751.097 399.915 750.677 399.915C750.046 399.915 749.553 400.227 749.198 400.849C748.843 401.468 748.665 402.344 748.665 403.478C748.665 404.234 748.745 404.876 748.904 405.404C749.063 405.933 749.292 406.335 749.59 406.61C749.891 406.886 750.253 407.023 750.677 407.023ZM758.398 399.114V407.842H757.342V400.222H757.29L755.16 401.637V400.563L757.342 399.114H758.398ZM763.704 407.961C763.119 407.961 762.601 407.857 762.153 407.65C761.707 407.44 761.359 407.151 761.109 406.785C760.859 406.415 760.735 405.995 760.738 405.523C760.735 405.154 760.807 404.813 760.955 404.501C761.103 404.185 761.305 403.923 761.56 403.712C761.819 403.499 762.107 403.364 762.425 403.308V403.256C762.008 403.148 761.675 402.914 761.428 402.553C761.181 402.19 761.059 401.776 761.062 401.313C761.059 400.87 761.171 400.474 761.398 400.124C761.626 399.775 761.938 399.499 762.336 399.298C762.736 399.096 763.192 398.995 763.704 398.995C764.209 398.995 764.661 399.096 765.059 399.298C765.457 399.499 765.769 399.775 765.996 400.124C766.226 400.474 766.343 400.87 766.346 401.313C766.343 401.776 766.217 402.19 765.967 402.553C765.719 402.914 765.391 403.148 764.982 403.256V403.308C765.297 403.364 765.582 403.499 765.834 403.712C766.087 403.923 766.289 404.185 766.44 404.501C766.59 404.813 766.667 405.154 766.67 405.523C766.667 405.995 766.539 406.415 766.286 406.785C766.036 407.151 765.688 407.44 765.242 407.65C764.799 407.857 764.286 407.961 763.704 407.961ZM763.704 407.023C764.099 407.023 764.44 406.96 764.726 406.832C765.013 406.704 765.235 406.523 765.391 406.29C765.547 406.058 765.627 405.785 765.63 405.472C765.627 405.143 765.542 404.852 765.374 404.599C765.207 404.346 764.978 404.147 764.688 404.002C764.401 403.857 764.073 403.785 763.704 403.785C763.332 403.785 762.999 403.857 762.707 404.002C762.417 404.147 762.188 404.346 762.021 404.599C761.856 404.852 761.775 405.143 761.778 405.472C761.775 405.785 761.85 406.058 762.003 406.29C762.16 406.523 762.383 406.704 762.672 406.832C762.962 406.96 763.306 407.023 763.704 407.023ZM763.704 402.881C764.016 402.881 764.293 402.819 764.535 402.694C764.779 402.569 764.971 402.394 765.11 402.17C765.249 401.945 765.32 401.683 765.323 401.381C765.32 401.086 765.251 400.829 765.114 400.61C764.978 400.388 764.789 400.218 764.547 400.099C764.306 399.977 764.025 399.915 763.704 399.915C763.377 399.915 763.092 399.977 762.847 400.099C762.603 400.218 762.414 400.388 762.28 400.61C762.147 400.829 762.082 401.086 762.084 401.381C762.082 401.683 762.148 401.945 762.285 402.17C762.424 402.394 762.616 402.569 762.86 402.694C763.104 402.819 763.386 402.881 763.704 402.881Z" fill="black"/>
<path d="M868.686 377.055V363.825" stroke="black"/>
<path d="M855.331 407.842V407.075L858.212 403.921C858.55 403.552 858.828 403.231 859.047 402.958C859.266 402.683 859.428 402.424 859.533 402.183C859.641 401.938 859.695 401.683 859.695 401.415C859.695 401.109 859.621 400.843 859.473 400.619C859.328 400.394 859.129 400.221 858.877 400.099C858.624 399.977 858.34 399.915 858.024 399.915C857.689 399.915 857.396 399.985 857.146 400.124C856.899 400.261 856.708 400.452 856.571 400.7C856.438 400.947 856.371 401.237 856.371 401.569H855.365C855.365 401.058 855.483 400.609 855.719 400.222C855.955 399.836 856.276 399.535 856.682 399.319C857.091 399.103 857.55 398.995 858.058 398.995C858.57 398.995 859.023 399.103 859.418 399.319C859.813 399.535 860.122 399.826 860.347 400.192C860.571 400.559 860.683 400.967 860.683 401.415C860.683 401.737 860.625 402.05 860.509 402.357C860.395 402.661 860.196 403.001 859.912 403.376C859.631 403.748 859.24 404.202 858.74 404.739L856.78 406.836V406.904H860.837V407.842H855.331ZM865.443 407.961C864.801 407.961 864.254 407.786 863.803 407.437C863.351 407.085 863.006 406.575 862.767 405.907C862.529 405.237 862.409 404.427 862.409 403.478C862.409 402.535 862.529 401.729 862.767 401.062C863.009 400.391 863.355 399.88 863.807 399.528C864.262 399.173 864.807 398.995 865.443 398.995C866.08 398.995 866.624 399.173 867.075 399.528C867.53 399.88 867.877 400.391 868.115 401.062C868.357 401.729 868.477 402.535 868.477 403.478C868.477 404.427 868.358 405.237 868.119 405.907C867.881 406.575 867.536 407.085 867.084 407.437C866.632 407.786 866.085 407.961 865.443 407.961ZM865.443 407.023C866.08 407.023 866.574 406.717 866.926 406.103C867.279 405.489 867.455 404.614 867.455 403.478C867.455 402.722 867.374 402.079 867.212 401.548C867.053 401.016 866.823 400.611 866.521 400.333C866.223 400.055 865.864 399.915 865.443 399.915C864.813 399.915 864.32 400.227 863.965 400.849C863.61 401.468 863.432 402.344 863.432 403.478C863.432 404.234 863.512 404.876 863.671 405.404C863.83 405.933 864.058 406.335 864.357 406.61C864.658 406.886 865.02 407.023 865.443 407.023ZM873.165 399.114V407.842H872.108V400.222H872.057L869.926 401.637V400.563L872.108 399.114H873.165ZM875.948 407.842L879.851 400.12V400.052H875.351V399.114H880.942V400.103L877.056 407.842H875.948Z" fill="black"/>
<path d="M983.184 377.055V363.825" stroke="black"/>
<path d="M969.47 407.842V407.075L972.35 403.921C972.689 403.552 972.967 403.231 973.186 402.958C973.404 402.683 973.566 402.424 973.672 402.183C973.779 401.938 973.833 401.683 973.833 401.415C973.833 401.109 973.76 400.843 973.612 400.619C973.467 400.394 973.268 400.221 973.015 400.099C972.762 399.977 972.478 399.915 972.163 399.915C971.828 399.915 971.535 399.985 971.285 400.124C971.038 400.261 970.846 400.452 970.71 400.7C970.576 400.947 970.51 401.237 970.51 401.569H969.504C969.504 401.058 969.622 400.609 969.858 400.222C970.093 399.836 970.414 399.535 970.821 399.319C971.23 399.103 971.689 398.995 972.197 398.995C972.708 398.995 973.162 399.103 973.556 399.319C973.951 399.535 974.261 399.826 974.485 400.192C974.71 400.559 974.822 400.967 974.822 401.415C974.822 401.737 974.764 402.05 974.647 402.357C974.534 402.661 974.335 403.001 974.051 403.376C973.77 403.748 973.379 404.202 972.879 404.739L970.919 406.836V406.904H974.975V407.842H969.47ZM979.582 407.961C978.94 407.961 978.393 407.786 977.941 407.437C977.49 407.085 977.145 406.575 976.906 405.907C976.667 405.237 976.548 404.427 976.548 403.478C976.548 402.535 976.667 401.729 976.906 401.062C977.147 400.391 977.494 399.88 977.946 399.528C978.4 399.173 978.946 398.995 979.582 398.995C980.218 398.995 980.762 399.173 981.214 399.528C981.669 399.88 982.015 400.391 982.254 401.062C982.495 401.729 982.616 402.535 982.616 403.478C982.616 404.427 982.497 405.237 982.258 405.907C982.02 406.575 981.674 407.085 981.223 407.437C980.771 407.786 980.224 407.961 979.582 407.961ZM979.582 407.023C980.218 407.023 980.713 406.717 981.065 406.103C981.417 405.489 981.593 404.614 981.593 403.478C981.593 402.722 981.512 402.079 981.35 401.548C981.191 401.016 980.961 400.611 980.66 400.333C980.362 400.055 980.002 399.915 979.582 399.915C978.951 399.915 978.458 400.227 978.103 400.849C977.748 401.468 977.571 402.344 977.571 403.478C977.571 404.234 977.65 404.876 977.809 405.404C977.968 405.933 978.197 406.335 978.495 406.61C978.797 406.886 979.159 407.023 979.582 407.023ZM987.304 399.114V407.842H986.247V400.222H986.196L984.065 401.637V400.563L986.247 399.114H987.304ZM992.711 407.961C992.353 407.955 991.995 407.887 991.637 407.756C991.279 407.626 990.953 407.406 990.657 407.096C990.362 406.783 990.125 406.362 989.946 405.83C989.767 405.296 989.677 404.626 989.677 403.819C989.677 403.046 989.75 402.362 989.895 401.765C990.039 401.165 990.25 400.661 990.525 400.252C990.801 399.84 991.133 399.528 991.522 399.315C991.914 399.102 992.356 398.995 992.848 398.995C993.336 398.995 993.771 399.093 994.152 399.289C994.535 399.482 994.848 399.752 995.089 400.099C995.331 400.445 995.487 400.844 995.558 401.296H994.518C994.422 400.904 994.234 400.579 993.956 400.32C993.677 400.062 993.308 399.933 992.848 399.933C992.172 399.933 991.639 400.227 991.25 400.815C990.863 401.403 990.669 402.228 990.666 403.29H990.734C990.893 403.049 991.082 402.843 991.301 402.673C991.522 402.499 991.767 402.366 992.034 402.272C992.301 402.178 992.583 402.131 992.882 402.131C993.382 402.131 993.839 402.256 994.254 402.506C994.669 402.754 995.001 403.096 995.251 403.533C995.501 403.968 995.626 404.467 995.626 405.029C995.626 405.569 995.505 406.063 995.264 406.512C995.022 406.958 994.683 407.313 994.245 407.577C993.811 407.839 993.299 407.967 992.711 407.961ZM992.711 407.023C993.069 407.023 993.39 406.934 993.674 406.755C993.961 406.576 994.187 406.336 994.352 406.035C994.52 405.734 994.603 405.398 994.603 405.029C994.603 404.668 994.522 404.34 994.36 404.045C994.201 403.746 993.981 403.509 993.7 403.333C993.422 403.157 993.103 403.069 992.745 403.069C992.475 403.069 992.224 403.123 991.991 403.231C991.758 403.336 991.554 403.481 991.377 403.665C991.204 403.85 991.068 404.062 990.968 404.3C990.869 404.536 990.819 404.785 990.819 405.046C990.819 405.393 990.9 405.717 991.062 406.018C991.227 406.319 991.451 406.562 991.735 406.746C992.022 406.931 992.348 407.023 992.711 407.023Z" fill="black"/>
<path d="M1097.68 377.055V363.825" stroke="black"/>
<path d="M1084.1 407.842V407.075L1086.98 403.921C1087.32 403.552 1087.6 403.231 1087.82 402.958C1088.04 402.683 1088.2 402.424 1088.3 402.183C1088.41 401.938 1088.47 401.683 1088.47 401.415C1088.47 401.109 1088.39 400.843 1088.25 400.619C1088.1 400.394 1087.9 400.221 1087.65 400.099C1087.4 399.977 1087.11 399.915 1086.8 399.915C1086.46 399.915 1086.17 399.985 1085.92 400.124C1085.67 400.261 1085.48 400.452 1085.34 400.7C1085.21 400.947 1085.14 401.237 1085.14 401.569H1084.14C1084.14 401.058 1084.26 400.609 1084.49 400.222C1084.73 399.836 1085.05 399.535 1085.45 399.319C1085.86 399.103 1086.32 398.995 1086.83 398.995C1087.34 398.995 1087.79 399.103 1088.19 399.319C1088.58 399.535 1088.89 399.826 1089.12 400.192C1089.34 400.559 1089.46 400.967 1089.46 401.415C1089.46 401.737 1089.4 402.05 1089.28 402.357C1089.17 402.661 1088.97 403.001 1088.68 403.376C1088.4 403.748 1088.01 404.202 1087.51 404.739L1085.55 406.836V406.904H1089.61V407.842H1084.1ZM1094.22 407.961C1093.57 407.961 1093.03 407.786 1092.57 407.437C1092.12 407.085 1091.78 406.575 1091.54 405.907C1091.3 405.237 1091.18 404.427 1091.18 403.478C1091.18 402.535 1091.3 401.729 1091.54 401.062C1091.78 400.391 1092.13 399.88 1092.58 399.528C1093.03 399.173 1093.58 398.995 1094.22 398.995C1094.85 398.995 1095.4 399.173 1095.85 399.528C1096.3 399.88 1096.65 400.391 1096.89 401.062C1097.13 401.729 1097.25 402.535 1097.25 403.478C1097.25 404.427 1097.13 405.237 1096.89 405.907C1096.65 406.575 1096.31 407.085 1095.86 407.437C1095.4 407.786 1094.86 407.961 1094.22 407.961ZM1094.22 407.023C1094.85 407.023 1095.35 406.717 1095.7 406.103C1096.05 405.489 1096.23 404.614 1096.23 403.478C1096.23 402.722 1096.15 402.079 1095.98 401.548C1095.82 401.016 1095.59 400.611 1095.29 400.333C1095 400.055 1094.64 399.915 1094.22 399.915C1093.58 399.915 1093.09 400.227 1092.74 400.849C1092.38 401.468 1092.2 402.344 1092.2 403.478C1092.2 404.234 1092.28 404.876 1092.44 405.404C1092.6 405.933 1092.83 406.335 1093.13 406.61C1093.43 406.886 1093.79 407.023 1094.22 407.023ZM1101.94 399.114V407.842H1100.88V400.222H1100.83L1098.7 401.637V400.563L1100.88 399.114H1101.94ZM1107.17 407.961C1106.67 407.961 1106.22 407.862 1105.82 407.663C1105.42 407.464 1105.1 407.191 1104.86 406.844C1104.62 406.498 1104.49 406.103 1104.46 405.66H1105.49C1105.53 406.055 1105.71 406.381 1106.02 406.64C1106.34 406.896 1106.73 407.023 1107.17 407.023C1107.53 407.023 1107.85 406.94 1108.13 406.772C1108.41 406.604 1108.63 406.374 1108.79 406.082C1108.95 405.786 1109.03 405.452 1109.03 405.08C1109.03 404.7 1108.95 404.36 1108.78 404.062C1108.62 403.761 1108.39 403.523 1108.1 403.35C1107.81 403.177 1107.48 403.089 1107.11 403.086C1106.84 403.083 1106.56 403.124 1106.28 403.21C1106 403.292 1105.77 403.398 1105.59 403.529L1104.6 403.41L1105.13 399.114H1109.66V400.052H1106.02L1105.71 402.626H1105.76C1105.94 402.484 1106.16 402.366 1106.43 402.272C1106.7 402.178 1106.98 402.131 1107.28 402.131C1107.81 402.131 1108.29 402.259 1108.7 402.515C1109.12 402.768 1109.45 403.114 1109.69 403.555C1109.93 403.995 1110.05 404.498 1110.05 405.063C1110.05 405.62 1109.93 406.117 1109.68 406.555C1109.43 406.989 1109.09 407.333 1108.66 407.586C1108.22 407.836 1107.73 407.961 1107.17 407.961Z" fill="black"/>
<path d="M1212.18 377.055V363.825" stroke="black"/>
<path d="M1198.9 407.842V407.075L1201.78 403.921C1202.12 403.552 1202.4 403.231 1202.62 402.958C1202.84 402.683 1203 402.424 1203.1 402.183C1203.21 401.938 1203.27 401.683 1203.27 401.415C1203.27 401.109 1203.19 400.843 1203.04 400.619C1202.9 400.394 1202.7 400.221 1202.45 400.099C1202.19 399.977 1201.91 399.915 1201.59 399.915C1201.26 399.915 1200.97 399.985 1200.72 400.124C1200.47 400.261 1200.28 400.452 1200.14 400.7C1200.01 400.947 1199.94 401.237 1199.94 401.569H1198.94C1198.94 401.058 1199.05 400.609 1199.29 400.222C1199.53 399.836 1199.85 399.535 1200.25 399.319C1200.66 399.103 1201.12 398.995 1201.63 398.995C1202.14 398.995 1202.59 399.103 1202.99 399.319C1203.38 399.535 1203.69 399.826 1203.92 400.192C1204.14 400.559 1204.25 400.967 1204.25 401.415C1204.25 401.737 1204.2 402.05 1204.08 402.357C1203.97 402.661 1203.77 403.001 1203.48 403.376C1203.2 403.748 1202.81 404.202 1202.31 404.739L1200.35 406.836V406.904H1204.41V407.842H1198.9ZM1209.01 407.961C1208.37 407.961 1207.82 407.786 1207.37 407.437C1206.92 407.085 1206.58 406.575 1206.34 405.907C1206.1 405.237 1205.98 404.427 1205.98 403.478C1205.98 402.535 1206.1 401.729 1206.34 401.062C1206.58 400.391 1206.93 399.88 1207.38 399.528C1207.83 399.173 1208.38 398.995 1209.01 398.995C1209.65 398.995 1210.19 399.173 1210.65 399.528C1211.1 399.88 1211.45 400.391 1211.69 401.062C1211.93 401.729 1212.05 402.535 1212.05 403.478C1212.05 404.427 1211.93 405.237 1211.69 405.907C1211.45 406.575 1211.11 407.085 1210.65 407.437C1210.2 407.786 1209.66 407.961 1209.01 407.961ZM1209.01 407.023C1209.65 407.023 1210.14 406.717 1210.5 406.103C1210.85 405.489 1211.03 404.614 1211.03 403.478C1211.03 402.722 1210.94 402.079 1210.78 401.548C1210.62 401.016 1210.39 400.611 1210.09 400.333C1209.79 400.055 1209.43 399.915 1209.01 399.915C1208.38 399.915 1207.89 400.227 1207.53 400.849C1207.18 401.468 1207 402.344 1207 403.478C1207 404.234 1207.08 404.876 1207.24 405.404C1207.4 405.933 1207.63 406.335 1207.93 406.61C1208.23 406.886 1208.59 407.023 1209.01 407.023ZM1216.74 399.114V407.842H1215.68V400.222H1215.63L1213.5 401.637V400.563L1215.68 399.114H1216.74ZM1219.04 406.052V405.183L1222.88 399.114H1223.51V400.461H1223.08L1220.18 405.046V405.114H1225.35V406.052H1219.04ZM1223.15 407.842V405.788V405.383V399.114H1224.15V407.842H1223.15Z" fill="black"/>
<path d="M124.454 11.025V363.825" stroke="black"/>
<path d="M112.965 363.825H124.453" stroke="black"/>
<path d="M99.6421 358.878C99 358.878 98.4532 358.703 98.0014 358.353C97.5497 358.001 97.2046 357.491 96.9659 356.824C96.7273 356.153 96.608 355.344 96.608 354.395C96.608 353.451 96.7273 352.646 96.9659 351.978C97.2074 351.308 97.554 350.797 98.0057 350.444C98.4603 350.089 99.0057 349.912 99.6421 349.912C100.278 349.912 100.822 350.089 101.274 350.444C101.729 350.797 102.075 351.308 102.314 351.978C102.555 352.646 102.676 353.451 102.676 354.395C102.676 355.344 102.557 356.153 102.318 356.824C102.08 357.491 101.734 358.001 101.283 358.353C100.831 358.703 100.284 358.878 99.6421 358.878ZM99.6421 357.94C100.278 357.94 100.773 357.633 101.125 357.02C101.477 356.406 101.653 355.531 101.653 354.395C101.653 353.639 101.572 352.996 101.411 352.464C101.251 351.933 101.021 351.528 100.72 351.25C100.422 350.971 100.063 350.832 99.6421 350.832C99.0114 350.832 98.5185 351.143 98.1634 351.765C97.8083 352.385 97.6307 353.261 97.6307 354.395C97.6307 355.15 97.7103 355.792 97.8693 356.321C98.0284 356.849 98.2571 357.251 98.5554 357.527C98.8566 357.802 99.2188 357.94 99.6421 357.94Z" fill="black"/>
<path d="M112.966 275.625H124.454" stroke="black"/>
<path d="M82.9792 270.558V269.791L85.8598 266.638C86.1979 266.269 86.4763 265.948 86.6951 265.675C86.9138 265.399 87.0758 265.141 87.1809 264.899C87.2888 264.655 87.3428 264.399 87.3428 264.132C87.3428 263.825 87.2689 263.56 87.1212 263.335C86.9763 263.111 86.7775 262.938 86.5246 262.815C86.2718 262.693 85.9877 262.632 85.6723 262.632C85.3371 262.632 85.0445 262.702 84.7945 262.841C84.5473 262.977 84.3556 263.169 84.2192 263.416C84.0857 263.663 84.0189 263.953 84.0189 264.286H83.0133C83.0133 263.774 83.1312 263.325 83.3669 262.939C83.6027 262.553 83.9238 262.252 84.33 262.036C84.7391 261.82 85.1979 261.712 85.7064 261.712C86.2178 261.712 86.6709 261.82 87.0658 262.036C87.4607 262.252 87.7704 262.543 87.9948 262.909C88.2192 263.276 88.3314 263.683 88.3314 264.132C88.3314 264.453 88.2732 264.767 88.1567 265.074C88.0431 265.378 87.8442 265.717 87.5601 266.092C87.2789 266.465 86.8883 266.919 86.3883 267.456L84.428 269.553V269.621H88.4848V270.558H82.9792ZM92.9721 270.678C92.4721 270.678 92.0218 270.578 91.6212 270.379C91.2206 270.181 90.8996 269.908 90.6581 269.561C90.4167 269.215 90.2846 268.82 90.2618 268.377H91.2846C91.3243 268.771 91.5033 269.098 91.8215 269.357C92.1425 269.612 92.526 269.74 92.9721 269.74C93.33 269.74 93.6482 269.656 93.9266 269.489C94.2079 269.321 94.428 269.091 94.5871 268.798C94.7491 268.503 94.83 268.169 94.83 267.797C94.83 267.416 94.7462 267.077 94.5786 266.779C94.4138 266.477 94.1866 266.24 93.8968 266.067C93.607 265.894 93.276 265.806 92.9039 265.803C92.6368 265.8 92.3627 265.841 92.0814 265.926C91.8002 266.009 91.5687 266.115 91.3868 266.246L90.3982 266.127L90.9266 261.831H95.4607V262.769H91.813L91.5062 265.342H91.5573C91.7363 265.2 91.9607 265.082 92.2306 264.989C92.5005 264.895 92.7817 264.848 93.0743 264.848C93.6084 264.848 94.0843 264.976 94.5019 265.232C94.9223 265.484 95.2519 265.831 95.4905 266.271C95.732 266.712 95.8527 267.215 95.8527 267.78C95.8527 268.337 95.7277 268.834 95.4777 269.271C95.2306 269.706 94.8897 270.05 94.455 270.303C94.0204 270.553 93.526 270.678 92.9721 270.678ZM97.699 270.558V261.831H98.7558V269.621H102.813V270.558H97.699Z" fill="black"/>
<path d="M112.966 187.425H124.454" stroke="black"/>
<path d="M85.4721 182.478C84.9721 182.478 84.5218 182.378 84.1212 182.179C83.7206 181.98 83.3996 181.708 83.1581 181.361C82.9167 181.015 82.7846 180.62 82.7618 180.177H83.7846C83.8243 180.571 84.0033 180.898 84.3215 181.157C84.6425 181.412 85.026 181.54 85.4721 181.54C85.83 181.54 86.1482 181.456 86.4266 181.289C86.7079 181.121 86.928 180.891 87.0871 180.598C87.2491 180.303 87.33 179.969 87.33 179.597C87.33 179.216 87.2462 178.877 87.0786 178.579C86.9138 178.277 86.6866 178.04 86.3968 177.867C86.107 177.694 85.776 177.605 85.4039 177.603C85.1368 177.6 84.8627 177.641 84.5814 177.726C84.3002 177.809 84.0687 177.915 83.8868 178.046L82.8982 177.927L83.4266 173.631H87.9607V174.569H84.313L84.0062 177.142H84.0573C84.2363 177 84.4607 176.882 84.7306 176.789C85.0005 176.695 85.2817 176.648 85.5743 176.648C86.1084 176.648 86.5843 176.776 87.0019 177.032C87.4223 177.284 87.7519 177.631 87.9905 178.071C88.232 178.512 88.3527 179.015 88.3527 179.58C88.3527 180.137 88.2277 180.634 87.9777 181.071C87.7306 181.506 87.3897 181.85 86.955 182.103C86.5204 182.353 86.026 182.478 85.4721 182.478ZM92.8922 182.478C92.2501 182.478 91.7032 182.303 91.2515 181.954C90.7998 181.601 90.4547 181.091 90.216 180.424C89.9774 179.753 89.8581 178.944 89.8581 177.995C89.8581 177.052 89.9774 176.246 90.216 175.579C90.4575 174.908 90.8041 174.397 91.2558 174.044C91.7103 173.689 92.2558 173.512 92.8922 173.512C93.5285 173.512 94.0726 173.689 94.5243 174.044C94.9788 174.397 95.3254 174.908 95.564 175.579C95.8055 176.246 95.9263 177.052 95.9263 177.995C95.9263 178.944 95.8069 179.753 95.5683 180.424C95.3297 181.091 94.9845 181.601 94.5328 181.954C94.0811 182.303 93.5342 182.478 92.8922 182.478ZM92.8922 181.54C93.5285 181.54 94.0228 181.233 94.3751 180.62C94.7274 180.006 94.9035 179.131 94.9035 177.995C94.9035 177.239 94.8226 176.596 94.6606 176.064C94.5015 175.533 94.2714 175.128 93.9703 174.85C93.672 174.571 93.3126 174.432 92.8922 174.432C92.2615 174.432 91.7686 174.743 91.4135 175.365C91.0584 175.985 90.8808 176.861 90.8808 177.995C90.8808 178.75 90.9603 179.392 91.1194 179.921C91.2785 180.449 91.5072 180.851 91.8055 181.127C92.1067 181.402 92.4689 181.54 92.8922 181.54ZM97.699 182.358V173.631H98.7558V181.421H102.813V182.358H97.699Z" fill="black"/>
<path d="M112.965 99.225H124.453" stroke="black"/>
<path d="M83.7791 94.1583L87.6825 86.4367V86.3686H83.1825V85.4311H88.7734V86.4197L84.8871 94.1583H83.7791ZM92.9719 94.2776C92.4719 94.2776 92.0217 94.1782 91.6211 93.9793C91.2205 93.7805 90.8995 93.5078 90.658 93.1612C90.4165 92.8146 90.2844 92.4197 90.2617 91.9765H91.2844C91.3242 92.3714 91.5032 92.6981 91.8214 92.9566C92.1424 93.2123 92.5259 93.3401 92.9719 93.3401C93.3299 93.3401 93.6481 93.2563 93.9265 93.0887C94.2077 92.9211 94.4279 92.691 94.587 92.3984C94.7489 92.1029 94.8299 91.7691 94.8299 91.397C94.8299 91.0163 94.7461 90.6768 94.5785 90.3785C94.4137 90.0774 94.1864 89.8401 93.8967 89.6668C93.6069 89.4936 93.2759 89.4055 92.9038 89.4026C92.6367 89.3998 92.3626 89.441 92.0813 89.5262C91.8001 89.6086 91.5685 89.7151 91.3867 89.8458L90.3981 89.7265L90.9265 85.4311H95.4606V86.3686H91.8129L91.506 88.9424H91.5572C91.7361 88.8004 91.9606 88.6825 92.2305 88.5887C92.5003 88.495 92.7816 88.4481 93.0742 88.4481C93.6083 88.4481 94.0842 88.5759 94.5018 88.8316C94.9222 89.0845 95.2518 89.4311 95.4904 89.8714C95.7319 90.3117 95.8526 90.8146 95.8526 91.3799C95.8526 91.9367 95.7276 92.4339 95.4776 92.8714C95.2305 93.3061 94.8896 93.6498 94.4549 93.9026C94.0202 94.1526 93.5259 94.2776 92.9719 94.2776ZM97.6989 94.1583V85.4311H98.7557V93.2208H102.812V94.1583H97.6989Z" fill="black"/>
<path d="M112.966 11.025H124.454" stroke="black"/>
<path d="M82.6606 6.48171V15.209H81.6038V7.58967H81.5527L79.422 9.00444V7.93057L81.6038 6.48171H82.6606ZM95.7217 9.20898H94.6649C94.6024 8.90501 94.493 8.63796 94.3367 8.40785C94.1833 8.17773 93.9958 7.98455 93.7742 7.8283C93.5555 7.66921 93.3126 7.54989 93.0456 7.47035C92.7785 7.3908 92.5001 7.35103 92.2103 7.35103C91.6819 7.35103 91.2032 7.48455 90.7742 7.7516C90.3481 8.01864 90.0086 8.41211 89.7558 8.932C89.5058 9.45188 89.3808 10.0897 89.3808 10.8453C89.3808 11.601 89.5058 12.2388 89.7558 12.7587C90.0086 13.2786 90.3481 13.6721 90.7742 13.9391C91.2032 14.2061 91.6819 14.3397 92.2103 14.3397C92.5001 14.3397 92.7785 14.2999 93.0456 14.2203C93.3126 14.1408 93.5555 14.0229 93.7742 13.8667C93.9958 13.7076 94.1833 13.513 94.3367 13.2828C94.493 13.0499 94.6024 12.7828 94.6649 12.4817H95.7217C95.6421 12.9277 95.4973 13.3269 95.287 13.6792C95.0768 14.0314 94.8154 14.3311 94.5029 14.5783C94.1904 14.8226 93.8396 15.0087 93.4504 15.1365C93.064 15.2644 92.6507 15.3283 92.2103 15.3283C91.466 15.3283 90.8041 15.1465 90.2245 14.7828C89.645 14.4192 89.189 13.9022 88.8566 13.2317C88.5242 12.5613 88.3581 11.7658 88.3581 10.8453C88.3581 9.92489 88.5242 9.12944 88.8566 8.45898C89.189 7.78853 89.645 7.27148 90.2245 6.90785C90.8041 6.54421 91.466 6.36239 92.2103 6.36239C92.6507 6.36239 93.064 6.42631 93.4504 6.55415C93.8396 6.682 94.1904 6.8695 94.5029 7.11665C94.8154 7.36097 95.0768 7.65927 95.287 8.01154C95.4973 8.36097 95.6421 8.76012 95.7217 9.20898ZM97.2931 15.209V8.66353H98.2647V9.65217H98.3328C98.4522 9.3283 98.6681 9.06552 98.9806 8.86381C99.2931 8.66211 99.6453 8.56126 100.037 8.56126C100.111 8.56126 100.204 8.56268 100.314 8.56552C100.425 8.56836 100.509 8.57262 100.566 8.5783V9.60103C100.532 9.59251 100.454 9.57972 100.331 9.56268C100.212 9.54279 100.086 9.53285 99.9522 9.53285C99.634 9.53285 99.3499 9.59961 99.0999 9.73313C98.8527 9.86381 98.6567 10.0456 98.5118 10.2786C98.3698 10.5087 98.2988 10.7715 98.2988 11.0669V15.209H97.2931ZM101.741 15.2772C101.531 15.2772 101.35 15.2019 101.2 15.0513C101.049 14.9007 100.974 14.7203 100.974 14.5101C100.974 14.2999 101.049 14.1195 101.2 13.9689C101.35 13.8184 101.531 13.7431 101.741 13.7431C101.951 13.7431 102.131 13.8184 102.282 13.9689C102.433 14.1195 102.508 14.2999 102.508 14.5101C102.508 14.6493 102.472 14.7772 102.401 14.8936C102.333 15.0101 102.241 15.1039 102.124 15.1749C102.011 15.2431 101.883 15.2772 101.741 15.2772Z" fill="black"/>
<path d="M124.454 363.825H1269.43" stroke="#CCCCCC"/>
<path d="M124.454 275.625H1269.43" stroke="#CCCCCC"/>
<path d="M124.454 187.425H1269.43" stroke="#CCCCCC"/>
<path d="M124.454 99.225H1269.43" stroke="#CCCCCC"/>
<path d="M124.454 11.025H1269.43" stroke="#CCCCCC"/>
<path d="M181.702 11.025V363.825" stroke="#CCCCCC"/>
<path d="M296.199 11.025V363.825" stroke="#CCCCCC"/>
<path d="M410.697 11.025V363.825" stroke="#CCCCCC"/>
<path d="M525.194 11.025V363.825" stroke="#CCCCCC"/>
<path d="M639.691 11.025V363.825" stroke="#CCCCCC"/>
<path d="M754.189 11.025V363.825" stroke="#CCCCCC"/>
<path d="M868.686 11.025V363.825" stroke="#CCCCCC"/>
<path d="M983.184 11.025V363.825" stroke="#CCCCCC"/>
<path d="M1097.68 11.025V363.825" stroke="#CCCCCC"/>
<path d="M1212.18 11.025V363.825" stroke="#CCCCCC"/>
<path d="M124.454 11.025V363.825" stroke="#CCCCCC"/>
<path d="M1269.43 11.025V363.825" stroke="#CCCCCC"/>
<path d="M135.903 325H176.111V363.825H135.903V325Z" fill="#F9EEF6"/>
<path d="M250.401 239H290.609V363.825H250.401V239Z" fill="#F9EEF6"/>
<path d="M364.898 193.775H405.106V363.825H364.898V193.775Z" fill="#F9EEF6"/>
<path d="M479 292H520V364H479V292Z" fill="#F9EEF6"/>
<path d="M593.893 321.136H634.101V363.825H593.893V321.136Z" fill="#F9EEF6"/>
<path d="M708.39 249H748.598V363.825H708.39V249Z" fill="#F9EEF6"/>
<path d="M822.887 340.54H863.095V363.825H822.887V340.54Z" fill="#F9EEF6"/>
<path d="M937.384 171.196H977.592V363.825H937.384V171.196Z" fill="#F9EEF6"/>
<path d="M1051.88 117.218H1092.09V363.825H1051.88V117.218Z" fill="#F9EEF6"/>
<path d="M1166.38 188.483H1206.59V363.825H1166.38V188.483Z" fill="#F9EEF6"/>
<path d="M183.77 361.355H223.978V363.825H183.77V361.355Z" fill="#D5ECF5"/>
<path d="M298.267 325.37H338.475V363.825H298.267V325.37Z" fill="#D5ECF5"/>
<path d="M412.765 341H452.973V363.825H412.765V341Z" fill="#D5ECF5"/>
<path d="M527.262 325.017H567.47V363.825H527.262V325.017Z" fill="#D5ECF5"/>
<path d="M641.759 329.251H681.967V363.825H641.759V329.251Z" fill="#D5ECF5"/>
<path d="M756.256 79.4682H796.464V363.825H756.256V79.4682Z" fill="#D5ECF5"/>
<path d="M870.754 351.124H910.962V363.825H870.754V351.124Z" fill="#D5ECF5"/>
<path d="M985.251 16.6698H1025.46V363.825H985.251V16.6698Z" fill="#D5ECF5"/>
<path d="M1099.75 99.225H1139.96V363.825H1099.75V99.225Z" fill="#D5ECF5"/>
<path d="M1214.25 200.831H1254.45V363.825H1214.25V200.831Z" fill="#D5ECF5"/>
<path d="M52.718 238.226C51.494 238.226 50.396 237.95 49.424 237.398C48.44 236.846 47.672 236.096 47.12 235.148C46.568 234.188 46.292 233.126 46.292 231.962C46.292 230.594 46.622 229.4 47.282 228.38C47.942 227.36 48.878 226.616 50.09 226.148L50.09 228.11C49.334 228.458 48.752 228.962 48.344 229.622C47.936 230.27 47.732 231.05 47.732 231.962C47.732 232.838 47.936 233.624 48.344 234.32C48.752 235.016 49.334 235.562 50.09 235.958C50.834 236.354 51.71 236.552 52.718 236.552C53.714 236.552 54.59 236.354 55.346 235.958C56.09 235.562 56.666 235.016 57.074 234.32C57.482 233.624 57.686 232.838 57.686 231.962C57.686 231.05 57.488 230.27 57.092 229.622C56.684 228.962 56.102 228.458 55.346 228.11L55.346 226.148C56.546 226.616 57.476 227.36 58.136 228.38C58.784 229.4 59.108 230.594 59.108 231.962C59.108 233.126 58.838 234.188 58.298 235.148C57.746 236.096 56.984 236.846 56.012 237.398C55.04 237.95 53.942 238.226 52.718 238.226ZM54.032 224.322C53.024 224.322 52.142 224.118 51.386 223.71C50.618 223.302 50.024 222.744 49.604 222.036C49.184 221.316 48.974 220.518 48.974 219.642C48.974 218.778 49.16 218.028 49.532 217.392C49.904 216.756 50.372 216.282 50.936 215.97L49.136 215.97L49.136 214.314L59 214.314L59 215.97L57.164 215.97C57.74 216.294 58.22 216.78 58.604 217.428C58.976 218.064 59.162 218.808 59.162 219.66C59.162 220.536 58.946 221.328 58.514 222.036C58.082 222.744 57.476 223.302 56.696 223.71C55.916 224.118 55.028 224.322 54.032 224.322ZM54.05 215.97C53.306 215.97 52.658 216.12 52.106 216.42C51.554 216.72 51.134 217.128 50.846 217.644C50.546 218.148 50.396 218.706 50.396 219.318C50.396 219.93 50.54 220.488 50.828 220.992C51.116 221.496 51.536 221.898 52.088 222.198C52.64 222.498 53.288 222.648 54.032 222.648C54.788 222.648 55.448 222.498 56.012 222.198C56.564 221.898 56.99 221.496 57.29 220.992C57.578 220.488 57.722 219.93 57.722 219.318C57.722 218.706 57.578 218.148 57.29 217.644C56.99 217.128 56.564 216.72 56.012 216.42C55.448 216.12 54.794 215.97 54.05 215.97ZM59.162 208.054C59.162 208.81 59.036 209.488 58.784 210.088C58.52 210.688 58.16 211.162 57.704 211.51C57.236 211.858 56.702 212.05 56.102 212.086L56.102 210.394C56.594 210.346 56.996 210.118 57.308 209.71C57.62 209.29 57.776 208.744 57.776 208.072C57.776 207.448 57.638 206.956 57.362 206.596C57.086 206.236 56.738 206.056 56.318 206.056C55.886 206.056 55.568 206.248 55.364 206.632C55.148 207.016 54.938 207.61 54.734 208.414C54.542 209.146 54.35 209.746 54.158 210.214C53.954 210.67 53.66 211.066 53.276 211.402C52.88 211.726 52.364 211.888 51.728 211.888C51.224 211.888 50.762 211.738 50.342 211.438C49.922 211.138 49.592 210.712 49.352 210.16C49.1 209.608 48.974 208.978 48.974 208.27C48.974 207.178 49.25 206.296 49.802 205.624C50.354 204.952 51.11 204.592 52.07 204.544L52.07 206.182C51.554 206.218 51.14 206.428 50.828 206.812C50.516 207.184 50.36 207.688 50.36 208.324C50.36 208.912 50.486 209.38 50.738 209.728C50.99 210.076 51.32 210.25 51.728 210.25C52.052 210.25 52.322 210.148 52.538 209.944C52.742 209.728 52.91 209.464 53.042 209.152C53.162 208.828 53.3 208.384 53.456 207.82C53.648 207.112 53.84 206.536 54.032 206.092C54.212 205.648 54.488 205.27 54.86 204.958C55.232 204.634 55.718 204.466 56.318 204.454C56.858 204.454 57.344 204.604 57.776 204.904C58.208 205.204 58.55 205.63 58.802 206.182C59.042 206.722 59.162 207.346 59.162 208.054ZM53.69 193.141C54.002 193.141 54.332 193.159 54.68 193.195L54.68 201.079C55.652 201.019 56.414 200.689 56.966 200.089C57.506 199.477 57.776 198.739 57.776 197.875C57.776 197.167 57.614 196.579 57.29 196.111C56.954 195.631 56.51 195.295 55.958 195.103L55.958 193.339C56.906 193.603 57.68 194.131 58.28 194.923C58.868 195.715 59.162 196.699 59.162 197.875C59.162 198.811 58.952 199.651 58.532 200.395C58.112 201.127 57.518 201.703 56.75 202.123C55.97 202.543 55.07 202.753 54.05 202.753C53.03 202.753 52.136 202.549 51.368 202.141C50.6 201.733 50.012 201.163 49.604 200.431C49.184 199.687 48.974 198.835 48.974 197.875C48.974 196.939 49.178 196.111 49.586 195.391C49.994 194.671 50.558 194.119 51.278 193.735C51.986 193.339 52.79 193.141 53.69 193.141ZM53.348 194.833C52.724 194.833 52.19 194.971 51.746 195.247C51.29 195.523 50.948 195.901 50.72 196.381C50.48 196.849 50.36 197.371 50.36 197.947C50.36 198.775 50.624 199.483 51.152 200.071C51.68 200.647 52.412 200.977 53.348 201.061L53.348 194.833ZM59.162 187.487C59.162 188.243 59.036 188.921 58.784 189.521C58.52 190.121 58.16 190.595 57.704 190.943C57.236 191.291 56.702 191.483 56.102 191.519L56.102 189.827C56.594 189.779 56.996 189.551 57.308 189.143C57.62 188.723 57.776 188.177 57.776 187.505C57.776 186.881 57.638 186.389 57.362 186.029C57.086 185.669 56.738 185.489 56.318 185.489C55.886 185.489 55.568 185.681 55.364 186.065C55.148 186.449 54.938 187.043 54.734 187.847C54.542 188.579 54.35 189.179 54.158 189.647C53.954 190.103 53.66 190.499 53.276 190.835C52.88 191.159 52.364 191.321 51.728 191.321C51.224 191.321 50.762 191.171 50.342 190.871C49.922 190.571 49.592 190.145 49.352 189.593C49.1 189.041 48.974 188.411 48.974 187.703C48.974 186.611 49.25 185.729 49.802 185.057C50.354 184.385 51.11 184.025 52.07 183.977L52.07 185.615C51.554 185.651 51.14 185.861 50.828 186.245C50.516 186.617 50.36 187.121 50.36 187.757C50.36 188.345 50.486 188.813 50.738 189.161C50.99 189.509 51.32 189.683 51.728 189.683C52.052 189.683 52.322 189.581 52.538 189.377C52.742 189.161 52.91 188.897 53.042 188.585C53.162 188.261 53.3 187.817 53.456 187.253C53.648 186.545 53.84 185.969 54.032 185.525C54.212 185.081 54.488 184.703 54.86 184.391C55.232 184.067 55.718 183.899 56.318 183.887C56.858 183.887 57.344 184.037 57.776 184.337C58.208 184.637 58.55 185.063 58.802 185.615C59.042 186.155 59.162 186.779 59.162 187.487ZM47.534 175.93C47.534 176.242 47.426 176.506 47.21 176.722C46.994 176.938 46.73 177.046 46.418 177.046C46.106 177.046 45.842 176.938 45.626 176.722C45.41 176.506 45.302 176.242 45.302 175.93C45.302 175.63 45.41 175.378 45.626 175.174C45.842 174.958 46.106 174.85 46.418 174.85C46.73 174.85 46.994 174.958 47.21 175.174C47.426 175.378 47.534 175.63 47.534 175.93ZM49.136 175.138L59 175.138L59 176.776L49.136 176.776L49.136 175.138ZM48.956 167.54C48.956 166.34 49.322 165.368 50.054 164.624C50.774 163.88 51.818 163.508 53.186 163.508L59 163.508L59 165.128L53.42 165.128C52.436 165.128 51.686 165.374 51.17 165.866C50.642 166.358 50.378 167.03 50.378 167.882C50.378 168.746 50.648 169.436 51.188 169.952C51.728 170.456 52.514 170.708 53.546 170.708L59 170.708L59 172.346L49.136 172.346L49.136 170.708L50.54 170.708C50.036 170.384 49.646 169.946 49.37 169.394C49.094 168.83 48.956 168.212 48.956 167.54ZM57.668 154.396L57.668 150.004L59 150.004L59 156.034L46.454 156.034L46.454 154.396L57.668 154.396ZM54.032 148.876C53.024 148.876 52.142 148.672 51.386 148.264C50.618 147.856 50.024 147.298 49.604 146.59C49.184 145.87 48.974 145.072 48.974 144.196C48.974 143.332 49.16 142.582 49.532 141.946C49.904 141.31 50.372 140.836 50.936 140.524L49.136 140.524L49.136 138.868L59 138.868L59 140.524L57.164 140.524C57.74 140.848 58.22 141.334 58.604 141.982C58.976 142.618 59.162 143.362 59.162 144.214C59.162 145.09 58.946 145.882 58.514 146.59C58.082 147.298 57.476 147.856 56.696 148.264C55.916 148.672 55.028 148.876 54.032 148.876ZM54.05 140.524C53.306 140.524 52.658 140.674 52.106 140.974C51.554 141.274 51.134 141.682 50.846 142.198C50.546 142.702 50.396 143.26 50.396 143.872C50.396 144.484 50.54 145.042 50.828 145.546C51.116 146.05 51.536 146.452 52.088 146.752C52.64 147.052 53.288 147.202 54.032 147.202C54.788 147.202 55.448 147.052 56.012 146.752C56.564 146.452 56.99 146.05 57.29 145.546C57.578 145.042 57.722 144.484 57.722 143.872C57.722 143.26 57.578 142.702 57.29 142.198C56.99 141.682 56.564 141.274 56.012 140.974C55.448 140.674 54.794 140.524 54.05 140.524ZM59 130.592L54.644 134.462L59 134.462L59 136.1L45.68 136.1L45.68 134.462L53.51 134.462L49.136 130.664L49.136 128.378L54.05 133.022L59 128.36L59 130.592ZM48.956 121.941C48.956 121.197 49.118 120.525 49.442 119.925C49.754 119.325 50.228 118.857 50.864 118.521C51.5 118.173 52.274 117.999 53.186 117.999L59 117.999L59 119.619L53.42 119.619C52.436 119.619 51.686 119.865 51.17 120.357C50.642 120.849 50.378 121.521 50.378 122.373C50.378 123.237 50.648 123.927 51.188 124.443C51.728 124.947 52.514 125.199 53.546 125.199L59 125.199L59 126.837L45.68 126.837L45.68 125.199L50.54 125.199C50.036 124.875 49.646 124.431 49.37 123.867C49.094 123.291 48.956 122.649 48.956 121.941ZM59.162 111.831C59.162 112.587 59.036 113.265 58.784 113.865C58.52 114.465 58.16 114.939 57.704 115.287C57.236 115.635 56.702 115.827 56.102 115.863L56.102 114.171C56.594 114.123 56.996 113.895 57.308 113.487C57.62 113.067 57.776 112.521 57.776 111.849C57.776 111.225 57.638 110.733 57.362 110.373C57.086 110.013 56.738 109.833 56.318 109.833C55.886 109.833 55.568 110.025 55.364 110.409C55.148 110.793 54.938 111.387 54.734 112.191C54.542 112.923 54.35 113.523 54.158 113.991C53.954 114.447 53.66 114.843 53.276 115.179C52.88 115.503 52.364 115.665 51.728 115.665C51.224 115.665 50.762 115.515 50.342 115.215C49.922 114.915 49.592 114.489 49.352 113.937C49.1 113.385 48.974 112.755 48.974 112.047C48.974 110.955 49.25 110.073 49.802 109.401C50.354 108.729 51.11 108.369 52.07 108.321L52.07 109.959C51.554 109.995 51.14 110.205 50.828 110.589C50.516 110.961 50.36 111.465 50.36 112.101C50.36 112.689 50.486 113.157 50.738 113.505C50.99 113.853 51.32 114.027 51.728 114.027C52.052 114.027 52.322 113.925 52.538 113.721C52.742 113.505 52.91 113.241 53.042 112.929C53.162 112.605 53.3 112.161 53.456 111.597C53.648 110.889 53.84 110.313 54.032 109.869C54.212 109.425 54.488 109.047 54.86 108.735C55.232 108.411 55.718 108.243 56.318 108.231C56.858 108.231 57.344 108.381 57.776 108.681C58.208 108.981 58.55 109.407 58.802 109.959C59.042 110.499 59.162 111.123 59.162 111.831Z" fill="#103654"/>
<path d="M633.17 434.454L629.084 442.266V447H627.446V442.266L623.342 434.454H625.16L628.256 440.808L631.352 434.454H633.17ZM643.898 441.69C643.898 442.002 643.88 442.332 643.844 442.68H635.96C636.02 443.652 636.35 444.414 636.95 444.966C637.562 445.506 638.3 445.776 639.164 445.776C639.872 445.776 640.46 445.614 640.928 445.29C641.408 444.954 641.744 444.51 641.936 443.958H643.7C643.436 444.906 642.908 445.68 642.116 446.28C641.324 446.868 640.34 447.162 639.164 447.162C638.228 447.162 637.388 446.952 636.644 446.532C635.912 446.112 635.336 445.518 634.916 444.75C634.496 443.97 634.286 443.07 634.286 442.05C634.286 441.03 634.49 440.136 634.898 439.368C635.306 438.6 635.876 438.012 636.608 437.604C637.352 437.184 638.204 436.974 639.164 436.974C640.1 436.974 640.928 437.178 641.648 437.586C642.368 437.994 642.92 438.558 643.304 439.278C643.7 439.986 643.898 440.79 643.898 441.69ZM642.206 441.348C642.206 440.724 642.068 440.19 641.792 439.746C641.516 439.29 641.138 438.948 640.658 438.72C640.19 438.48 639.668 438.36 639.092 438.36C638.264 438.36 637.556 438.624 636.968 439.152C636.392 439.68 636.062 440.412 635.978 441.348H642.206ZM645.448 442.032C645.448 441.024 645.652 440.142 646.06 439.386C646.468 438.618 647.026 438.024 647.734 437.604C648.454 437.184 649.252 436.974 650.128 436.974C650.992 436.974 651.742 437.16 652.378 437.532C653.014 437.904 653.488 438.372 653.8 438.936V437.136H655.456V447H653.8V445.164C653.476 445.74 652.99 446.22 652.342 446.604C651.706 446.976 650.962 447.162 650.11 447.162C649.234 447.162 648.442 446.946 647.734 446.514C647.026 446.082 646.468 445.476 646.06 444.696C645.652 443.916 645.448 443.028 645.448 442.032ZM653.8 442.05C653.8 441.306 653.65 440.658 653.35 440.106C653.05 439.554 652.642 439.134 652.126 438.846C651.622 438.546 651.064 438.396 650.452 438.396C649.84 438.396 649.282 438.54 648.778 438.828C648.274 439.116 647.872 439.536 647.572 440.088C647.272 440.64 647.122 441.288 647.122 442.032C647.122 442.788 647.272 443.448 647.572 444.012C647.872 444.564 648.274 444.99 648.778 445.29C649.282 445.578 649.84 445.722 650.452 445.722C651.064 445.722 651.622 445.578 652.126 445.29C652.642 444.99 653.05 444.564 653.35 444.012C653.65 443.448 653.8 442.794 653.8 442.05ZM659.862 438.738C660.15 438.174 660.558 437.736 661.086 437.424C661.626 437.112 662.28 436.956 663.048 436.956V438.648H662.616C660.78 438.648 659.862 439.644 659.862 441.636V447H658.224V437.136H659.862V438.738ZM668.431 447.162C667.675 447.162 666.997 447.036 666.397 446.784C665.797 446.52 665.323 446.16 664.975 445.704C664.627 445.236 664.435 444.702 664.399 444.102H666.091C666.139 444.594 666.367 444.996 666.775 445.308C667.195 445.62 667.741 445.776 668.413 445.776C669.037 445.776 669.529 445.638 669.889 445.362C670.249 445.086 670.429 444.738 670.429 444.318C670.429 443.886 670.237 443.568 669.853 443.364C669.469 443.148 668.875 442.938 668.071 442.734C667.339 442.542 666.739 442.35 666.271 442.158C665.815 441.954 665.419 441.66 665.083 441.276C664.759 440.88 664.597 440.364 664.597 439.728C664.597 439.224 664.747 438.762 665.047 438.342C665.347 437.922 665.773 437.592 666.325 437.352C666.877 437.1 667.507 436.974 668.215 436.974C669.307 436.974 670.189 437.25 670.861 437.802C671.533 438.354 671.893 439.11 671.941 440.07H670.303C670.267 439.554 670.057 439.14 669.673 438.828C669.301 438.516 668.797 438.36 668.161 438.36C667.573 438.36 667.105 438.486 666.757 438.738C666.409 438.99 666.235 439.32 666.235 439.728C666.235 440.052 666.337 440.322 666.541 440.538C666.757 440.742 667.021 440.91 667.333 441.042C667.657 441.162 668.101 441.3 668.665 441.456C669.373 441.648 669.949 441.84 670.393 442.032C670.837 442.212 671.215 442.488 671.527 442.86C671.851 443.232 672.019 443.718 672.031 444.318C672.031 444.858 671.881 445.344 671.581 445.776C671.281 446.208 670.855 446.55 670.303 446.802C669.763 447.042 669.139 447.162 668.431 447.162Z" fill="#103654"/>
</g>
<defs>
<clipPath id="clip0_446_5520">
<rect width="1279" height="441" fill="white"/>
</clipPath>
</defs>
</svg>
