<svg width="1279" height="484" viewBox="0 0 1279 484" fill="none" xmlns="http://www.w3.org/2000/svg">
<rect width="1279" height="484" fill="black"/>
<path d="M124.454 384.825H1269.43" stroke="black"/>
<path d="M181.702 398.055V384.825" stroke="black"/>
<path d="M167.111 428.842V428.075L169.992 424.921C170.33 424.552 170.608 424.231 170.827 423.958C171.046 423.682 171.208 423.424 171.313 423.182C171.421 422.938 171.475 422.682 171.475 422.415C171.475 422.109 171.401 421.843 171.253 421.619C171.108 421.394 170.909 421.221 170.656 421.099C170.404 420.976 170.119 420.915 169.804 420.915C169.469 420.915 169.176 420.985 168.926 421.124C168.679 421.261 168.487 421.452 168.351 421.7C168.217 421.947 168.151 422.236 168.151 422.569H167.145C167.145 422.057 167.263 421.609 167.499 421.222C167.735 420.836 168.056 420.535 168.462 420.319C168.871 420.103 169.33 419.995 169.838 419.995C170.35 419.995 170.803 420.103 171.198 420.319C171.592 420.535 171.902 420.826 172.127 421.192C172.351 421.559 172.463 421.967 172.463 422.415C172.463 422.736 172.405 423.05 172.288 423.357C172.175 423.661 171.976 424.001 171.692 424.376C171.411 424.748 171.02 425.202 170.52 425.739L168.56 427.836V427.904H172.617V428.842H167.111ZM177.223 428.961C176.581 428.961 176.034 428.786 175.583 428.437C175.131 428.084 174.786 427.575 174.547 426.907C174.308 426.236 174.189 425.427 174.189 424.478C174.189 423.535 174.308 422.729 174.547 422.062C174.788 421.391 175.135 420.88 175.587 420.528C176.041 420.173 176.587 419.995 177.223 419.995C177.86 419.995 178.404 420.173 178.855 420.528C179.31 420.88 179.656 421.391 179.895 422.062C180.136 422.729 180.257 423.535 180.257 424.478C180.257 425.427 180.138 426.236 179.899 426.907C179.661 427.575 179.315 428.084 178.864 428.437C178.412 428.786 177.865 428.961 177.223 428.961ZM177.223 428.023C177.86 428.023 178.354 427.717 178.706 427.103C179.058 426.489 179.235 425.614 179.235 424.478C179.235 423.722 179.154 423.079 178.992 422.548C178.833 422.016 178.602 421.611 178.301 421.333C178.003 421.055 177.644 420.915 177.223 420.915C176.592 420.915 176.1 421.226 175.744 421.849C175.389 422.468 175.212 423.344 175.212 424.478C175.212 425.234 175.291 425.876 175.45 426.404C175.61 426.932 175.838 427.334 176.136 427.61C176.438 427.886 176.8 428.023 177.223 428.023ZM181.877 428.842V428.075L184.757 424.921C185.095 424.552 185.374 424.231 185.592 423.958C185.811 423.682 185.973 423.424 186.078 423.182C186.186 422.938 186.24 422.682 186.24 422.415C186.24 422.109 186.166 421.843 186.019 421.619C185.874 421.394 185.675 421.221 185.422 421.099C185.169 420.976 184.885 420.915 184.57 420.915C184.235 420.915 183.942 420.985 183.692 421.124C183.445 421.261 183.253 421.452 183.117 421.7C182.983 421.947 182.916 422.236 182.916 422.569H181.911C181.911 422.057 182.029 421.609 182.264 421.222C182.5 420.836 182.821 420.535 183.227 420.319C183.636 420.103 184.095 419.995 184.604 419.995C185.115 419.995 185.568 420.103 185.963 420.319C186.358 420.535 186.668 420.826 186.892 421.192C187.117 421.559 187.229 421.967 187.229 422.415C187.229 422.736 187.171 423.05 187.054 423.357C186.94 423.661 186.742 424.001 186.458 424.376C186.176 424.748 185.786 425.202 185.286 425.739L183.325 427.836V427.904H187.382V428.842H181.877ZM192.091 428.961C191.529 428.961 191.027 428.864 190.587 428.671C190.149 428.478 189.801 428.209 189.543 427.866C189.287 427.519 189.148 427.117 189.125 426.66H190.199C190.222 426.941 190.318 427.184 190.489 427.388C190.659 427.59 190.882 427.746 191.158 427.857C191.433 427.968 191.739 428.023 192.074 428.023C192.449 428.023 192.781 427.958 193.071 427.827C193.361 427.697 193.588 427.515 193.753 427.282C193.918 427.049 194 426.779 194 426.472C194 426.151 193.921 425.869 193.761 425.624C193.602 425.377 193.369 425.184 193.063 425.045C192.756 424.905 192.381 424.836 191.938 424.836H191.239V423.898H191.938C192.284 423.898 192.588 423.836 192.85 423.711C193.114 423.586 193.32 423.41 193.467 423.182C193.618 422.955 193.693 422.688 193.693 422.381C193.693 422.086 193.628 421.829 193.497 421.61C193.367 421.391 193.182 421.221 192.943 421.099C192.708 420.976 192.429 420.915 192.108 420.915C191.807 420.915 191.523 420.971 191.256 421.082C190.992 421.19 190.776 421.347 190.608 421.555C190.44 421.759 190.35 422.006 190.335 422.296H189.313C189.33 421.839 189.467 421.438 189.726 421.094C189.985 420.748 190.323 420.478 190.74 420.285C191.161 420.092 191.622 419.995 192.125 419.995C192.665 419.995 193.128 420.104 193.514 420.323C193.901 420.539 194.198 420.825 194.405 421.18C194.612 421.535 194.716 421.918 194.716 422.33C194.716 422.822 194.587 423.241 194.328 423.587C194.073 423.934 193.725 424.174 193.284 424.307V424.376C193.835 424.467 194.266 424.701 194.575 425.079C194.885 425.454 195.04 425.918 195.04 426.472C195.04 426.947 194.911 427.373 194.652 427.751C194.396 428.126 194.047 428.421 193.604 428.637C193.161 428.853 192.656 428.961 192.091 428.961Z" fill="white"/>
<path d="M296.2 398.055V384.825" stroke="black"/>
<path d="M281.711 428.842V428.075L284.591 424.921C284.929 424.552 285.208 424.231 285.426 423.958C285.645 423.682 285.807 423.424 285.912 423.182C286.02 422.938 286.074 422.682 286.074 422.415C286.074 422.109 286 421.843 285.853 421.619C285.708 421.394 285.509 421.221 285.256 421.099C285.003 420.976 284.719 420.915 284.404 420.915C284.068 420.915 283.776 420.985 283.526 421.124C283.279 421.261 283.087 421.452 282.951 421.7C282.817 421.947 282.75 422.236 282.75 422.569H281.745C281.745 422.057 281.863 421.609 282.098 421.222C282.334 420.836 282.655 420.535 283.061 420.319C283.47 420.103 283.929 419.995 284.438 419.995C284.949 419.995 285.402 420.103 285.797 420.319C286.192 420.535 286.502 420.826 286.726 421.192C286.951 421.559 287.063 421.967 287.063 422.415C287.063 422.736 287.005 423.05 286.888 423.357C286.774 423.661 286.576 424.001 286.292 424.376C286.01 424.748 285.62 425.202 285.12 425.739L283.159 427.836V427.904H287.216V428.842H281.711ZM291.823 428.961C291.181 428.961 290.634 428.786 290.182 428.437C289.73 428.084 289.385 427.575 289.147 426.907C288.908 426.236 288.789 425.427 288.789 424.478C288.789 423.535 288.908 422.729 289.147 422.062C289.388 421.391 289.735 420.88 290.186 420.528C290.641 420.173 291.186 419.995 291.823 419.995C292.459 419.995 293.003 420.173 293.455 420.528C293.909 420.88 294.256 421.391 294.495 422.062C294.736 422.729 294.857 423.535 294.857 424.478C294.857 425.427 294.738 426.236 294.499 426.907C294.26 427.575 293.915 428.084 293.463 428.437C293.012 428.786 292.465 428.961 291.823 428.961ZM291.823 428.023C292.459 428.023 292.953 427.717 293.306 427.103C293.658 426.489 293.834 425.614 293.834 424.478C293.834 423.722 293.753 423.079 293.591 422.548C293.432 422.016 293.202 421.611 292.901 421.333C292.603 421.055 292.243 420.915 291.823 420.915C291.192 420.915 290.699 421.226 290.344 421.849C289.989 422.468 289.811 423.344 289.811 424.478C289.811 425.234 289.891 425.876 290.05 426.404C290.209 426.932 290.438 427.334 290.736 427.61C291.037 427.886 291.399 428.023 291.823 428.023ZM296.476 428.842V428.075L299.357 424.921C299.695 424.552 299.973 424.231 300.192 423.958C300.411 423.682 300.573 423.424 300.678 423.182C300.786 422.938 300.84 422.682 300.84 422.415C300.84 422.109 300.766 421.843 300.618 421.619C300.473 421.394 300.274 421.221 300.022 421.099C299.769 420.976 299.485 420.915 299.169 420.915C298.834 420.915 298.542 420.985 298.292 421.124C298.044 421.261 297.853 421.452 297.716 421.7C297.583 421.947 297.516 422.236 297.516 422.569H296.51C296.51 422.057 296.628 421.609 296.864 421.222C297.1 420.836 297.421 420.535 297.827 420.319C298.236 420.103 298.695 419.995 299.203 419.995C299.715 419.995 300.168 420.103 300.563 420.319C300.958 420.535 301.267 420.826 301.492 421.192C301.716 421.559 301.828 421.967 301.828 422.415C301.828 422.736 301.77 423.05 301.654 423.357C301.54 423.661 301.341 424.001 301.057 424.376C300.776 424.748 300.385 425.202 299.885 425.739L297.925 427.836V427.904H301.982V428.842H296.476ZM303.742 428.842V428.075L306.622 424.921C306.961 424.552 307.239 424.231 307.458 423.958C307.676 423.682 307.838 423.424 307.943 423.182C308.051 422.938 308.105 422.682 308.105 422.415C308.105 422.109 308.032 421.843 307.884 421.619C307.739 421.394 307.54 421.221 307.287 421.099C307.034 420.976 306.75 420.915 306.435 420.915C306.1 420.915 305.807 420.985 305.557 421.124C305.31 421.261 305.118 421.452 304.982 421.7C304.848 421.947 304.782 422.236 304.782 422.569H303.776C303.776 422.057 303.894 421.609 304.13 421.222C304.365 420.836 304.686 420.535 305.093 420.319C305.502 420.103 305.961 419.995 306.469 419.995C306.98 419.995 307.434 420.103 307.828 420.319C308.223 420.535 308.533 420.826 308.757 421.192C308.982 421.559 309.094 421.967 309.094 422.415C309.094 422.736 309.036 423.05 308.919 423.357C308.806 423.661 308.607 424.001 308.323 424.376C308.042 424.748 307.651 425.202 307.151 425.739L305.191 427.836V427.904H309.247V428.842H303.742Z" fill="white"/>
<path d="M410.697 398.055V384.825" stroke="black"/>
<path d="M397.137 428.842V428.075L400.017 424.921C400.356 424.552 400.634 424.231 400.853 423.958C401.071 423.682 401.233 423.424 401.339 423.182C401.446 422.938 401.5 422.682 401.5 422.415C401.5 422.109 401.427 421.843 401.279 421.619C401.134 421.394 400.935 421.221 400.682 421.099C400.429 420.976 400.145 420.915 399.83 420.915C399.495 420.915 399.202 420.985 398.952 421.124C398.705 421.261 398.513 421.452 398.377 421.7C398.243 421.947 398.177 422.236 398.177 422.569H397.171C397.171 422.057 397.289 421.609 397.525 421.222C397.76 420.836 398.081 420.535 398.488 420.319C398.897 420.103 399.356 419.995 399.864 419.995C400.375 419.995 400.829 420.103 401.223 420.319C401.618 420.535 401.928 420.826 402.152 421.192C402.377 421.559 402.489 421.967 402.489 422.415C402.489 422.736 402.431 423.05 402.314 423.357C402.201 423.661 402.002 424.001 401.718 424.376C401.437 424.748 401.046 425.202 400.546 425.739L398.586 427.836V427.904H402.642V428.842H397.137ZM407.249 428.961C406.607 428.961 406.06 428.786 405.608 428.437C405.157 428.084 404.812 427.575 404.573 426.907C404.334 426.236 404.215 425.427 404.215 424.478C404.215 423.535 404.334 422.729 404.573 422.062C404.814 421.391 405.161 420.88 405.613 420.528C406.067 420.173 406.613 419.995 407.249 419.995C407.885 419.995 408.429 420.173 408.881 420.528C409.336 420.88 409.682 421.391 409.921 422.062C410.162 422.729 410.283 423.535 410.283 424.478C410.283 425.427 410.164 426.236 409.925 426.907C409.687 427.575 409.341 428.084 408.89 428.437C408.438 428.786 407.891 428.961 407.249 428.961ZM407.249 428.023C407.885 428.023 408.38 427.717 408.732 427.103C409.084 426.489 409.26 425.614 409.26 424.478C409.26 423.722 409.179 423.079 409.017 422.548C408.858 422.016 408.628 421.611 408.327 421.333C408.029 421.055 407.669 420.915 407.249 420.915C406.618 420.915 406.125 421.226 405.77 421.849C405.415 422.468 405.238 423.344 405.238 424.478C405.238 425.234 405.317 425.876 405.476 426.404C405.635 426.932 405.864 427.334 406.162 427.61C406.464 427.886 406.826 428.023 407.249 428.023ZM411.902 428.842V428.075L414.783 424.921C415.121 424.552 415.4 424.231 415.618 423.958C415.837 423.682 415.999 423.424 416.104 423.182C416.212 422.938 416.266 422.682 416.266 422.415C416.266 422.109 416.192 421.843 416.044 421.619C415.9 421.394 415.701 421.221 415.448 421.099C415.195 420.976 414.911 420.915 414.596 420.915C414.26 420.915 413.968 420.985 413.718 421.124C413.471 421.261 413.279 421.452 413.142 421.7C413.009 421.947 412.942 422.236 412.942 422.569H411.937C411.937 422.057 412.054 421.609 412.29 421.222C412.526 420.836 412.847 420.535 413.253 420.319C413.662 420.103 414.121 419.995 414.63 419.995C415.141 419.995 415.594 420.103 415.989 420.319C416.384 420.535 416.694 420.826 416.918 421.192C417.142 421.559 417.255 421.967 417.255 422.415C417.255 422.736 417.196 423.05 417.08 423.357C416.966 423.661 416.767 424.001 416.483 424.376C416.202 424.748 415.812 425.202 415.312 425.739L413.351 427.836V427.904H417.408V428.842H411.902ZM422.236 420.114V428.842H421.179V421.222H421.128L418.998 422.637V421.563L421.179 420.114H422.236Z" fill="white"/>
<path d="M525.194 398.055V384.825" stroke="black"/>
<path d="M510.673 428.842V428.075L513.554 424.921C513.892 424.552 514.17 424.231 514.389 423.958C514.608 423.682 514.77 423.424 514.875 423.182C514.983 422.938 515.037 422.682 515.037 422.415C515.037 422.109 514.963 421.843 514.815 421.619C514.67 421.394 514.471 421.221 514.218 421.099C513.966 420.976 513.681 420.915 513.366 420.915C513.031 420.915 512.738 420.985 512.488 421.124C512.241 421.261 512.049 421.452 511.913 421.7C511.779 421.947 511.713 422.236 511.713 422.569H510.707C510.707 422.057 510.825 421.609 511.061 421.222C511.297 420.836 511.618 420.535 512.024 420.319C512.433 420.103 512.892 419.995 513.4 419.995C513.912 419.995 514.365 420.103 514.76 420.319C515.154 420.535 515.464 420.826 515.689 421.192C515.913 421.559 516.025 421.967 516.025 422.415C516.025 422.736 515.967 423.05 515.85 423.357C515.737 423.661 515.538 424.001 515.254 424.376C514.973 424.748 514.582 425.202 514.082 425.739L512.122 427.836V427.904H516.179V428.842H510.673ZM520.785 428.961C520.143 428.961 519.596 428.786 519.145 428.437C518.693 428.084 518.348 427.575 518.109 426.907C517.87 426.236 517.751 425.427 517.751 424.478C517.751 423.535 517.87 422.729 518.109 422.062C518.35 421.391 518.697 420.88 519.149 420.528C519.603 420.173 520.149 419.995 520.785 419.995C521.422 419.995 521.966 420.173 522.417 420.528C522.872 420.88 523.218 421.391 523.457 422.062C523.699 422.729 523.819 423.535 523.819 424.478C523.819 425.427 523.7 426.236 523.461 426.907C523.223 427.575 522.877 428.084 522.426 428.437C521.974 428.786 521.427 428.961 520.785 428.961ZM520.785 428.023C521.422 428.023 521.916 427.717 522.268 427.103C522.62 426.489 522.797 425.614 522.797 424.478C522.797 423.722 522.716 423.079 522.554 422.548C522.395 422.016 522.164 421.611 521.863 421.333C521.565 421.055 521.206 420.915 520.785 420.915C520.154 420.915 519.662 421.226 519.306 421.849C518.951 422.468 518.774 423.344 518.774 424.478C518.774 425.234 518.853 425.876 519.012 426.404C519.172 426.932 519.4 427.334 519.699 427.61C520 427.886 520.362 428.023 520.785 428.023ZM525.439 428.842V428.075L528.319 424.921C528.657 424.552 528.936 424.231 529.154 423.958C529.373 423.682 529.535 423.424 529.64 423.182C529.748 422.938 529.802 422.682 529.802 422.415C529.802 422.109 529.728 421.843 529.581 421.619C529.436 421.394 529.237 421.221 528.984 421.099C528.731 420.976 528.447 420.915 528.132 420.915C527.797 420.915 527.504 420.985 527.254 421.124C527.007 421.261 526.815 421.452 526.679 421.7C526.545 421.947 526.478 422.236 526.478 422.569H525.473C525.473 422.057 525.591 421.609 525.826 421.222C526.062 420.836 526.383 420.535 526.789 420.319C527.199 420.103 527.657 419.995 528.166 419.995C528.677 419.995 529.13 420.103 529.525 420.319C529.92 420.535 530.23 420.826 530.454 421.192C530.679 421.559 530.791 421.967 530.791 422.415C530.791 422.736 530.733 423.05 530.616 423.357C530.502 423.661 530.304 424.001 530.02 424.376C529.738 424.748 529.348 425.202 528.848 425.739L526.887 427.836V427.904H530.944V428.842H525.439ZM535.551 428.961C534.909 428.961 534.362 428.786 533.91 428.437C533.458 428.084 533.113 427.575 532.875 426.907C532.636 426.236 532.517 425.427 532.517 424.478C532.517 423.535 532.636 422.729 532.875 422.062C533.116 421.391 533.463 420.88 533.914 420.528C534.369 420.173 534.914 419.995 535.551 419.995C536.187 419.995 536.731 420.173 537.183 420.528C537.637 420.88 537.984 421.391 538.223 422.062C538.464 422.729 538.585 423.535 538.585 424.478C538.585 425.427 538.466 426.236 538.227 426.907C537.988 427.575 537.643 428.084 537.191 428.437C536.74 428.786 536.193 428.961 535.551 428.961ZM535.551 428.023C536.187 428.023 536.681 427.717 537.034 427.103C537.386 426.489 537.562 425.614 537.562 424.478C537.562 423.722 537.481 423.079 537.319 422.548C537.16 422.016 536.93 421.611 536.629 421.333C536.331 421.055 535.971 420.915 535.551 420.915C534.92 420.915 534.427 421.226 534.072 421.849C533.717 422.468 533.539 423.344 533.539 424.478C533.539 425.234 533.619 425.876 533.778 426.404C533.937 426.932 534.166 427.334 534.464 427.61C534.765 427.886 535.127 428.023 535.551 428.023Z" fill="white"/>
<path d="M639.691 398.055V384.825" stroke="black"/>
<path d="M626.02 428.842V428.075L628.901 424.921C629.239 424.552 629.517 424.231 629.736 423.958C629.955 423.682 630.117 423.424 630.222 423.182C630.33 422.938 630.384 422.682 630.384 422.415C630.384 422.109 630.31 421.843 630.162 421.619C630.017 421.394 629.818 421.221 629.566 421.099C629.313 420.976 629.029 420.915 628.713 420.915C628.378 420.915 628.085 420.985 627.835 421.124C627.588 421.261 627.397 421.452 627.26 421.7C627.127 421.947 627.06 422.236 627.06 422.569H626.054C626.054 422.057 626.172 421.609 626.408 421.222C626.644 420.836 626.965 420.535 627.371 420.319C627.78 420.103 628.239 419.995 628.747 419.995C629.259 419.995 629.712 420.103 630.107 420.319C630.502 420.535 630.811 420.826 631.036 421.192C631.26 421.559 631.372 421.967 631.372 422.415C631.372 422.736 631.314 423.05 631.198 423.357C631.084 423.661 630.885 424.001 630.601 424.376C630.32 424.748 629.929 425.202 629.429 425.739L627.469 427.836V427.904H631.526V428.842H626.02ZM636.132 428.961C635.49 428.961 634.943 428.786 634.492 428.437C634.04 428.084 633.695 427.575 633.456 426.907C633.218 426.236 633.098 425.427 633.098 424.478C633.098 423.535 633.218 422.729 633.456 422.062C633.698 421.391 634.044 420.88 634.496 420.528C634.951 420.173 635.496 419.995 636.132 419.995C636.769 419.995 637.313 420.173 637.764 420.528C638.219 420.88 638.566 421.391 638.804 422.062C639.046 422.729 639.166 423.535 639.166 424.478C639.166 425.427 639.047 426.236 638.808 426.907C638.57 427.575 638.225 428.084 637.773 428.437C637.321 428.786 636.774 428.961 636.132 428.961ZM636.132 428.023C636.769 428.023 637.263 427.717 637.615 427.103C637.968 426.489 638.144 425.614 638.144 424.478C638.144 423.722 638.063 423.079 637.901 422.548C637.742 422.016 637.512 421.611 637.21 421.333C636.912 421.055 636.553 420.915 636.132 420.915C635.502 420.915 635.009 421.226 634.654 421.849C634.299 422.468 634.121 423.344 634.121 424.478C634.121 425.234 634.201 425.876 634.36 426.404C634.519 426.932 634.747 427.334 635.046 427.61C635.347 427.886 635.709 428.023 636.132 428.023ZM643.854 420.114V428.842H642.797V421.222H642.746L640.615 422.637V421.563L642.797 420.114H643.854ZM649.142 419.995C649.5 419.998 649.858 420.066 650.216 420.2C650.574 420.333 650.901 420.555 651.196 420.864C651.492 421.171 651.729 421.59 651.908 422.121C652.087 422.653 652.176 423.319 652.176 424.12C652.176 424.896 652.102 425.584 651.955 426.187C651.81 426.786 651.6 427.292 651.324 427.704C651.051 428.116 650.719 428.428 650.327 428.641C649.938 428.854 649.497 428.961 649.006 428.961C648.517 428.961 648.081 428.864 647.698 428.671C647.317 428.475 647.004 428.204 646.76 427.857C646.519 427.508 646.364 427.103 646.296 426.643H647.335C647.429 427.043 647.615 427.374 647.894 427.636C648.175 427.894 648.546 428.023 649.006 428.023C649.679 428.023 650.21 427.729 650.6 427.141C650.992 426.553 651.188 425.722 651.188 424.648H651.12C650.96 424.887 650.772 425.093 650.553 425.266C650.334 425.44 650.091 425.573 649.824 425.667C649.557 425.761 649.273 425.807 648.972 425.807C648.472 425.807 648.013 425.684 647.595 425.437C647.181 425.187 646.848 424.844 646.598 424.41C646.351 423.972 646.227 423.472 646.227 422.91C646.227 422.376 646.347 421.887 646.585 421.444C646.827 420.998 647.165 420.643 647.6 420.378C648.037 420.114 648.551 419.986 649.142 419.995ZM649.142 420.932C648.784 420.932 648.462 421.022 648.175 421.201C647.891 421.377 647.665 421.616 647.497 421.917C647.333 422.215 647.25 422.546 647.25 422.91C647.25 423.273 647.33 423.604 647.489 423.903C647.651 424.198 647.871 424.434 648.149 424.61C648.431 424.783 648.75 424.87 649.108 424.87C649.378 424.87 649.629 424.817 649.862 424.712C650.095 424.604 650.299 424.458 650.472 424.273C650.648 424.086 650.786 423.874 650.885 423.638C650.985 423.4 651.034 423.151 651.034 422.893C651.034 422.552 650.952 422.232 650.787 421.934C650.625 421.636 650.401 421.394 650.114 421.209C649.83 421.025 649.506 420.932 649.142 420.932Z" fill="white"/>
<path d="M754.188 398.055V384.825" stroke="black"/>
<path d="M740.564 428.842V428.075L743.445 424.921C743.783 424.552 744.061 424.231 744.28 423.958C744.499 423.682 744.661 423.424 744.766 423.182C744.874 422.938 744.928 422.682 744.928 422.415C744.928 422.109 744.854 421.843 744.706 421.619C744.561 421.394 744.362 421.221 744.11 421.099C743.857 420.976 743.573 420.915 743.257 420.915C742.922 420.915 742.629 420.985 742.379 421.124C742.132 421.261 741.94 421.452 741.804 421.7C741.671 421.947 741.604 422.236 741.604 422.569H740.598C740.598 422.057 740.716 421.609 740.952 421.222C741.188 420.836 741.509 420.535 741.915 420.319C742.324 420.103 742.783 419.995 743.291 419.995C743.803 419.995 744.256 420.103 744.651 420.319C745.046 420.535 745.355 420.826 745.58 421.192C745.804 421.559 745.916 421.967 745.916 422.415C745.916 422.736 745.858 423.05 745.742 423.357C745.628 423.661 745.429 424.001 745.145 424.376C744.864 424.748 744.473 425.202 743.973 425.739L742.013 427.836V427.904H746.07V428.842H740.564ZM750.676 428.961C750.034 428.961 749.487 428.786 749.036 428.437C748.584 428.084 748.239 427.575 748 426.907C747.761 426.236 747.642 425.427 747.642 424.478C747.642 423.535 747.761 422.729 748 422.062C748.242 421.391 748.588 420.88 749.04 420.528C749.494 420.173 750.04 419.995 750.676 419.995C751.313 419.995 751.857 420.173 752.308 420.528C752.763 420.88 753.11 421.391 753.348 422.062C753.59 422.729 753.71 423.535 753.71 424.478C753.71 425.427 753.591 426.236 753.352 426.907C753.114 427.575 752.769 428.084 752.317 428.437C751.865 428.786 751.318 428.961 750.676 428.961ZM750.676 428.023C751.313 428.023 751.807 427.717 752.159 427.103C752.511 426.489 752.688 425.614 752.688 424.478C752.688 423.722 752.607 423.079 752.445 422.548C752.286 422.016 752.056 421.611 751.754 421.333C751.456 421.055 751.097 420.915 750.676 420.915C750.046 420.915 749.553 421.226 749.198 421.849C748.842 422.468 748.665 423.344 748.665 424.478C748.665 425.234 748.744 425.876 748.904 426.404C749.063 426.932 749.291 427.334 749.59 427.61C749.891 427.886 750.253 428.023 750.676 428.023ZM758.398 420.114V428.842H757.341V421.222H757.29L755.159 422.637V421.563L757.341 420.114H758.398ZM763.703 428.961C763.118 428.961 762.601 428.857 762.152 428.65C761.706 428.44 761.358 428.151 761.108 427.785C760.858 427.415 760.735 426.995 760.737 426.523C760.735 426.154 760.807 425.813 760.955 425.501C761.102 425.185 761.304 424.923 761.56 424.712C761.818 424.499 762.107 424.364 762.425 424.307V424.256C762.007 424.148 761.675 423.914 761.428 423.553C761.181 423.19 761.058 422.776 761.061 422.313C761.058 421.87 761.171 421.474 761.398 421.124C761.625 420.775 761.938 420.499 762.335 420.298C762.736 420.096 763.192 419.995 763.703 419.995C764.209 419.995 764.661 420.096 765.058 420.298C765.456 420.499 765.769 420.775 765.996 421.124C766.226 421.474 766.342 421.87 766.345 422.313C766.342 422.776 766.216 423.19 765.966 423.553C765.719 423.914 765.391 424.148 764.982 424.256V424.307C765.297 424.364 765.581 424.499 765.834 424.712C766.087 424.923 766.288 425.185 766.439 425.501C766.59 425.813 766.666 426.154 766.669 426.523C766.666 426.995 766.538 427.415 766.286 427.785C766.036 428.151 765.688 428.44 765.242 428.65C764.798 428.857 764.286 428.961 763.703 428.961ZM763.703 428.023C764.098 428.023 764.439 427.959 764.726 427.832C765.013 427.704 765.235 427.523 765.391 427.29C765.547 427.057 765.627 426.785 765.629 426.472C765.627 426.143 765.541 425.851 765.374 425.599C765.206 425.346 764.977 425.147 764.688 425.002C764.401 424.857 764.073 424.785 763.703 424.785C763.331 424.785 762.999 424.857 762.706 425.002C762.416 425.147 762.188 425.346 762.02 425.599C761.855 425.851 761.774 426.143 761.777 426.472C761.774 426.785 761.85 427.057 762.003 427.29C762.159 427.523 762.382 427.704 762.672 427.832C762.962 427.959 763.306 428.023 763.703 428.023ZM763.703 423.881C764.016 423.881 764.293 423.819 764.534 423.694C764.779 423.569 764.97 423.394 765.11 423.17C765.249 422.945 765.32 422.682 765.323 422.381C765.32 422.086 765.25 421.829 765.114 421.61C764.977 421.388 764.788 421.218 764.547 421.099C764.306 420.976 764.024 420.915 763.703 420.915C763.377 420.915 763.091 420.976 762.847 421.099C762.602 421.218 762.413 421.388 762.28 421.61C762.146 421.829 762.081 422.086 762.084 422.381C762.081 422.682 762.148 422.945 762.284 423.17C762.423 423.394 762.615 423.569 762.86 423.694C763.104 423.819 763.385 423.881 763.703 423.881Z" fill="white"/>
<path d="M868.686 398.055V384.825" stroke="black"/>
<path d="M855.331 428.842V428.075L858.212 424.921C858.55 424.552 858.828 424.231 859.047 423.958C859.266 423.682 859.428 423.424 859.533 423.182C859.641 422.938 859.695 422.682 859.695 422.415C859.695 422.109 859.621 421.843 859.473 421.619C859.328 421.394 859.129 421.221 858.877 421.099C858.624 420.976 858.34 420.915 858.024 420.915C857.689 420.915 857.396 420.985 857.146 421.124C856.899 421.261 856.708 421.452 856.571 421.7C856.438 421.947 856.371 422.236 856.371 422.569H855.365C855.365 422.057 855.483 421.609 855.719 421.222C855.955 420.836 856.276 420.535 856.682 420.319C857.091 420.103 857.55 419.995 858.058 419.995C858.57 419.995 859.023 420.103 859.418 420.319C859.813 420.535 860.122 420.826 860.347 421.192C860.571 421.559 860.683 421.967 860.683 422.415C860.683 422.736 860.625 423.05 860.509 423.357C860.395 423.661 860.196 424.001 859.912 424.376C859.631 424.748 859.24 425.202 858.74 425.739L856.78 427.836V427.904H860.837V428.842H855.331ZM865.443 428.961C864.801 428.961 864.254 428.786 863.803 428.437C863.351 428.084 863.006 427.575 862.767 426.907C862.529 426.236 862.409 425.427 862.409 424.478C862.409 423.535 862.529 422.729 862.767 422.062C863.009 421.391 863.355 420.88 863.807 420.528C864.262 420.173 864.807 419.995 865.443 419.995C866.08 419.995 866.624 420.173 867.075 420.528C867.53 420.88 867.877 421.391 868.115 422.062C868.357 422.729 868.477 423.535 868.477 424.478C868.477 425.427 868.358 426.236 868.119 426.907C867.881 427.575 867.536 428.084 867.084 428.437C866.632 428.786 866.085 428.961 865.443 428.961ZM865.443 428.023C866.08 428.023 866.574 427.717 866.926 427.103C867.279 426.489 867.455 425.614 867.455 424.478C867.455 423.722 867.374 423.079 867.212 422.548C867.053 422.016 866.823 421.611 866.521 421.333C866.223 421.055 865.864 420.915 865.443 420.915C864.813 420.915 864.32 421.226 863.965 421.849C863.61 422.468 863.432 423.344 863.432 424.478C863.432 425.234 863.512 425.876 863.671 426.404C863.83 426.932 864.058 427.334 864.357 427.61C864.658 427.886 865.02 428.023 865.443 428.023ZM873.165 420.114V428.842H872.108V421.222H872.057L869.926 422.637V421.563L872.108 420.114H873.165ZM875.948 428.842L879.851 421.12V421.052H875.351V420.114H880.942V421.103L877.056 428.842H875.948Z" fill="white"/>
<path d="M983.184 398.055V384.825" stroke="black"/>
<path d="M969.47 428.842V428.075L972.35 424.921C972.689 424.552 972.967 424.231 973.186 423.958C973.404 423.682 973.566 423.424 973.672 423.182C973.779 422.938 973.833 422.682 973.833 422.415C973.833 422.109 973.76 421.843 973.612 421.619C973.467 421.394 973.268 421.221 973.015 421.099C972.762 420.976 972.478 420.915 972.163 420.915C971.828 420.915 971.535 420.985 971.285 421.124C971.038 421.261 970.846 421.452 970.71 421.7C970.576 421.947 970.51 422.236 970.51 422.569H969.504C969.504 422.057 969.622 421.609 969.858 421.222C970.093 420.836 970.414 420.535 970.821 420.319C971.23 420.103 971.689 419.995 972.197 419.995C972.708 419.995 973.162 420.103 973.556 420.319C973.951 420.535 974.261 420.826 974.485 421.192C974.71 421.559 974.822 421.967 974.822 422.415C974.822 422.736 974.764 423.05 974.647 423.357C974.534 423.661 974.335 424.001 974.051 424.376C973.77 424.748 973.379 425.202 972.879 425.739L970.919 427.836V427.904H974.975V428.842H969.47ZM979.582 428.961C978.94 428.961 978.393 428.786 977.941 428.437C977.49 428.084 977.145 427.575 976.906 426.907C976.667 426.236 976.548 425.427 976.548 424.478C976.548 423.535 976.667 422.729 976.906 422.062C977.147 421.391 977.494 420.88 977.946 420.528C978.4 420.173 978.946 419.995 979.582 419.995C980.218 419.995 980.762 420.173 981.214 420.528C981.669 420.88 982.015 421.391 982.254 422.062C982.495 422.729 982.616 423.535 982.616 424.478C982.616 425.427 982.497 426.236 982.258 426.907C982.02 427.575 981.674 428.084 981.223 428.437C980.771 428.786 980.224 428.961 979.582 428.961ZM979.582 428.023C980.218 428.023 980.713 427.717 981.065 427.103C981.417 426.489 981.593 425.614 981.593 424.478C981.593 423.722 981.512 423.079 981.35 422.548C981.191 422.016 980.961 421.611 980.66 421.333C980.362 421.055 980.002 420.915 979.582 420.915C978.951 420.915 978.458 421.226 978.103 421.849C977.748 422.468 977.571 423.344 977.571 424.478C977.571 425.234 977.65 425.876 977.809 426.404C977.968 426.932 978.197 427.334 978.495 427.61C978.797 427.886 979.159 428.023 979.582 428.023ZM987.304 420.114V428.842H986.247V421.222H986.196L984.065 422.637V421.563L986.247 420.114H987.304ZM992.711 428.961C992.353 428.955 991.995 428.887 991.637 428.756C991.279 428.626 990.953 428.405 990.657 428.096C990.362 427.783 990.125 427.361 989.946 426.83C989.767 426.296 989.677 425.626 989.677 424.819C989.677 424.046 989.75 423.361 989.895 422.765C990.039 422.165 990.25 421.661 990.525 421.252C990.801 420.84 991.133 420.528 991.522 420.315C991.914 420.101 992.356 419.995 992.848 419.995C993.336 419.995 993.771 420.093 994.152 420.289C994.535 420.482 994.848 420.752 995.089 421.099C995.331 421.445 995.487 421.844 995.558 422.296H994.518C994.422 421.904 994.234 421.579 993.956 421.32C993.677 421.062 993.308 420.932 992.848 420.932C992.172 420.932 991.639 421.226 991.25 421.815C990.863 422.403 990.669 423.228 990.666 424.29H990.734C990.893 424.049 991.082 423.843 991.301 423.673C991.522 423.499 991.767 423.366 992.034 423.272C992.301 423.178 992.583 423.131 992.882 423.131C993.382 423.131 993.839 423.256 994.254 423.506C994.669 423.753 995.001 424.096 995.251 424.533C995.501 424.968 995.626 425.467 995.626 426.029C995.626 426.569 995.505 427.063 995.264 427.512C995.022 427.958 994.683 428.313 994.245 428.577C993.811 428.839 993.299 428.967 992.711 428.961ZM992.711 428.023C993.069 428.023 993.39 427.934 993.674 427.755C993.961 427.576 994.187 427.336 994.352 427.035C994.52 426.734 994.603 426.398 994.603 426.029C994.603 425.668 994.522 425.34 994.36 425.045C994.201 424.746 993.981 424.509 993.7 424.333C993.422 424.157 993.103 424.069 992.745 424.069C992.475 424.069 992.224 424.123 991.991 424.231C991.758 424.336 991.554 424.481 991.377 424.665C991.204 424.85 991.068 425.062 990.968 425.3C990.869 425.536 990.819 425.785 990.819 426.046C990.819 426.393 990.9 426.717 991.062 427.018C991.227 427.319 991.451 427.562 991.735 427.746C992.022 427.931 992.348 428.023 992.711 428.023Z" fill="white"/>
<path d="M1097.68 398.055V384.825" stroke="black"/>
<path d="M1084.1 428.842V428.075L1086.98 424.921C1087.32 424.552 1087.6 424.231 1087.82 423.958C1088.04 423.682 1088.2 423.424 1088.3 423.182C1088.41 422.938 1088.47 422.682 1088.47 422.415C1088.47 422.109 1088.39 421.843 1088.25 421.619C1088.1 421.394 1087.9 421.221 1087.65 421.099C1087.4 420.976 1087.11 420.915 1086.8 420.915C1086.46 420.915 1086.17 420.985 1085.92 421.124C1085.67 421.261 1085.48 421.452 1085.34 421.7C1085.21 421.947 1085.14 422.236 1085.14 422.569H1084.14C1084.14 422.057 1084.26 421.609 1084.49 421.222C1084.73 420.836 1085.05 420.535 1085.45 420.319C1085.86 420.103 1086.32 419.995 1086.83 419.995C1087.34 419.995 1087.79 420.103 1088.19 420.319C1088.58 420.535 1088.89 420.826 1089.12 421.192C1089.34 421.559 1089.46 421.967 1089.46 422.415C1089.46 422.736 1089.4 423.05 1089.28 423.357C1089.17 423.661 1088.97 424.001 1088.68 424.376C1088.4 424.748 1088.01 425.202 1087.51 425.739L1085.55 427.836V427.904H1089.61V428.842H1084.1ZM1094.22 428.961C1093.57 428.961 1093.03 428.786 1092.57 428.437C1092.12 428.084 1091.78 427.575 1091.54 426.907C1091.3 426.236 1091.18 425.427 1091.18 424.478C1091.18 423.535 1091.3 422.729 1091.54 422.062C1091.78 421.391 1092.13 420.88 1092.58 420.528C1093.03 420.173 1093.58 419.995 1094.22 419.995C1094.85 419.995 1095.4 420.173 1095.85 420.528C1096.3 420.88 1096.65 421.391 1096.89 422.062C1097.13 422.729 1097.25 423.535 1097.25 424.478C1097.25 425.427 1097.13 426.236 1096.89 426.907C1096.65 427.575 1096.31 428.084 1095.86 428.437C1095.4 428.786 1094.86 428.961 1094.22 428.961ZM1094.22 428.023C1094.85 428.023 1095.35 427.717 1095.7 427.103C1096.05 426.489 1096.23 425.614 1096.23 424.478C1096.23 423.722 1096.15 423.079 1095.98 422.548C1095.82 422.016 1095.59 421.611 1095.29 421.333C1095 421.055 1094.64 420.915 1094.22 420.915C1093.58 420.915 1093.09 421.226 1092.74 421.849C1092.38 422.468 1092.2 423.344 1092.2 424.478C1092.2 425.234 1092.28 425.876 1092.44 426.404C1092.6 426.932 1092.83 427.334 1093.13 427.61C1093.43 427.886 1093.79 428.023 1094.22 428.023ZM1101.94 420.114V428.842H1100.88V421.222H1100.83L1098.7 422.637V421.563L1100.88 420.114H1101.94ZM1107.17 428.961C1106.67 428.961 1106.22 428.861 1105.82 428.663C1105.42 428.464 1105.1 428.191 1104.86 427.844C1104.62 427.498 1104.49 427.103 1104.46 426.66H1105.49C1105.53 427.055 1105.71 427.381 1106.02 427.64C1106.34 427.896 1106.73 428.023 1107.17 428.023C1107.53 428.023 1107.85 427.94 1108.13 427.772C1108.41 427.604 1108.63 427.374 1108.79 427.082C1108.95 426.786 1109.03 426.452 1109.03 426.08C1109.03 425.7 1108.95 425.36 1108.78 425.062C1108.62 424.761 1108.39 424.523 1108.1 424.35C1107.81 424.177 1107.48 424.089 1107.11 424.086C1106.84 424.083 1106.56 424.124 1106.28 424.209C1106 424.292 1105.77 424.398 1105.59 424.529L1104.6 424.41L1105.13 420.114H1109.66V421.052H1106.02L1105.71 423.626H1105.76C1105.94 423.484 1106.16 423.366 1106.43 423.272C1106.7 423.178 1106.98 423.131 1107.28 423.131C1107.81 423.131 1108.29 423.259 1108.7 423.515C1109.12 423.768 1109.45 424.114 1109.69 424.555C1109.93 424.995 1110.05 425.498 1110.05 426.063C1110.05 426.62 1109.93 427.117 1109.68 427.555C1109.43 427.989 1109.09 428.333 1108.66 428.586C1108.22 428.836 1107.73 428.961 1107.17 428.961Z" fill="white"/>
<path d="M1212.18 398.055V384.825" stroke="black"/>
<path d="M1198.9 428.842V428.075L1201.78 424.921C1202.12 424.552 1202.4 424.231 1202.62 423.958C1202.84 423.682 1203 423.424 1203.1 423.182C1203.21 422.938 1203.26 422.682 1203.26 422.415C1203.26 422.109 1203.19 421.843 1203.04 421.619C1202.9 421.394 1202.7 421.221 1202.45 421.099C1202.19 420.976 1201.91 420.915 1201.59 420.915C1201.26 420.915 1200.97 420.985 1200.72 421.124C1200.47 421.261 1200.28 421.452 1200.14 421.7C1200.01 421.947 1199.94 422.236 1199.94 422.569H1198.94C1198.94 422.057 1199.05 421.609 1199.29 421.222C1199.52 420.836 1199.85 420.535 1200.25 420.319C1200.66 420.103 1201.12 419.995 1201.63 419.995C1202.14 419.995 1202.59 420.103 1202.99 420.319C1203.38 420.535 1203.69 420.826 1203.92 421.192C1204.14 421.559 1204.25 421.967 1204.25 422.415C1204.25 422.736 1204.2 423.05 1204.08 423.357C1203.96 423.661 1203.77 424.001 1203.48 424.376C1203.2 424.748 1202.81 425.202 1202.31 425.739L1200.35 427.836V427.904H1204.41V428.842H1198.9ZM1209.01 428.961C1208.37 428.961 1207.82 428.786 1207.37 428.437C1206.92 428.084 1206.58 427.575 1206.34 426.907C1206.1 426.236 1205.98 425.427 1205.98 424.478C1205.98 423.535 1206.1 422.729 1206.34 422.062C1206.58 421.391 1206.93 420.88 1207.38 420.528C1207.83 420.173 1208.38 419.995 1209.01 419.995C1209.65 419.995 1210.19 420.173 1210.65 420.528C1211.1 420.88 1211.45 421.391 1211.69 422.062C1211.93 422.729 1212.05 423.535 1212.05 424.478C1212.05 425.427 1211.93 426.236 1211.69 426.907C1211.45 427.575 1211.11 428.084 1210.65 428.437C1210.2 428.786 1209.66 428.961 1209.01 428.961ZM1209.01 428.023C1209.65 428.023 1210.14 427.717 1210.5 427.103C1210.85 426.489 1211.02 425.614 1211.02 424.478C1211.02 423.722 1210.94 423.079 1210.78 422.548C1210.62 422.016 1210.39 421.611 1210.09 421.333C1209.79 421.055 1209.43 420.915 1209.01 420.915C1208.38 420.915 1207.89 421.226 1207.53 421.849C1207.18 422.468 1207 423.344 1207 424.478C1207 425.234 1207.08 425.876 1207.24 426.404C1207.4 426.932 1207.63 427.334 1207.93 427.61C1208.23 427.886 1208.59 428.023 1209.01 428.023ZM1216.73 420.114V428.842H1215.68V421.222H1215.63L1213.5 422.637V421.563L1215.68 420.114H1216.73ZM1219.04 427.052V426.182L1222.88 420.114H1223.51V421.461H1223.08L1220.18 426.046V426.114H1225.35V427.052H1219.04ZM1223.15 428.842V426.788V426.383V420.114H1224.15V428.842H1223.15Z" fill="white"/>
<path d="M124.454 32.0249V384.825" stroke="black"/>
<path d="M112.965 384.825H124.453" stroke="black"/>
<path d="M99.6421 379.878C99 379.878 98.4532 379.703 98.0014 379.353C97.5497 379.001 97.2046 378.491 96.9659 377.824C96.7273 377.153 96.608 376.344 96.608 375.395C96.608 374.451 96.7273 373.646 96.9659 372.978C97.2074 372.308 97.554 371.797 98.0057 371.444C98.4603 371.089 99.0057 370.912 99.6421 370.912C100.278 370.912 100.822 371.089 101.274 371.444C101.729 371.797 102.075 372.308 102.314 372.978C102.555 373.646 102.676 374.451 102.676 375.395C102.676 376.344 102.557 377.153 102.318 377.824C102.08 378.491 101.734 379.001 101.283 379.353C100.831 379.703 100.284 379.878 99.6421 379.878ZM99.6421 378.94C100.278 378.94 100.773 378.633 101.125 378.02C101.477 377.406 101.653 376.531 101.653 375.395C101.653 374.639 101.572 373.996 101.411 373.464C101.251 372.933 101.021 372.528 100.72 372.25C100.422 371.971 100.063 371.832 99.6421 371.832C99.0114 371.832 98.5185 372.143 98.1634 372.765C97.8083 373.385 97.6307 374.261 97.6307 375.395C97.6307 376.15 97.7103 376.792 97.8693 377.321C98.0284 377.849 98.2571 378.251 98.5554 378.527C98.8566 378.802 99.2188 378.94 99.6421 378.94Z" fill="white"/>
<path d="M112.965 296.625H124.453" stroke="black"/>
<path d="M82.9789 291.558V290.791L85.8596 287.638C86.1977 287.269 86.4761 286.948 86.6948 286.675C86.9136 286.399 87.0755 286.141 87.1806 285.899C87.2886 285.655 87.3426 285.399 87.3426 285.132C87.3426 284.825 87.2687 284.56 87.121 284.335C86.9761 284.111 86.7772 283.938 86.5244 283.815C86.2715 283.693 85.9874 283.632 85.6721 283.632C85.3369 283.632 85.0443 283.702 84.7943 283.841C84.5471 283.977 84.3553 284.169 84.219 284.416C84.0855 284.663 84.0187 284.953 84.0187 285.286H83.013C83.013 284.774 83.1309 284.325 83.3667 283.939C83.6025 283.553 83.9235 283.252 84.3298 283.036C84.7389 282.82 85.1977 282.712 85.7062 282.712C86.2176 282.712 86.6707 282.82 87.0656 283.036C87.4605 283.252 87.7701 283.543 87.9945 283.909C88.219 284.276 88.3312 284.683 88.3312 285.132C88.3312 285.453 88.273 285.767 88.1565 286.074C88.0428 286.378 87.844 286.717 87.5599 287.092C87.2786 287.465 86.888 287.919 86.388 288.456L84.4278 290.553V290.621H88.4846V291.558H82.9789ZM92.9718 291.678C92.4718 291.678 92.0215 291.578 91.621 291.379C91.2204 291.181 90.8994 290.908 90.6579 290.561C90.4164 290.215 90.2843 289.82 90.2616 289.377H91.2843C91.3241 289.771 91.5031 290.098 91.8213 290.357C92.1423 290.612 92.5258 290.74 92.9718 290.74C93.3298 290.74 93.648 290.656 93.9264 290.489C94.2076 290.321 94.4278 290.091 94.5869 289.798C94.7488 289.503 94.8298 289.169 94.8298 288.797C94.8298 288.416 94.746 288.077 94.5784 287.779C94.4136 287.477 94.1863 287.24 93.8965 287.067C93.6068 286.894 93.2758 286.806 92.9036 286.803C92.6366 286.8 92.3624 286.841 92.0812 286.926C91.7999 287.009 91.5684 287.115 91.3866 287.246L90.398 287.127L90.9264 282.831H95.4605V283.769H91.8127L91.5059 286.342H91.557C91.736 286.2 91.9605 286.082 92.2303 285.989C92.5002 285.895 92.7815 285.848 93.0741 285.848C93.6082 285.848 94.084 285.976 94.5016 286.232C94.9221 286.484 95.2516 286.831 95.4903 287.271C95.7318 287.712 95.8525 288.215 95.8525 288.78C95.8525 289.337 95.7275 289.834 95.4775 290.271C95.2303 290.706 94.8894 291.05 94.4548 291.303C94.0201 291.553 93.5258 291.678 92.9718 291.678ZM97.6987 291.558V282.831H98.7556V290.621H102.812V291.558H97.6987Z" fill="white"/>
<path d="M112.965 208.425H124.453" stroke="black"/>
<path d="M85.4718 203.478C84.9718 203.478 84.5215 203.378 84.121 203.179C83.7204 202.981 83.3994 202.708 83.1579 202.361C82.9164 202.015 82.7843 201.62 82.7616 201.177H83.7843C83.8241 201.571 84.0031 201.898 84.3213 202.157C84.6423 202.412 85.0258 202.54 85.4718 202.54C85.8298 202.54 86.148 202.456 86.4264 202.289C86.7076 202.121 86.9278 201.891 87.0869 201.598C87.2488 201.303 87.3298 200.969 87.3298 200.597C87.3298 200.216 87.246 199.877 87.0784 199.579C86.9136 199.277 86.6863 199.04 86.3965 198.867C86.1068 198.694 85.7758 198.606 85.4036 198.603C85.1366 198.6 84.8624 198.641 84.5812 198.726C84.2999 198.809 84.0684 198.915 83.8866 199.046L82.898 198.927L83.4264 194.631H87.9605V195.569H84.3127L84.0059 198.142H84.057C84.236 198 84.4605 197.883 84.7303 197.789C85.0002 197.695 85.2815 197.648 85.5741 197.648C86.1082 197.648 86.584 197.776 87.0016 198.032C87.4221 198.285 87.7516 198.631 87.9903 199.071C88.2318 199.512 88.3525 200.015 88.3525 200.58C88.3525 201.137 88.2275 201.634 87.9775 202.071C87.7303 202.506 87.3894 202.85 86.9548 203.103C86.5201 203.353 86.0258 203.478 85.4718 203.478ZM92.8919 203.478C92.2499 203.478 91.703 203.303 91.2513 202.954C90.7996 202.601 90.4544 202.091 90.2158 201.424C89.9771 200.753 89.8578 199.944 89.8578 198.995C89.8578 198.052 89.9771 197.246 90.2158 196.579C90.4573 195.908 90.8039 195.397 91.2556 195.044C91.7101 194.689 92.2556 194.512 92.8919 194.512C93.5283 194.512 94.0723 194.689 94.524 195.044C94.9786 195.397 95.3252 195.908 95.5638 196.579C95.8053 197.246 95.926 198.052 95.926 198.995C95.926 199.944 95.8067 200.753 95.5681 201.424C95.3294 202.091 94.9842 202.601 94.5325 202.954C94.0808 203.303 93.534 203.478 92.8919 203.478ZM92.8919 202.54C93.5283 202.54 94.0226 202.233 94.3749 201.62C94.7271 201.006 94.9033 200.131 94.9033 198.995C94.9033 198.239 94.8223 197.596 94.6604 197.064C94.5013 196.533 94.2712 196.128 93.97 195.85C93.6717 195.571 93.3124 195.432 92.8919 195.432C92.2612 195.432 91.7683 195.743 91.4132 196.366C91.0581 196.985 90.8806 197.861 90.8806 198.995C90.8806 199.75 90.9601 200.392 91.1192 200.921C91.2783 201.449 91.507 201.851 91.8053 202.127C92.1064 202.402 92.4686 202.54 92.8919 202.54ZM97.6987 203.358V194.631H98.7556V202.421H102.812V203.358H97.6987Z" fill="white"/>
<path d="M112.966 120.225H124.454" stroke="black"/>
<path d="M83.7794 115.158L87.6828 107.437V107.368H83.1828V106.431H88.7737V107.42L84.8873 115.158H83.7794ZM92.9722 115.278C92.4722 115.278 92.0219 115.178 91.6213 114.979C91.2208 114.78 90.8997 114.508 90.6583 114.161C90.4168 113.814 90.2847 113.42 90.262 112.976H91.2847C91.3245 113.371 91.5034 113.698 91.8216 113.956C92.1426 114.212 92.5262 114.34 92.9722 114.34C93.3301 114.34 93.6483 114.256 93.9267 114.089C94.208 113.921 94.4282 113.691 94.5872 113.398C94.7492 113.103 94.8301 112.769 94.8301 112.397C94.8301 112.016 94.7463 111.677 94.5787 111.378C94.4139 111.077 94.1867 110.84 93.8969 110.667C93.6071 110.493 93.2762 110.405 92.904 110.403C92.637 110.4 92.3628 110.441 92.0816 110.526C91.8003 110.608 91.5688 110.715 91.387 110.846L90.3983 110.726L90.9267 106.431H95.4608V107.368H91.8131L91.5063 109.942H91.5574C91.7364 109.8 91.9608 109.682 92.2307 109.589C92.5006 109.495 92.7818 109.448 93.0745 109.448C93.6085 109.448 94.0844 109.576 94.502 109.831C94.9225 110.084 95.252 110.431 95.4907 110.871C95.7321 111.312 95.8529 111.814 95.8529 112.38C95.8529 112.937 95.7279 113.434 95.4779 113.871C95.2307 114.306 94.8898 114.65 94.4551 114.903C94.0205 115.153 93.5262 115.278 92.9722 115.278ZM97.6991 115.158V106.431H98.7559V114.221H102.813V115.158H97.6991Z" fill="white"/>
<path d="M112.965 32.0249H124.453" stroke="black"/>
<path d="M82.6606 27.4817V36.209H81.6038V28.5897H81.5527L79.422 30.0044V28.9306L81.6038 27.4817H82.6606ZM95.7217 30.209H94.6649C94.6024 29.905 94.493 29.638 94.3367 29.4078C94.1833 29.1777 93.9958 28.9846 93.7742 28.8283C93.5555 28.6692 93.3126 28.5499 93.0456 28.4703C92.7785 28.3908 92.5001 28.351 92.2103 28.351C91.6819 28.351 91.2032 28.4846 90.7742 28.7516C90.3481 29.0186 90.0086 29.4121 89.7558 29.932C89.5058 30.4519 89.3808 31.0897 89.3808 31.8453C89.3808 32.601 89.5058 33.2388 89.7558 33.7587C90.0086 34.2786 90.3481 34.6721 90.7742 34.9391C91.2032 35.2061 91.6819 35.3397 92.2103 35.3397C92.5001 35.3397 92.7785 35.2999 93.0456 35.2203C93.3126 35.1408 93.5555 35.0229 93.7742 34.8667C93.9958 34.7076 94.1833 34.513 94.3367 34.2828C94.493 34.0499 94.6024 33.7828 94.6649 33.4817H95.7217C95.6421 33.9277 95.4973 34.3269 95.287 34.6792C95.0768 35.0314 94.8154 35.3311 94.5029 35.5783C94.1904 35.8226 93.8396 36.0087 93.4504 36.1365C93.064 36.2644 92.6507 36.3283 92.2103 36.3283C91.466 36.3283 90.8041 36.1465 90.2245 35.7828C89.645 35.4192 89.189 34.9022 88.8566 34.2317C88.5242 33.5613 88.3581 32.7658 88.3581 31.8453C88.3581 30.9249 88.5242 30.1294 88.8566 29.459C89.189 28.7885 89.645 28.2715 90.2245 27.9078C90.8041 27.5442 91.466 27.3624 92.2103 27.3624C92.6507 27.3624 93.064 27.4263 93.4504 27.5542C93.8396 27.682 94.1904 27.8695 94.5029 28.1167C94.8154 28.361 95.0768 28.6593 95.287 29.0115C95.4973 29.361 95.6421 29.7601 95.7217 30.209ZM97.2931 36.209V29.6635H98.2647V30.6522H98.3328C98.4522 30.3283 98.6681 30.0655 98.9806 29.8638C99.2931 29.6621 99.6453 29.5613 100.037 29.5613C100.111 29.5613 100.204 29.5627 100.314 29.5655C100.425 29.5684 100.509 29.5726 100.566 29.5783V30.601C100.532 30.5925 100.454 30.5797 100.331 30.5627C100.212 30.5428 100.086 30.5328 99.9522 30.5328C99.634 30.5328 99.3499 30.5996 99.0999 30.7331C98.8527 30.8638 98.6567 31.0456 98.5118 31.2786C98.3698 31.5087 98.2988 31.7715 98.2988 32.0669V36.209H97.2931ZM101.741 36.2772C101.531 36.2772 101.35 36.2019 101.2 36.0513C101.049 35.9007 100.974 35.7203 100.974 35.5101C100.974 35.2999 101.049 35.1195 101.2 34.9689C101.35 34.8184 101.531 34.7431 101.741 34.7431C101.951 34.7431 102.131 34.8184 102.282 34.9689C102.433 35.1195 102.508 35.2999 102.508 35.5101C102.508 35.6493 102.472 35.7772 102.401 35.8936C102.333 36.0101 102.241 36.1039 102.124 36.1749C102.011 36.2431 101.883 36.2772 101.741 36.2772Z" fill="white"/>
<path d="M124.454 384.825H1269.43" stroke="#CCCCCC"/>
<path d="M124.454 296.625H1269.43" stroke="#CCCCCC"/>
<path d="M124.454 208.425H1269.43" stroke="#CCCCCC"/>
<path d="M124.454 120.225H1269.43" stroke="#CCCCCC"/>
<path d="M124.454 32.0249H1269.43" stroke="#CCCCCC"/>
<path d="M181.702 32.0249V384.825" stroke="#CCCCCC"/>
<path d="M296.2 32.0249V384.825" stroke="#CCCCCC"/>
<path d="M410.697 32.0249V384.825" stroke="#CCCCCC"/>
<path d="M525.194 32.0249V384.825" stroke="#CCCCCC"/>
<path d="M639.691 32.0249V384.825" stroke="#CCCCCC"/>
<path d="M754.189 32.0249V384.825" stroke="#CCCCCC"/>
<path d="M868.686 32.0249V384.825" stroke="#CCCCCC"/>
<path d="M983.184 32.0249V384.825" stroke="#CCCCCC"/>
<path d="M1097.68 32.0249V384.825" stroke="#CCCCCC"/>
<path d="M1212.18 32.0249V384.825" stroke="#CCCCCC"/>
<path d="M124.454 32.0249V384.825" stroke="#CCCCCC"/>
<path d="M1269.43 32.0249V384.825" stroke="#CCCCCC"/>
<path d="M135.903 346H176.111V384.825H135.903V346Z" fill="#F9EEF6"/>
<path d="M250.4 260H290.608V384.825H250.4V260Z" fill="#F9EEF6"/>
<path d="M364.898 214.775H405.106V384.825H364.898V214.775Z" fill="#F9EEF6"/>
<path d="M479 313H520V385H479V313Z" fill="#F9EEF6"/>
<path d="M593.893 342.136H634.101V384.825H593.893V342.136Z" fill="#F9EEF6"/>
<path d="M708.39 270H748.598V384.825H708.39V270Z" fill="#F9EEF6"/>
<path d="M822.887 361.54H863.095V384.825H822.887V361.54Z" fill="#F9EEF6"/>
<path d="M937.384 192.196H977.592V384.825H937.384V192.196Z" fill="#F9EEF6"/>
<path d="M1051.88 138.218H1092.09V384.825H1051.88V138.218Z" fill="#F9EEF6"/>
<path d="M1166.38 209.483H1206.59V384.825H1166.38V209.483Z" fill="#F9EEF6"/>
<path d="M183.77 382.355H223.978V384.825H183.77V382.355Z" fill="#D5ECF5"/>
<path d="M298.267 346.37H338.475V384.825H298.267V346.37Z" fill="#D5ECF5"/>
<path d="M412.765 362H452.973V384.825H412.765V362Z" fill="#D5ECF5"/>
<path d="M527.262 346.017H567.47V384.825H527.262V346.017Z" fill="#D5ECF5"/>
<path d="M641.759 350.251H681.967V384.825H641.759V350.251Z" fill="#D5ECF5"/>
<path d="M756.256 100.468H796.464V384.825H756.256V100.468Z" fill="#D5ECF5"/>
<path d="M870.754 372.124H910.962V384.825H870.754V372.124Z" fill="#D5ECF5"/>
<path d="M985.251 37.6699H1025.46V384.825H985.251V37.6699Z" fill="#D5ECF5"/>
<path d="M1099.75 120.225H1139.96V384.825H1099.75V120.225Z" fill="#D5ECF5"/>
<path d="M1214.25 221.832H1254.45V384.825H1214.25V221.832Z" fill="#D5ECF5"/>
<path d="M52.718 259.226C51.494 259.226 50.396 258.95 49.424 258.398C48.44 257.846 47.672 257.096 47.12 256.148C46.568 255.188 46.292 254.126 46.292 252.962C46.292 251.594 46.622 250.4 47.282 249.38C47.942 248.36 48.878 247.616 50.09 247.148L50.09 249.11C49.334 249.458 48.752 249.962 48.344 250.622C47.936 251.27 47.732 252.05 47.732 252.962C47.732 253.838 47.936 254.624 48.344 255.32C48.752 256.016 49.334 256.562 50.09 256.958C50.834 257.354 51.71 257.552 52.718 257.552C53.714 257.552 54.59 257.354 55.346 256.958C56.09 256.562 56.666 256.016 57.074 255.32C57.482 254.624 57.686 253.838 57.686 252.962C57.686 252.05 57.488 251.27 57.092 250.622C56.684 249.962 56.102 249.458 55.346 249.11L55.346 247.148C56.546 247.616 57.476 248.36 58.136 249.38C58.784 250.4 59.108 251.594 59.108 252.962C59.108 254.126 58.838 255.188 58.298 256.148C57.746 257.096 56.984 257.846 56.012 258.398C55.04 258.95 53.942 259.226 52.718 259.226ZM54.032 245.322C53.024 245.322 52.142 245.118 51.386 244.71C50.618 244.302 50.024 243.744 49.604 243.036C49.184 242.316 48.974 241.518 48.974 240.642C48.974 239.778 49.16 239.028 49.532 238.392C49.904 237.756 50.372 237.282 50.936 236.97L49.136 236.97L49.136 235.314L59 235.314L59 236.97L57.164 236.97C57.74 237.294 58.22 237.78 58.604 238.428C58.976 239.064 59.162 239.808 59.162 240.66C59.162 241.536 58.946 242.328 58.514 243.036C58.082 243.744 57.476 244.302 56.696 244.71C55.916 245.118 55.028 245.322 54.032 245.322ZM54.05 236.97C53.306 236.97 52.658 237.12 52.106 237.42C51.554 237.72 51.134 238.128 50.846 238.644C50.546 239.148 50.396 239.706 50.396 240.318C50.396 240.93 50.54 241.488 50.828 241.992C51.116 242.496 51.536 242.898 52.088 243.198C52.64 243.498 53.288 243.648 54.032 243.648C54.788 243.648 55.448 243.498 56.012 243.198C56.564 242.898 56.99 242.496 57.29 241.992C57.578 241.488 57.722 240.93 57.722 240.318C57.722 239.706 57.578 239.148 57.29 238.644C56.99 238.128 56.564 237.72 56.012 237.42C55.448 237.12 54.794 236.97 54.05 236.97ZM59.162 229.054C59.162 229.81 59.036 230.488 58.784 231.088C58.52 231.688 58.16 232.162 57.704 232.51C57.236 232.858 56.702 233.05 56.102 233.086L56.102 231.394C56.594 231.346 56.996 231.118 57.308 230.71C57.62 230.29 57.776 229.744 57.776 229.072C57.776 228.448 57.638 227.956 57.362 227.596C57.086 227.236 56.738 227.056 56.318 227.056C55.886 227.056 55.568 227.248 55.364 227.632C55.148 228.016 54.938 228.61 54.734 229.414C54.542 230.146 54.35 230.746 54.158 231.214C53.954 231.67 53.66 232.066 53.276 232.402C52.88 232.726 52.364 232.888 51.728 232.888C51.224 232.888 50.762 232.738 50.342 232.438C49.922 232.138 49.592 231.712 49.352 231.16C49.1 230.608 48.974 229.978 48.974 229.27C48.974 228.178 49.25 227.296 49.802 226.624C50.354 225.952 51.11 225.592 52.07 225.544L52.07 227.182C51.554 227.218 51.14 227.428 50.828 227.812C50.516 228.184 50.36 228.688 50.36 229.324C50.36 229.912 50.486 230.38 50.738 230.728C50.99 231.076 51.32 231.25 51.728 231.25C52.052 231.25 52.322 231.148 52.538 230.944C52.742 230.728 52.91 230.464 53.042 230.152C53.162 229.828 53.3 229.384 53.456 228.82C53.648 228.112 53.84 227.536 54.032 227.092C54.212 226.648 54.488 226.27 54.86 225.958C55.232 225.634 55.718 225.466 56.318 225.454C56.858 225.454 57.344 225.604 57.776 225.904C58.208 226.204 58.55 226.63 58.802 227.182C59.042 227.722 59.162 228.346 59.162 229.054ZM53.69 214.141C54.002 214.141 54.332 214.159 54.68 214.195L54.68 222.079C55.652 222.019 56.414 221.689 56.966 221.089C57.506 220.477 57.776 219.739 57.776 218.875C57.776 218.167 57.614 217.579 57.29 217.111C56.954 216.631 56.51 216.295 55.958 216.103L55.958 214.339C56.906 214.603 57.68 215.131 58.28 215.923C58.868 216.715 59.162 217.699 59.162 218.875C59.162 219.811 58.952 220.651 58.532 221.395C58.112 222.127 57.518 222.703 56.75 223.123C55.97 223.543 55.07 223.753 54.05 223.753C53.03 223.753 52.136 223.549 51.368 223.141C50.6 222.733 50.012 222.163 49.604 221.431C49.184 220.687 48.974 219.835 48.974 218.875C48.974 217.939 49.178 217.111 49.586 216.391C49.994 215.671 50.558 215.119 51.278 214.735C51.986 214.339 52.79 214.141 53.69 214.141ZM53.348 215.833C52.724 215.833 52.19 215.971 51.746 216.247C51.29 216.523 50.948 216.901 50.72 217.381C50.48 217.849 50.36 218.371 50.36 218.947C50.36 219.775 50.624 220.483 51.152 221.071C51.68 221.647 52.412 221.977 53.348 222.061L53.348 215.833ZM59.162 208.487C59.162 209.243 59.036 209.921 58.784 210.521C58.52 211.121 58.16 211.595 57.704 211.943C57.236 212.291 56.702 212.483 56.102 212.519L56.102 210.827C56.594 210.779 56.996 210.551 57.308 210.143C57.62 209.723 57.776 209.177 57.776 208.505C57.776 207.881 57.638 207.389 57.362 207.029C57.086 206.669 56.738 206.489 56.318 206.489C55.886 206.489 55.568 206.681 55.364 207.065C55.148 207.449 54.938 208.043 54.734 208.847C54.542 209.579 54.35 210.179 54.158 210.647C53.954 211.103 53.66 211.499 53.276 211.835C52.88 212.159 52.364 212.321 51.728 212.321C51.224 212.321 50.762 212.171 50.342 211.871C49.922 211.571 49.592 211.145 49.352 210.593C49.1 210.041 48.974 209.411 48.974 208.703C48.974 207.611 49.25 206.729 49.802 206.057C50.354 205.385 51.11 205.025 52.07 204.977L52.07 206.615C51.554 206.651 51.14 206.861 50.828 207.245C50.516 207.617 50.36 208.121 50.36 208.757C50.36 209.345 50.486 209.813 50.738 210.161C50.99 210.509 51.32 210.683 51.728 210.683C52.052 210.683 52.322 210.581 52.538 210.377C52.742 210.161 52.91 209.897 53.042 209.585C53.162 209.261 53.3 208.817 53.456 208.253C53.648 207.545 53.84 206.969 54.032 206.525C54.212 206.081 54.488 205.703 54.86 205.391C55.232 205.067 55.718 204.899 56.318 204.887C56.858 204.887 57.344 205.037 57.776 205.337C58.208 205.637 58.55 206.063 58.802 206.615C59.042 207.155 59.162 207.779 59.162 208.487ZM47.534 196.93C47.534 197.242 47.426 197.506 47.21 197.722C46.994 197.938 46.73 198.046 46.418 198.046C46.106 198.046 45.842 197.938 45.626 197.722C45.41 197.506 45.302 197.242 45.302 196.93C45.302 196.63 45.41 196.378 45.626 196.174C45.842 195.958 46.106 195.85 46.418 195.85C46.73 195.85 46.994 195.958 47.21 196.174C47.426 196.378 47.534 196.63 47.534 196.93ZM49.136 196.138L59 196.138L59 197.776L49.136 197.776L49.136 196.138ZM48.956 188.54C48.956 187.34 49.322 186.368 50.054 185.624C50.774 184.88 51.818 184.508 53.186 184.508L59 184.508L59 186.128L53.42 186.128C52.436 186.128 51.686 186.374 51.17 186.866C50.642 187.358 50.378 188.03 50.378 188.882C50.378 189.746 50.648 190.436 51.188 190.952C51.728 191.456 52.514 191.708 53.546 191.708L59 191.708L59 193.346L49.136 193.346L49.136 191.708L50.54 191.708C50.036 191.384 49.646 190.946 49.37 190.394C49.094 189.83 48.956 189.212 48.956 188.54ZM57.668 175.396L57.668 171.004L59 171.004L59 177.034L46.454 177.034L46.454 175.396L57.668 175.396ZM54.032 169.876C53.024 169.876 52.142 169.672 51.386 169.264C50.618 168.856 50.024 168.298 49.604 167.59C49.184 166.87 48.974 166.072 48.974 165.196C48.974 164.332 49.16 163.582 49.532 162.946C49.904 162.31 50.372 161.836 50.936 161.524L49.136 161.524L49.136 159.868L59 159.868L59 161.524L57.164 161.524C57.74 161.848 58.22 162.334 58.604 162.982C58.976 163.618 59.162 164.362 59.162 165.214C59.162 166.09 58.946 166.882 58.514 167.59C58.082 168.298 57.476 168.856 56.696 169.264C55.916 169.672 55.028 169.876 54.032 169.876ZM54.05 161.524C53.306 161.524 52.658 161.674 52.106 161.974C51.554 162.274 51.134 162.682 50.846 163.198C50.546 163.702 50.396 164.26 50.396 164.872C50.396 165.484 50.54 166.042 50.828 166.546C51.116 167.05 51.536 167.452 52.088 167.752C52.64 168.052 53.288 168.202 54.032 168.202C54.788 168.202 55.448 168.052 56.012 167.752C56.564 167.452 56.99 167.05 57.29 166.546C57.578 166.042 57.722 165.484 57.722 164.872C57.722 164.26 57.578 163.702 57.29 163.198C56.99 162.682 56.564 162.274 56.012 161.974C55.448 161.674 54.794 161.524 54.05 161.524ZM59 151.592L54.644 155.462L59 155.462L59 157.1L45.68 157.1L45.68 155.462L53.51 155.462L49.136 151.664L49.136 149.378L54.05 154.022L59 149.36L59 151.592ZM48.956 142.941C48.956 142.197 49.118 141.525 49.442 140.925C49.754 140.325 50.228 139.857 50.864 139.521C51.5 139.173 52.274 138.999 53.186 138.999L59 138.999L59 140.619L53.42 140.619C52.436 140.619 51.686 140.865 51.17 141.357C50.642 141.849 50.378 142.521 50.378 143.373C50.378 144.237 50.648 144.927 51.188 145.443C51.728 145.947 52.514 146.199 53.546 146.199L59 146.199L59 147.837L45.68 147.837L45.68 146.199L50.54 146.199C50.036 145.875 49.646 145.431 49.37 144.867C49.094 144.291 48.956 143.649 48.956 142.941ZM59.162 132.831C59.162 133.587 59.036 134.265 58.784 134.865C58.52 135.465 58.16 135.939 57.704 136.287C57.236 136.635 56.702 136.827 56.102 136.863L56.102 135.171C56.594 135.123 56.996 134.895 57.308 134.487C57.62 134.067 57.776 133.521 57.776 132.849C57.776 132.225 57.638 131.733 57.362 131.373C57.086 131.013 56.738 130.833 56.318 130.833C55.886 130.833 55.568 131.025 55.364 131.409C55.148 131.793 54.938 132.387 54.734 133.191C54.542 133.923 54.35 134.523 54.158 134.991C53.954 135.447 53.66 135.843 53.276 136.179C52.88 136.503 52.364 136.665 51.728 136.665C51.224 136.665 50.762 136.515 50.342 136.215C49.922 135.915 49.592 135.489 49.352 134.937C49.1 134.385 48.974 133.755 48.974 133.047C48.974 131.955 49.25 131.073 49.802 130.401C50.354 129.729 51.11 129.369 52.07 129.321L52.07 130.959C51.554 130.995 51.14 131.205 50.828 131.589C50.516 131.961 50.36 132.465 50.36 133.101C50.36 133.689 50.486 134.157 50.738 134.505C50.99 134.853 51.32 135.027 51.728 135.027C52.052 135.027 52.322 134.925 52.538 134.721C52.742 134.505 52.91 134.241 53.042 133.929C53.162 133.605 53.3 133.161 53.456 132.597C53.648 131.889 53.84 131.313 54.032 130.869C54.212 130.425 54.488 130.047 54.86 129.735C55.232 129.411 55.718 129.243 56.318 129.231C56.858 129.231 57.344 129.381 57.776 129.681C58.208 129.981 58.55 130.407 58.802 130.959C59.042 131.499 59.162 132.123 59.162 132.831Z" fill="white"/>
<path d="M633.17 455.454L629.084 463.266V468H627.446V463.266L623.342 455.454H625.16L628.256 461.808L631.352 455.454H633.17ZM643.898 462.69C643.898 463.002 643.88 463.332 643.844 463.68H635.96C636.02 464.652 636.35 465.414 636.95 465.966C637.562 466.506 638.3 466.776 639.164 466.776C639.872 466.776 640.46 466.614 640.928 466.29C641.408 465.954 641.744 465.51 641.936 464.958H643.7C643.436 465.906 642.908 466.68 642.116 467.28C641.324 467.868 640.34 468.162 639.164 468.162C638.228 468.162 637.388 467.952 636.644 467.532C635.912 467.112 635.336 466.518 634.916 465.75C634.496 464.97 634.286 464.07 634.286 463.05C634.286 462.03 634.49 461.136 634.898 460.368C635.306 459.6 635.876 459.012 636.608 458.604C637.352 458.184 638.204 457.974 639.164 457.974C640.1 457.974 640.928 458.178 641.648 458.586C642.368 458.994 642.92 459.558 643.304 460.278C643.7 460.986 643.898 461.79 643.898 462.69ZM642.206 462.348C642.206 461.724 642.068 461.19 641.792 460.746C641.516 460.29 641.138 459.948 640.658 459.72C640.19 459.48 639.668 459.36 639.092 459.36C638.264 459.36 637.556 459.624 636.968 460.152C636.392 460.68 636.062 461.412 635.978 462.348H642.206ZM645.448 463.032C645.448 462.024 645.652 461.142 646.06 460.386C646.468 459.618 647.026 459.024 647.734 458.604C648.454 458.184 649.252 457.974 650.128 457.974C650.992 457.974 651.742 458.16 652.378 458.532C653.014 458.904 653.488 459.372 653.8 459.936V458.136H655.456V468H653.8V466.164C653.476 466.74 652.99 467.22 652.342 467.604C651.706 467.976 650.962 468.162 650.11 468.162C649.234 468.162 648.442 467.946 647.734 467.514C647.026 467.082 646.468 466.476 646.06 465.696C645.652 464.916 645.448 464.028 645.448 463.032ZM653.8 463.05C653.8 462.306 653.65 461.658 653.35 461.106C653.05 460.554 652.642 460.134 652.126 459.846C651.622 459.546 651.064 459.396 650.452 459.396C649.84 459.396 649.282 459.54 648.778 459.828C648.274 460.116 647.872 460.536 647.572 461.088C647.272 461.64 647.122 462.288 647.122 463.032C647.122 463.788 647.272 464.448 647.572 465.012C647.872 465.564 648.274 465.99 648.778 466.29C649.282 466.578 649.84 466.722 650.452 466.722C651.064 466.722 651.622 466.578 652.126 466.29C652.642 465.99 653.05 465.564 653.35 465.012C653.65 464.448 653.8 463.794 653.8 463.05ZM659.862 459.738C660.15 459.174 660.558 458.736 661.086 458.424C661.626 458.112 662.28 457.956 663.048 457.956V459.648H662.616C660.78 459.648 659.862 460.644 659.862 462.636V468H658.224V458.136H659.862V459.738ZM668.431 468.162C667.675 468.162 666.997 468.036 666.397 467.784C665.797 467.52 665.323 467.16 664.975 466.704C664.627 466.236 664.435 465.702 664.399 465.102H666.091C666.139 465.594 666.367 465.996 666.775 466.308C667.195 466.62 667.741 466.776 668.413 466.776C669.037 466.776 669.529 466.638 669.889 466.362C670.249 466.086 670.429 465.738 670.429 465.318C670.429 464.886 670.237 464.568 669.853 464.364C669.469 464.148 668.875 463.938 668.071 463.734C667.339 463.542 666.739 463.35 666.271 463.158C665.815 462.954 665.419 462.66 665.083 462.276C664.759 461.88 664.597 461.364 664.597 460.728C664.597 460.224 664.747 459.762 665.047 459.342C665.347 458.922 665.773 458.592 666.325 458.352C666.877 458.1 667.507 457.974 668.215 457.974C669.307 457.974 670.189 458.25 670.861 458.802C671.533 459.354 671.893 460.11 671.941 461.07H670.303C670.267 460.554 670.057 460.14 669.673 459.828C669.301 459.516 668.797 459.36 668.161 459.36C667.573 459.36 667.105 459.486 666.757 459.738C666.409 459.99 666.235 460.32 666.235 460.728C666.235 461.052 666.337 461.322 666.541 461.538C666.757 461.742 667.021 461.91 667.333 462.042C667.657 462.162 668.101 462.3 668.665 462.456C669.373 462.648 669.949 462.84 670.393 463.032C670.837 463.212 671.215 463.488 671.527 463.86C671.851 464.232 672.019 464.718 672.031 465.318C672.031 465.858 671.881 466.344 671.581 466.776C671.281 467.208 670.855 467.55 670.303 467.802C669.763 468.042 669.139 468.162 668.431 468.162Z" fill="white"/>
</svg>
