<svg width="25" height="24" viewBox="0 0 25 24" fill="none" xmlns="http://www.w3.org/2000/svg">
<path d="M12.5252 2C7.00516 2 2.53516 6.48 2.53516 12C2.53516 17.52 7.00516 22 12.5252 22C18.0552 22 22.5352 17.52 22.5352 12C22.5352 6.48 18.0552 2 12.5252 2ZM19.4552 8H16.5052C16.1922 6.76146 15.7287 5.5659 15.1252 4.44C16.9493 5.068 18.4863 6.33172 19.4552 8ZM12.5352 4.04C13.3652 5.24 14.0152 6.57 14.4452 8H10.6252C11.0552 6.57 11.7052 5.24 12.5352 4.04ZM4.79516 14C4.63516 13.36 4.53516 12.69 4.53516 12C4.53516 11.31 4.63516 10.64 4.79516 10H8.17516C8.09516 10.66 8.03516 11.32 8.03516 12C8.03516 12.68 8.09516 13.34 8.17516 14H4.79516ZM5.61516 16H8.56516C8.88516 17.25 9.34516 18.45 9.94516 19.56C8.11912 18.9354 6.58099 17.6708 5.61516 16ZM8.56516 8H5.61516C6.58099 6.32918 8.11912 5.06457 9.94516 4.44C9.34158 5.5659 8.87813 6.76146 8.56516 8ZM12.5352 19.96C11.7052 18.76 11.0552 17.43 10.6252 16H14.4452C14.0152 17.43 13.3652 18.76 12.5352 19.96ZM14.8752 14H10.1952C10.1052 13.34 10.0352 12.68 10.0352 12C10.0352 11.32 10.1052 10.65 10.1952 10H14.8752C14.9652 10.65 15.0352 11.32 15.0352 12C15.0352 12.68 14.9652 13.34 14.8752 14ZM15.1252 19.56C15.7252 18.45 16.1852 17.25 16.5052 16H19.4552C18.4863 17.6683 16.9493 18.932 15.1252 19.56ZM16.8952 14C16.9752 13.34 17.0352 12.68 17.0352 12C17.0352 11.32 16.9752 10.66 16.8952 10H20.2752C20.4352 10.64 20.5352 11.31 20.5352 12C20.5352 12.69 20.4352 13.36 20.2752 14H16.8952Z" fill="black"/>
</svg>
