<svg width="24" height="24" viewBox="0 0 24 24" fill="none" xmlns="http://www.w3.org/2000/svg">
<path d="M4 18C3.45 18 2.97933 17.8043 2.588 17.413C2.196 17.021 2 16.55 2 16V5C2 4.45 2.196 3.979 2.588 3.587C2.97933 3.19567 3.45 3 4 3H20C20.55 3 21.021 3.19567 21.413 3.587C21.8043 3.979 22 4.45 22 5V16C22 16.55 21.8043 17.021 21.413 17.413C21.021 17.8043 20.55 18 20 18H4ZM4 16H20V5H4V16ZM2 21C1.71667 21 1.47933 20.904 1.288 20.712C1.096 20.5207 1 20.2833 1 20C1 19.7167 1.096 19.4793 1.288 19.288C1.47933 19.096 1.71667 19 2 19H22C22.2833 19 22.5207 19.096 22.712 19.288C22.904 19.4793 23 19.7167 23 20C23 20.2833 22.904 20.5207 22.712 20.712C22.5207 20.904 22.2833 21 22 21H2Z" fill="black"/>
<path d="M11.4739 7.03819C11.5599 7.07598 11.6335 7.14003 11.6853 7.22224C11.737 7.30446 11.7647 7.40114 11.7647 7.50005V13.4982C11.7649 13.5972 11.7374 13.694 11.6857 13.7763C11.634 13.8587 11.5604 13.9229 11.4743 13.9608C11.3882 13.9987 11.2935 14.0086 11.2021 13.9893C11.1107 13.9699 11.0268 13.9222 10.9609 13.8521L9.21694 11.9986H8.47059C8.34578 11.9986 8.22608 11.946 8.13783 11.8522C8.04958 11.7585 8 11.6314 8 11.4988V9.49943C8 9.36686 8.04958 9.23972 8.13783 9.14598C8.22608 9.05224 8.34578 8.99958 8.47059 8.99958H9.21694L10.9609 7.14616C11.0268 7.0763 11.1107 7.02875 11.202 7.00953C11.2933 6.99032 11.3879 7.00029 11.4739 7.03819ZM15.2 7.20014C15.3139 7.36209 15.4682 7.653 15.6169 8.07387C15.8569 8.75366 16 9.56341 16 10.4991C16 11.4348 15.8569 12.2436 15.6169 12.9244C15.4682 13.3452 15.3139 13.6361 15.2 13.7981C15.1298 13.8986 15.0266 13.9674 14.9109 13.991C14.7952 14.0146 14.6754 13.9913 14.5751 13.9256C14.4748 13.8599 14.4014 13.7566 14.3693 13.6362C14.3373 13.5158 14.3489 13.387 14.4019 13.2753L14.5111 13.0933C14.5994 12.9269 14.6746 12.753 14.736 12.5735C14.9365 12.0036 15.0588 11.3129 15.0588 10.4991C15.0588 9.68537 14.9365 8.99458 14.736 8.42576C14.6746 8.24621 14.5994 8.07234 14.5111 7.90592L14.4471 7.79996C14.3722 7.6939 14.34 7.56059 14.3577 7.42936C14.3753 7.29813 14.4413 7.17971 14.5412 7.10017C14.641 7.02063 14.7665 6.98648 14.8901 7.00523C15.0136 7.02398 15.1251 7.09409 15.2 7.20014ZM13.5972 8.27581C13.6659 8.42076 13.7619 8.66069 13.8579 8.96559C14.0198 9.48243 14.1176 10.0013 14.1176 10.4991C14.1176 10.998 14.0198 11.5168 13.8579 12.0316C13.7857 12.2675 13.6986 12.498 13.5972 12.7214C13.5707 12.7822 13.5331 12.8367 13.4865 12.8817C13.4398 12.9267 13.3851 12.9614 13.3257 12.9835C13.2662 13.0057 13.2031 13.0149 13.1402 13.0107C13.0773 13.0064 13.0159 12.9888 12.9595 12.9589C12.9031 12.9289 12.853 12.8873 12.8121 12.8364C12.7712 12.7855 12.7403 12.7264 12.7213 12.6625C12.7023 12.5987 12.6955 12.5315 12.7015 12.4648C12.7074 12.3982 12.7259 12.3335 12.7558 12.2746L12.8273 12.1066C12.8781 11.9782 12.9242 11.8479 12.9656 11.7157C13.0974 11.2939 13.1765 10.876 13.1765 10.4991C13.1765 10.1232 13.0974 9.70436 12.9656 9.28249C12.9073 9.09121 12.8372 8.9042 12.7558 8.72267C12.7259 8.66375 12.7074 8.59905 12.7015 8.5324C12.6955 8.46576 12.7023 8.39853 12.7213 8.3347C12.7403 8.27088 12.7712 8.21176 12.8121 8.16085C12.853 8.10994 12.9031 8.06828 12.9595 8.03835C13.0159 8.00841 13.0773 7.99081 13.1402 7.98658C13.2031 7.98235 13.2662 7.99158 13.3257 8.01373C13.3851 8.03587 13.4398 8.07048 13.4865 8.1155C13.5331 8.16052 13.5707 8.21504 13.5972 8.27581Z" fill="black"/>
</svg>
